<svg xmlns="http://www.w3.org/2000/svg" viewBox="0 0 1536 1024" role="img" width="1536" height="1024">
  <title>Beyoncé's Self-Titled Album Release – Retro Pixel Art Banner</title>

  <defs>
    <radialGradient id="bgGrad" cx="50%" cy="50%" r="70%">
      <stop offset="0%" stop-color="#1a0a2e" />
      <stop offset="100%" stop-color="#000008" />
    </radialGradient>
    <radialGradient id="glowGold" cx="50%" cy="50%" r="50%">
      <stop offset="0%" stop-color="#ffd700" stop-opacity="0.4" />
      <stop offset="100%" stop-color="#ffd700" stop-opacity="0" />
    </radialGradient>
    <radialGradient id="crtVig" cx="50%" cy="50%" r="70%">
      <stop offset="60%" stop-color="#000000" stop-opacity="0" />
      <stop offset="100%" stop-color="#000000" stop-opacity="0.55" />
    </radialGradient>
    <filter id="crtGlow">
      <feGaussianBlur stdDeviation="3" result="blur" />
      <feMerge><feMergeNode in="blur" /><feMergeNode in="SourceGraphic" /></feMerge>
    </filter>
  </defs>

  
  <rect width="1536" height="1024" fill="url(#bgGrad)" />

  
  <rect width="1536" height="1024" fill="none" stroke="#00ffff" stroke-opacity="0.03" stroke-width="2" />
  
  <rect x="0" y="0" width="1536" height="1024" fill="url(#crtVig)" />

  
  <g opacity="0.07">
    <rect x="0" y="0" width="1536" height="2" fill="#88ffff" />
    <rect x="0" y="4" width="1536" height="2" fill="#88ffff" />
    <rect x="0" y="8" width="1536" height="2" fill="#88ffff" />
    <rect x="0" y="12" width="1536" height="2" fill="#88ffff" />
    <rect x="0" y="16" width="1536" height="2" fill="#88ffff" />
    <rect x="0" y="20" width="1536" height="2" fill="#88ffff" />
    <rect x="0" y="24" width="1536" height="2" fill="#88ffff" />
    <rect x="0" y="28" width="1536" height="2" fill="#88ffff" />
    <rect x="0" y="32" width="1536" height="2" fill="#88ffff" />
    <rect x="0" y="36" width="1536" height="2" fill="#88ffff" />
    <rect x="0" y="40" width="1536" height="2" fill="#88ffff" />
    <rect x="0" y="44" width="1536" height="2" fill="#88ffff" />
    <rect x="0" y="48" width="1536" height="2" fill="#88ffff" />
    <rect x="0" y="52" width="1536" height="2" fill="#88ffff" />
    <rect x="0" y="56" width="1536" height="2" fill="#88ffff" />
    <rect x="0" y="60" width="1536" height="2" fill="#88ffff" />
    <rect x="0" y="64" width="1536" height="2" fill="#88ffff" />
    <rect x="0" y="68" width="1536" height="2" fill="#88ffff" />
    <rect x="0" y="72" width="1536" height="2" fill="#88ffff" />
    <rect x="0" y="76" width="1536" height="2" fill="#88ffff" />
    <rect x="0" y="80" width="1536" height="2" fill="#88ffff" />
    <rect x="0" y="84" width="1536" height="2" fill="#88ffff" />
    <rect x="0" y="88" width="1536" height="2" fill="#88ffff" />
    <rect x="0" y="92" width="1536" height="2" fill="#88ffff" />
    <rect x="0" y="96" width="1536" height="2" fill="#88ffff" />
    <rect x="0" y="100" width="1536" height="2" fill="#88ffff" />
    <rect x="0" y="104" width="1536" height="2" fill="#88ffff" />
    <rect x="0" y="108" width="1536" height="2" fill="#88ffff" />
    <rect x="0" y="112" width="1536" height="2" fill="#88ffff" />
    <rect x="0" y="116" width="1536" height="2" fill="#88ffff" />
    <rect x="0" y="120" width="1536" height="2" fill="#88ffff" />
    <rect x="0" y="124" width="1536" height="2" fill="#88ffff" />
    <rect x="0" y="128" width="1536" height="2" fill="#88ffff" />
    <rect x="0" y="132" width="1536" height="2" fill="#88ffff" />
    <rect x="0" y="136" width="1536" height="2" fill="#88ffff" />
    <rect x="0" y="140" width="1536" height="2" fill="#88ffff" />
    <rect x="0" y="144" width="1536" height="2" fill="#88ffff" />
    <rect x="0" y="148" width="1536" height="2" fill="#88ffff" />
    <rect x="0" y="152" width="1536" height="2" fill="#88ffff" />
    <rect x="0" y="156" width="1536" height="2" fill="#88ffff" />
    <rect x="0" y="160" width="1536" height="2" fill="#88ffff" />
    <rect x="0" y="164" width="1536" height="2" fill="#88ffff" />
    <rect x="0" y="168" width="1536" height="2" fill="#88ffff" />
    <rect x="0" y="172" width="1536" height="2" fill="#88ffff" />
    <rect x="0" y="176" width="1536" height="2" fill="#88ffff" />
    <rect x="0" y="180" width="1536" height="2" fill="#88ffff" />
    <rect x="0" y="184" width="1536" height="2" fill="#88ffff" />
    <rect x="0" y="188" width="1536" height="2" fill="#88ffff" />
    <rect x="0" y="192" width="1536" height="2" fill="#88ffff" />
    <rect x="0" y="196" width="1536" height="2" fill="#88ffff" />
    <rect x="0" y="200" width="1536" height="2" fill="#88ffff" />
    <rect x="0" y="204" width="1536" height="2" fill="#88ffff" />
    <rect x="0" y="208" width="1536" height="2" fill="#88ffff" />
    <rect x="0" y="212" width="1536" height="2" fill="#88ffff" />
    <rect x="0" y="216" width="1536" height="2" fill="#88ffff" />
    <rect x="0" y="220" width="1536" height="2" fill="#88ffff" />
    <rect x="0" y="224" width="1536" height="2" fill="#88ffff" />
    <rect x="0" y="228" width="1536" height="2" fill="#88ffff" />
    <rect x="0" y="232" width="1536" height="2" fill="#88ffff" />
    <rect x="0" y="236" width="1536" height="2" fill="#88ffff" />
    <rect x="0" y="240" width="1536" height="2" fill="#88ffff" />
    <rect x="0" y="244" width="1536" height="2" fill="#88ffff" />
    <rect x="0" y="248" width="1536" height="2" fill="#88ffff" />
    <rect x="0" y="252" width="1536" height="2" fill="#88ffff" />
    <rect x="0" y="256" width="1536" height="2" fill="#88ffff" />
    <rect x="0" y="260" width="1536" height="2" fill="#88ffff" />
    <rect x="0" y="264" width="1536" height="2" fill="#88ffff" />
    <rect x="0" y="268" width="1536" height="2" fill="#88ffff" />
    <rect x="0" y="272" width="1536" height="2" fill="#88ffff" />
    <rect x="0" y="276" width="1536" height="2" fill="#88ffff" />
    <rect x="0" y="280" width="1536" height="2" fill="#88ffff" />
    <rect x="0" y="284" width="1536" height="2" fill="#88ffff" />
    <rect x="0" y="288" width="1536" height="2" fill="#88ffff" />
    <rect x="0" y="292" width="1536" height="2" fill="#88ffff" />
    <rect x="0" y="296" width="1536" height="2" fill="#88ffff" />
    <rect x="0" y="300" width="1536" height="2" fill="#88ffff" />
    <rect x="0" y="304" width="1536" height="2" fill="#88ffff" />
    <rect x="0" y="308" width="1536" height="2" fill="#88ffff" />
    <rect x="0" y="312" width="1536" height="2" fill="#88ffff" />
    <rect x="0" y="316" width="1536" height="2" fill="#88ffff" />
    <rect x="0" y="320" width="1536" height="2" fill="#88ffff" />
    <rect x="0" y="324" width="1536" height="2" fill="#88ffff" />
    <rect x="0" y="328" width="1536" height="2" fill="#88ffff" />
    <rect x="0" y="332" width="1536" height="2" fill="#88ffff" />
    <rect x="0" y="336" width="1536" height="2" fill="#88ffff" />
    <rect x="0" y="340" width="1536" height="2" fill="#88ffff" />
    <rect x="0" y="344" width="1536" height="2" fill="#88ffff" />
    <rect x="0" y="348" width="1536" height="2" fill="#88ffff" />
    <rect x="0" y="352" width="1536" height="2" fill="#88ffff" />
    <rect x="0" y="356" width="1536" height="2" fill="#88ffff" />
    <rect x="0" y="360" width="1536" height="2" fill="#88ffff" />
    <rect x="0" y="364" width="1536" height="2" fill="#88ffff" />
    <rect x="0" y="368" width="1536" height="2" fill="#88ffff" />
    <rect x="0" y="372" width="1536" height="2" fill="#88ffff" />
    <rect x="0" y="376" width="1536" height="2" fill="#88ffff" />
    <rect x="0" y="380" width="1536" height="2" fill="#88ffff" />
    <rect x="0" y="384" width="1536" height="2" fill="#88ffff" />
    <rect x="0" y="388" width="1536" height="2" fill="#88ffff" />
    <rect x="0" y="392" width="1536" height="2" fill="#88ffff" />
    <rect x="0" y="396" width="1536" height="2" fill="#88ffff" />
    <rect x="0" y="400" width="1536" height="2" fill="#88ffff" />
    <rect x="0" y="404" width="1536" height="2" fill="#88ffff" />
    <rect x="0" y="408" width="1536" height="2" fill="#88ffff" />
    <rect x="0" y="412" width="1536" height="2" fill="#88ffff" />
    <rect x="0" y="416" width="1536" height="2" fill="#88ffff" />
    <rect x="0" y="420" width="1536" height="2" fill="#88ffff" />
    <rect x="0" y="424" width="1536" height="2" fill="#88ffff" />
    <rect x="0" y="428" width="1536" height="2" fill="#88ffff" />
    <rect x="0" y="432" width="1536" height="2" fill="#88ffff" />
    <rect x="0" y="436" width="1536" height="2" fill="#88ffff" />
    <rect x="0" y="440" width="1536" height="2" fill="#88ffff" />
    <rect x="0" y="444" width="1536" height="2" fill="#88ffff" />
    <rect x="0" y="448" width="1536" height="2" fill="#88ffff" />
    <rect x="0" y="452" width="1536" height="2" fill="#88ffff" />
    <rect x="0" y="456" width="1536" height="2" fill="#88ffff" />
    <rect x="0" y="460" width="1536" height="2" fill="#88ffff" />
    <rect x="0" y="464" width="1536" height="2" fill="#88ffff" />
    <rect x="0" y="468" width="1536" height="2" fill="#88ffff" />
    <rect x="0" y="472" width="1536" height="2" fill="#88ffff" />
    <rect x="0" y="476" width="1536" height="2" fill="#88ffff" />
    <rect x="0" y="480" width="1536" height="2" fill="#88ffff" />
    <rect x="0" y="484" width="1536" height="2" fill="#88ffff" />
    <rect x="0" y="488" width="1536" height="2" fill="#88ffff" />
    <rect x="0" y="492" width="1536" height="2" fill="#88ffff" />
    <rect x="0" y="496" width="1536" height="2" fill="#88ffff" />
    <rect x="0" y="500" width="1536" height="2" fill="#88ffff" />
    <rect x="0" y="504" width="1536" height="2" fill="#88ffff" />
    <rect x="0" y="508" width="1536" height="2" fill="#88ffff" />
    <rect x="0" y="512" width="1536" height="2" fill="#88ffff" />
    <rect x="0" y="516" width="1536" height="2" fill="#88ffff" />
    <rect x="0" y="520" width="1536" height="2" fill="#88ffff" />
    <rect x="0" y="524" width="1536" height="2" fill="#88ffff" />
    <rect x="0" y="528" width="1536" height="2" fill="#88ffff" />
    <rect x="0" y="532" width="1536" height="2" fill="#88ffff" />
    <rect x="0" y="536" width="1536" height="2" fill="#88ffff" />
    <rect x="0" y="540" width="1536" height="2" fill="#88ffff" />
    <rect x="0" y="544" width="1536" height="2" fill="#88ffff" />
    <rect x="0" y="548" width="1536" height="2" fill="#88ffff" />
    <rect x="0" y="552" width="1536" height="2" fill="#88ffff" />
    <rect x="0" y="556" width="1536" height="2" fill="#88ffff" />
    <rect x="0" y="560" width="1536" height="2" fill="#88ffff" />
    <rect x="0" y="564" width="1536" height="2" fill="#88ffff" />
    <rect x="0" y="568" width="1536" height="2" fill="#88ffff" />
    <rect x="0" y="572" width="1536" height="2" fill="#88ffff" />
    <rect x="0" y="576" width="1536" height="2" fill="#88ffff" />
    <rect x="0" y="580" width="1536" height="2" fill="#88ffff" />
    <rect x="0" y="584" width="1536" height="2" fill="#88ffff" />
    <rect x="0" y="588" width="1536" height="2" fill="#88ffff" />
    <rect x="0" y="592" width="1536" height="2" fill="#88ffff" />
    <rect x="0" y="596" width="1536" height="2" fill="#88ffff" />
    <rect x="0" y="600" width="1536" height="2" fill="#88ffff" />
    <rect x="0" y="604" width="1536" height="2" fill="#88ffff" />
    <rect x="0" y="608" width="1536" height="2" fill="#88ffff" />
    <rect x="0" y="612" width="1536" height="2" fill="#88ffff" />
    <rect x="0" y="616" width="1536" height="2" fill="#88ffff" />
    <rect x="0" y="620" width="1536" height="2" fill="#88ffff" />
    <rect x="0" y="624" width="1536" height="2" fill="#88ffff" />
    <rect x="0" y="628" width="1536" height="2" fill="#88ffff" />
    <rect x="0" y="632" width="1536" height="2" fill="#88ffff" />
    <rect x="0" y="636" width="1536" height="2" fill="#88ffff" />
    <rect x="0" y="640" width="1536" height="2" fill="#88ffff" />
    <rect x="0" y="644" width="1536" height="2" fill="#88ffff" />
    <rect x="0" y="648" width="1536" height="2" fill="#88ffff" />
    <rect x="0" y="652" width="1536" height="2" fill="#88ffff" />
    <rect x="0" y="656" width="1536" height="2" fill="#88ffff" />
    <rect x="0" y="660" width="1536" height="2" fill="#88ffff" />
    <rect x="0" y="664" width="1536" height="2" fill="#88ffff" />
    <rect x="0" y="668" width="1536" height="2" fill="#88ffff" />
    <rect x="0" y="672" width="1536" height="2" fill="#88ffff" />
    <rect x="0" y="676" width="1536" height="2" fill="#88ffff" />
    <rect x="0" y="680" width="1536" height="2" fill="#88ffff" />
    <rect x="0" y="684" width="1536" height="2" fill="#88ffff" />
    <rect x="0" y="688" width="1536" height="2" fill="#88ffff" />
    <rect x="0" y="692" width="1536" height="2" fill="#88ffff" />
    <rect x="0" y="696" width="1536" height="2" fill="#88ffff" />
    <rect x="0" y="700" width="1536" height="2" fill="#88ffff" />
    <rect x="0" y="704" width="1536" height="2" fill="#88ffff" />
    <rect x="0" y="708" width="1536" height="2" fill="#88ffff" />
    <rect x="0" y="712" width="1536" height="2" fill="#88ffff" />
    <rect x="0" y="716" width="1536" height="2" fill="#88ffff" />
    <rect x="0" y="720" width="1536" height="2" fill="#88ffff" />
    <rect x="0" y="724" width="1536" height="2" fill="#88ffff" />
    <rect x="0" y="728" width="1536" height="2" fill="#88ffff" />
    <rect x="0" y="732" width="1536" height="2" fill="#88ffff" />
    <rect x="0" y="736" width="1536" height="2" fill="#88ffff" />
    <rect x="0" y="740" width="1536" height="2" fill="#88ffff" />
    <rect x="0" y="744" width="1536" height="2" fill="#88ffff" />
    <rect x="0" y="748" width="1536" height="2" fill="#88ffff" />
    <rect x="0" y="752" width="1536" height="2" fill="#88ffff" />
    <rect x="0" y="756" width="1536" height="2" fill="#88ffff" />
    <rect x="0" y="760" width="1536" height="2" fill="#88ffff" />
    <rect x="0" y="764" width="1536" height="2" fill="#88ffff" />
    <rect x="0" y="768" width="1536" height="2" fill="#88ffff" />
    <rect x="0" y="772" width="1536" height="2" fill="#88ffff" />
    <rect x="0" y="776" width="1536" height="2" fill="#88ffff" />
    <rect x="0" y="780" width="1536" height="2" fill="#88ffff" />
    <rect x="0" y="784" width="1536" height="2" fill="#88ffff" />
    <rect x="0" y="788" width="1536" height="2" fill="#88ffff" />
    <rect x="0" y="792" width="1536" height="2" fill="#88ffff" />
    <rect x="0" y="796" width="1536" height="2" fill="#88ffff" />
    <rect x="0" y="800" width="1536" height="2" fill="#88ffff" />
    <rect x="0" y="804" width="1536" height="2" fill="#88ffff" />
    <rect x="0" y="808" width="1536" height="2" fill="#88ffff" />
    <rect x="0" y="812" width="1536" height="2" fill="#88ffff" />
    <rect x="0" y="816" width="1536" height="2" fill="#88ffff" />
    <rect x="0" y="820" width="1536" height="2" fill="#88ffff" />
    <rect x="0" y="824" width="1536" height="2" fill="#88ffff" />
    <rect x="0" y="828" width="1536" height="2" fill="#88ffff" />
    <rect x="0" y="832" width="1536" height="2" fill="#88ffff" />
    <rect x="0" y="836" width="1536" height="2" fill="#88ffff" />
    <rect x="0" y="840" width="1536" height="2" fill="#88ffff" />
    <rect x="0" y="844" width="1536" height="2" fill="#88ffff" />
    <rect x="0" y="848" width="1536" height="2" fill="#88ffff" />
    <rect x="0" y="852" width="1536" height="2" fill="#88ffff" />
    <rect x="0" y="856" width="1536" height="2" fill="#88ffff" />
    <rect x="0" y="860" width="1536" height="2" fill="#88ffff" />
    <rect x="0" y="864" width="1536" height="2" fill="#88ffff" />
    <rect x="0" y="868" width="1536" height="2" fill="#88ffff" />
    <rect x="0" y="872" width="1536" height="2" fill="#88ffff" />
    <rect x="0" y="876" width="1536" height="2" fill="#88ffff" />
    <rect x="0" y="880" width="1536" height="2" fill="#88ffff" />
    <rect x="0" y="884" width="1536" height="2" fill="#88ffff" />
    <rect x="0" y="888" width="1536" height="2" fill="#88ffff" />
    <rect x="0" y="892" width="1536" height="2" fill="#88ffff" />
    <rect x="0" y="896" width="1536" height="2" fill="#88ffff" />
    <rect x="0" y="900" width="1536" height="2" fill="#88ffff" />
    <rect x="0" y="904" width="1536" height="2" fill="#88ffff" />
    <rect x="0" y="908" width="1536" height="2" fill="#88ffff" />
    <rect x="0" y="912" width="1536" height="2" fill="#88ffff" />
    <rect x="0" y="916" width="1536" height="2" fill="#88ffff" />
    <rect x="0" y="920" width="1536" height="2" fill="#88ffff" />
    <rect x="0" y="924" width="1536" height="2" fill="#88ffff" />
    <rect x="0" y="928" width="1536" height="2" fill="#88ffff" />
    <rect x="0" y="932" width="1536" height="2" fill="#88ffff" />
    <rect x="0" y="936" width="1536" height="2" fill="#88ffff" />
    <rect x="0" y="940" width="1536" height="2" fill="#88ffff" />
    <rect x="0" y="944" width="1536" height="2" fill="#88ffff" />
    <rect x="0" y="948" width="1536" height="2" fill="#88ffff" />
    <rect x="0" y="952" width="1536" height="2" fill="#88ffff" />
    <rect x="0" y="956" width="1536" height="2" fill="#88ffff" />
    <rect x="0" y="960" width="1536" height="2" fill="#88ffff" />
    <rect x="0" y="964" width="1536" height="2" fill="#88ffff" />
    <rect x="0" y="968" width="1536" height="2" fill="#88ffff" />
    <rect x="0" y="972" width="1536" height="2" fill="#88ffff" />
    <rect x="0" y="976" width="1536" height="2" fill="#88ffff" />
    <rect x="0" y="980" width="1536" height="2" fill="#88ffff" />
    <rect x="0" y="984" width="1536" height="2" fill="#88ffff" />
    <rect x="0" y="988" width="1536" height="2" fill="#88ffff" />
    <rect x="0" y="992" width="1536" height="2" fill="#88ffff" />
    <rect x="0" y="996" width="1536" height="2" fill="#88ffff" />
    <rect x="0" y="1000" width="1536" height="2" fill="#88ffff" />
    <rect x="0" y="1004" width="1536" height="2" fill="#88ffff" />
    <rect x="0" y="1008" width="1536" height="2" fill="#88ffff" />
    <rect x="0" y="1012" width="1536" height="2" fill="#88ffff" />
    <rect x="0" y="1016" width="1536" height="2" fill="#88ffff" />
    <rect x="0" y="1020" width="1536" height="2" fill="#88ffff" />
  </g>

  
  <ellipse cx="768" cy="480" rx="360" ry="440" fill="url(#glowGold)" />

  
  
  
  <g filter="url(#crtGlow)">
    
    <rect x="696" y="96" width="12" height="12" fill="#ffd700" />
    <rect x="708" y="84" width="12" height="12" fill="#ffd700" />
    <rect x="720" y="72" width="12" height="12" fill="#ffd700" />
    <rect x="732" y="60" width="12" height="12" fill="#fff200" />
    <rect x="744" y="48" width="12" height="12" fill="#ffd700" />
    <rect x="756" y="36" width="12" height="12" fill="#fff200" />
    <rect x="768" y="48" width="12" height="12" fill="#ffd700" />
    <rect x="780" y="36" width="12" height="12" fill="#fff200" />
    <rect x="792" y="48" width="12" height="12" fill="#ffd700" />
    <rect x="804" y="60" width="12" height="12" fill="#fff200" />
    <rect x="816" y="72" width="12" height="12" fill="#ffd700" />
    <rect x="828" y="84" width="12" height="12" fill="#ffd700" />
    <rect x="840" y="96" width="12" height="12" fill="#ffd700" />
    
    <rect x="696" y="108" width="156" height="12" fill="#ffd700" />
    <rect x="696" y="120" width="156" height="12" fill="#c8a000" />

    
    <rect x="684" y="132" width="180" height="12" fill="#3d1a00" />
    <rect x="672" y="144" width="204" height="12" fill="#3d1a00" />
    <rect x="660" y="156" width="228" height="12" fill="#5a2800" />

    
    <rect x="660" y="168" width="228" height="12" fill="#5a2800" />
    <rect x="672" y="180" width="12" height="72" fill="#5a2800" />
    <rect x="852" y="180" width="12" height="72" fill="#5a2800" />
    
    <rect x="684" y="180" width="168" height="12" fill="#c8824a" />
    <rect x="684" y="192" width="168" height="12" fill="#d4916a" />
    <rect x="684" y="204" width="168" height="12" fill="#d4916a" />
    
    <rect x="708" y="204" width="24" height="12" fill="#ffffff" />
    <rect x="804" y="204" width="24" height="12" fill="#ffffff" />
    <rect x="714" y="204" width="12" height="12" fill="#2a1a00" />
    <rect x="810" y="204" width="12" height="12" fill="#2a1a00" />
    
    <rect x="708" y="192" width="36" height="6" fill="#2a1a00" />
    <rect x="792" y="192" width="36" height="6" fill="#2a1a00" />
    
    <rect x="756" y="216" width="24" height="6" fill="#b07040" />
    <rect x="750" y="222" width="36" height="6" fill="#b07040" />
    
    <rect x="696" y="228" width="144" height="8" fill="#c8824a" />
    <rect x="708" y="236" width="120" height="10" fill="#e8304a" />
    <rect x="720" y="246" width="96" height="8" fill="#c82030" />
    
    <rect x="684" y="252" width="168" height="12" fill="#d4916a" />
    <rect x="696" y="264" width="144" height="12" fill="#c8824a" />

    
    <rect x="732" y="276" width="72" height="12" fill="#c8824a" />
    <rect x="732" y="288" width="72" height="12" fill="#c8824a" />

    
    <rect x="600" y="300" width="360" height="12" fill="#ffd700" />
    <rect x="588" y="312" width="372" height="12" fill="#ffd700" />
    <rect x="576" y="324" width="384" height="12" fill="#c8a000" />
    <rect x="576" y="336" width="384" height="12" fill="#ffd700" />
    <rect x="576" y="348" width="384" height="12" fill="#c8a000" />
    <rect x="576" y="360" width="384" height="12" fill="#ffd700" />
    <rect x="576" y="372" width="384" height="12" fill="#c8a000" />
    
    <rect x="612" y="384" width="312" height="12" fill="#ffd700" />
    <rect x="624" y="396" width="288" height="12" fill="#c8a000" />
    
    <rect x="564" y="408" width="420" height="12" fill="#ffd700" />
    <rect x="552" y="420" width="444" height="12" fill="#c8a000" />
    <rect x="528" y="432" width="492" height="12" fill="#ffd700" />
    <rect x="504" y="444" width="540" height="12" fill="#c8a000" />
    <rect x="480" y="456" width="588" height="12" fill="#ffd700" />
    <rect x="456" y="468" width="636" height="12" fill="#c8a000" />
    <rect x="432" y="480" width="684" height="12" fill="#ffd700" />
    <rect x="408" y="492" width="732" height="12" fill="#c8a000" />
    <rect x="384" y="504" width="780" height="12" fill="#ffd700" />
    <rect x="360" y="516" width="828" height="12" fill="#c8a000" />
    <rect x="336" y="528" width="876" height="12" fill="#ffd700" />
    <rect x="312" y="540" width="924" height="12" fill="#c8a000" />
    <rect x="288" y="552" width="972" height="12" fill="#ffd700" />
    <rect x="264" y="564" width="1020" height="12" fill="#c8a000" />
    
    <rect x="240" y="576" width="1068" height="12" fill="#ffd700" />
    <rect x="216" y="588" width="1116" height="12" fill="#c8a000" />
    <rect x="192" y="600" width="1164" height="24" fill="#ffd700" />

    
    
    <rect x="528" y="312" width="60" height="12" fill="#c8824a" />
    <rect x="480" y="324" width="60" height="12" fill="#c8824a" />
    <rect x="444" y="336" width="48" height="12" fill="#c8824a" />
    <rect x="420" y="348" width="36" height="12" fill="#c8824a" />
    
    <rect x="948" y="312" width="60" height="12" fill="#c8824a" />
    <rect x="996" y="324" width="60" height="12" fill="#c8824a" />
    <rect x="1044" y="336" width="48" height="12" fill="#c8824a" />
    <rect x="1080" y="348" width="36" height="12" fill="#c8824a" />

    
    <rect x="396" y="348" width="24" height="36" fill="#888888" />
    <rect x="390" y="336" width="36" height="24" fill="#aaaaaa" />

    
    <rect x="1116" y="336" width="24" height="36" fill="#c8824a" />

    
    <rect x="660" y="276" width="24" height="120" fill="#3d1a00" />
    <rect x="648" y="276" width="24" height="180" fill="#5a2800" />
    <rect x="636" y="288" width="24" height="120" fill="#3d1a00" />
    <rect x="852" y="276" width="24" height="120" fill="#3d1a00" />
    <rect x="864" y="276" width="24" height="180" fill="#5a2800" />
    <rect x="876" y="288" width="24" height="120" fill="#3d1a00" />

    
    <rect x="0" y="624" width="1536" height="8" fill="#ff00ff" opacity="0.8" />
    <rect x="0" y="632" width="1536" height="4" fill="#00ffff" opacity="0.6" />
    <rect x="0" y="636" width="1536" height="4" fill="#ff00ff" opacity="0.4" />

    
    <rect x="60" y="200" width="16" height="400" fill="#ff00ff" opacity="0.15" />
    <rect x="76" y="200" width="8" height="400" fill="#ffffff" opacity="0.1" />
    <rect x="140" y="150" width="16" height="450" fill="#00ffff" opacity="0.12" />
    <rect x="200" y="180" width="16" height="420" fill="#ffd700" opacity="0.1" />
    
    <rect x="1460" y="200" width="16" height="400" fill="#ff00ff" opacity="0.15" />
    <rect x="1452" y="200" width="8" height="400" fill="#ffffff" opacity="0.1" />
    <rect x="1380" y="150" width="16" height="450" fill="#00ffff" opacity="0.12" />
    <rect x="1320" y="180" width="16" height="420" fill="#ffd700" opacity="0.1" />

    
    <rect x="100" y="80" width="8" height="8" fill="#ffd700" />
    <rect x="104" y="76" width="8" height="8" fill="#ffd700" />
    <rect x="96" y="76" width="8" height="8" fill="#ffd700" />
    <rect x="100" y="72" width="8" height="8" fill="#fff200" />

    <rect x="1400" y="120" width="8" height="8" fill="#ffd700" />
    <rect x="1404" y="116" width="8" height="8" fill="#ffd700" />
    <rect x="1396" y="116" width="8" height="8" fill="#ffd700" />
    <rect x="1400" y="112" width="8" height="8" fill="#fff200" />

    <rect x="200" y="500" width="6" height="6" fill="#ff00ff" />
    <rect x="203" y="497" width="6" height="6" fill="#ff00ff" />
    <rect x="1300" y="450" width="6" height="6" fill="#00ffff" />
    <rect x="1303" y="447" width="6" height="6" fill="#00ffff" />

    <rect x="350" y="100" width="6" height="6" fill="#fff200" />
    <rect x="1180" y="130" width="6" height="6" fill="#fff200" />
    <rect x="450" y="200" width="6" height="6" fill="#ff88ff" />
    <rect x="1100" y="190" width="6" height="6" fill="#88ffff" />

    
    <rect x="140" y="380" width="8" height="32" fill="#ff00ff" />
    <rect x="140" y="380" width="20" height="12" fill="#ff00ff" />
    <rect x="148" y="408" width="16" height="16" fill="#ff00ff" />

    <rect x="180" y="350" width="8" height="28" fill="#00ffff" />
    <rect x="180" y="350" width="20" height="10" fill="#00ffff" />
    <rect x="188" y="374" width="16" height="16" fill="#00ffff" />

    
    <rect x="1380" y="380" width="8" height="32" fill="#ff00ff" />
    <rect x="1368" y="380" width="20" height="12" fill="#ff00ff" />
    <rect x="1368" y="408" width="16" height="16" fill="#ff00ff" />

    <rect x="1340" y="350" width="8" height="28" fill="#00ffff" />
    <rect x="1328" y="350" width="20" height="10" fill="#00ffff" />
    <rect x="1328" y="374" width="16" height="16" fill="#00ffff" />

    
    <rect x="80" y="660" width="80" height="80" rx="12" fill="#fc3c44" />
    <rect x="90" y="670" width="60" height="60" rx="8" fill="#fc3c44" />
    
    <rect x="113" y="686" width="6" height="30" fill="#ffffff" />
    <rect x="113" y="686" width="18" height="8" fill="#ffffff" />
    <rect x="109" y="712" width="14" height="14" fill="#ffffff" />

    
    <rect x="1360" y="640" width="100" height="100" fill="#111111" />
    <rect x="1365" y="645" width="90" height="90" fill="#222222" />
    <rect x="1375" y="655" width="70" height="70" fill="#ffd700" opacity="0.3" />
    <text x="1410" y="700" font-family="monospace" font-size="14" fill="#ffd700" text-anchor="middle">B</text>

    
    <rect x="60" y="760" width="200" height="56" fill="#1a0a2e" />
    <rect x="60" y="760" width="200" height="56" fill="none" stroke="#ffd700" stroke-width="3" />
    <text x="160" y="785" font-family="monospace" font-size="14" fill="#ffd700" text-anchor="middle">DEC 13, 2013</text>
    <text x="160" y="804" font-family="monospace" font-size="12" fill="#ff00ff" text-anchor="middle">12:00 AM EST</text>

    
    <rect x="1276" y="760" width="200" height="56" fill="#1a0a2e" />
    <rect x="1276" y="760" width="200" height="56" fill="none" stroke="#ff00ff" stroke-width="3" />
    <text x="1376" y="785" font-family="monospace" font-size="14" fill="#ff00ff" text-anchor="middle">★★★ FLAWLESS</text>
    <text x="1376" y="804" font-family="monospace" font-size="12" fill="#ffd700" text-anchor="middle">VISUAL ALBUM</text>

  </g>

  
  <rect width="1536" height="1024" fill="url(#crtVig)" />

  
  
  <text x="770" y="870" font-family="monospace, 'Courier New', Courier" font-size="72" font-weight="bold" fill="#ff00ff" text-anchor="middle" opacity="0.5" letter-spacing="2">BEYONCÉ</text>
  
  <text x="768" y="866" font-family="monospace, 'Courier New', Courier" font-size="72" font-weight="bold" fill="#ffd700" text-anchor="middle" letter-spacing="2">BEYONCÉ</text>

  
  <text x="769" y="935" font-family="monospace, 'Courier New', Courier" font-size="30" fill="#00ffff" text-anchor="middle" opacity="0.6" letter-spacing="1">SELF-TITLED ALBUM RELEASE</text>
  <text x="768" y="932" font-family="monospace, 'Courier New', Courier" font-size="30" fill="#ffffff" text-anchor="middle" letter-spacing="1">SELF-TITLED ALBUM RELEASE</text>

  
  <rect x="0" y="0" width="1536" height="6" fill="#ffd700" />
  <rect x="0" y="6" width="1536" height="3" fill="#ff00ff" />
  <rect x="0" y="1015" width="1536" height="3" fill="#ff00ff" />
  <rect x="0" y="1018" width="1536" height="6" fill="#ffd700" />

  
  <rect x="0" y="0" width="6" height="1024" fill="#ffd700" />
  <rect x="6" y="0" width="3" height="1024" fill="#ff00ff" />
  <rect x="1527" y="0" width="3" height="1024" fill="#ff00ff" />
  <rect x="1530" y="0" width="6" height="1024" fill="#ffd700" />

</svg>