<svg xmlns="http://www.w3.org/2000/svg" viewBox="0 0 1536 1024" role="img" width="1536" height="1024">
  <title>Harlem Shake Viral Phenomenon - Retro Pixel Art Banner</title>
  <defs>
    <radialGradient id="crt" cx="50%" cy="50%" r="70%">
      <stop offset="0%" stop-color="#1a0a2e" />
      <stop offset="100%" stop-color="#050008" />
    </radialGradient>
    <filter id="glow">
      <feGaussianBlur stdDeviation="3" result="blur" />
      <feMerge><feMergeNode in="blur" /><feMergeNode in="SourceGraphic" /></feMerge>
    </filter>
    <pattern id="scanlines" x="0" y="0" width="4" height="4" patternUnits="userSpaceOnUse">
      <rect x="0" y="0" width="4" height="2" fill="rgba(0,0,0,0.15)" />
    </pattern>
  </defs>

  
  <rect width="1536" height="1024" fill="url(#crt)" />

  
  <g fill="#2a1040" opacity="0.5">
    <rect x="0" y="0" width="8" height="8" rx="0" />
    
  </g>

  
  <g fill="#ff00ff" opacity="0.3">
    <rect x="50" y="80" width="4" height="4" />
    <rect x="200" y="150" width="4" height="4" />
    <rect x="400" y="60" width="4" height="4" />
    <rect x="700" y="100" width="4" height="4" />
    <rect x="900" y="50" width="4" height="4" />
    <rect x="1100" y="120" width="4" height="4" />
    <rect x="1300" y="80" width="4" height="4" />
    <rect x="1450" y="200" width="4" height="4" />
    <rect x="100" y="900" width="4" height="4" />
    <rect x="300" y="950" width="4" height="4" />
    <rect x="600" y="920" width="4" height="4" />
    <rect x="850" y="970" width="4" height="4" />
    <rect x="1200" y="900" width="4" height="4" />
    <rect x="1400" y="950" width="4" height="4" />
  </g>
  <g fill="#00ffff" opacity="0.3">
    <rect x="150" y="200" width="4" height="4" />
    <rect x="500" y="180" width="4" height="4" />
    <rect x="800" y="130" width="4" height="4" />
    <rect x="1050" y="170" width="4" height="4" />
    <rect x="1350" y="250" width="4" height="4" />
    <rect x="250" y="850" width="4" height="4" />
    <rect x="750" y="880" width="4" height="4" />
    <rect x="1100" y="860" width="4" height="4" />
  </g>

  
  <rect x="0" y="820" width="1536" height="204" fill="#0d0020" />
  
  <g fill="#7700ff">
    <rect x="0" y="820" width="1536" height="8" />
  </g>
  <g fill="#aa44ff">
    <rect x="0" y="812" width="1536" height="8" />
  </g>

  
  <g opacity="0.4">
    <rect x="0" y="828" width="64" height="64" fill="#1a0035" />
    <rect x="64" y="828" width="64" height="64" fill="#220045" />
    <rect x="128" y="828" width="64" height="64" fill="#1a0035" />
    <rect x="192" y="828" width="64" height="64" fill="#220045" />
    <rect x="256" y="828" width="64" height="64" fill="#1a0035" />
    <rect x="320" y="828" width="64" height="64" fill="#220045" />
    <rect x="384" y="828" width="64" height="64" fill="#1a0035" />
    <rect x="448" y="828" width="64" height="64" fill="#220045" />
    <rect x="512" y="828" width="64" height="64" fill="#1a0035" />
    <rect x="576" y="828" width="64" height="64" fill="#220045" />
    <rect x="640" y="828" width="64" height="64" fill="#1a0035" />
    <rect x="704" y="828" width="64" height="64" fill="#220045" />
    <rect x="768" y="828" width="64" height="64" fill="#1a0035" />
    <rect x="832" y="828" width="64" height="64" fill="#220045" />
    <rect x="896" y="828" width="64" height="64" fill="#1a0035" />
    <rect x="960" y="828" width="64" height="64" fill="#220045" />
    <rect x="1024" y="828" width="64" height="64" fill="#1a0035" />
    <rect x="1088" y="828" width="64" height="64" fill="#220045" />
    <rect x="1152" y="828" width="64" height="64" fill="#1a0035" />
    <rect x="1216" y="828" width="64" height="64" fill="#220045" />
    <rect x="1280" y="828" width="64" height="64" fill="#1a0035" />
    <rect x="1344" y="828" width="64" height="64" fill="#220045" />
    <rect x="1408" y="828" width="64" height="64" fill="#1a0035" />
    <rect x="1472" y="828" width="64" height="64" fill="#220045" />
  </g>

  

  
  
  <g filter="url(#glow)">
    
    
    <rect x="340" y="560" width="64" height="64" fill="#444444" />
    <rect x="348" y="568" width="48" height="32" fill="#222222" />
    
    <rect x="352" y="576" width="40" height="16" fill="#00ccff" opacity="0.8" />
    
    <rect x="348" y="624" width="48" height="56" fill="#cc3333" />
    
    <rect x="300" y="624" width="48" height="16" fill="#cc3333" />
    <rect x="396" y="616" width="48" height="16" fill="#cc3333" />
    
    <rect x="284" y="624" width="16" height="16" fill="#ffcc99" />
    <rect x="444" y="608" width="16" height="16" fill="#ffcc99" />
    
    <rect x="348" y="680" width="20" height="48" fill="#333399" />
    <rect x="376" y="680" width="20" height="48" fill="#333399" />
    
    <rect x="340" y="720" width="28" height="16" fill="#222222" />
    <rect x="376" y="720" width="28" height="16" fill="#222222" />
    
    <rect x="280" y="600" width="24" height="4" fill="#ffff00" opacity="0.7" />
    <rect x="276" y="612" width="16" height="4" fill="#ffff00" opacity="0.5" />
    <rect x="460" y="596" width="24" height="4" fill="#ffff00" opacity="0.7" />
    <rect x="464" y="608" width="16" height="4" fill="#ffff00" opacity="0.5" />
  </g>

  
  <g filter="url(#glow)">
    <rect x="80" y="580" width="48" height="48" fill="#ffdd00" />
    <rect x="88" y="588" width="32" height="24" fill="#ffaa00" />
    
    <rect x="96" y="596" width="8" height="8" fill="#000000" />
    <rect x="112" y="596" width="8" height="8" fill="#000000" />
    
    <rect x="72" y="628" width="64" height="64" fill="#ffdd00" />
    <rect x="80" y="628" width="48" height="64" fill="#ffcc00" />
    
    <rect x="32" y="596" width="40" height="16" fill="#ffdd00" />
    <rect x="136" y="584" width="40" height="16" fill="#ffdd00" />
    <rect x="20" y="588" width="16" height="16" fill="#ffaa44" />
    <rect x="176" y="576" width="16" height="16" fill="#ffaa44" />
    
    <rect x="80" y="692" width="20" height="48" fill="#ffdd00" />
    <rect x="108" y="692" width="20" height="48" fill="#ffdd00" />
    <rect x="72" y="732" width="28" height="16" fill="#cc8800" />
    <rect x="108" y="732" width="28" height="16" fill="#cc8800" />
    
    <rect x="44" y="572" width="8" height="8" fill="#ffffff" />
    <rect x="164" y="560" width="8" height="8" fill="#ffffff" />
    <rect x="56" y="560" width="4" height="4" fill="#ffff00" />
    <rect x="172" y="576" width="4" height="4" fill="#ffff00" />
  </g>

  
  <g filter="url(#glow)">
    <rect x="560" y="572" width="56" height="56" fill="#00cc44" />
    <rect x="568" y="580" width="40" height="28" fill="#009933" />
    
    <rect x="572" y="588" width="10" height="10" fill="#ffffff" />
    <rect x="590" y="588" width="10" height="10" fill="#ffffff" />
    <rect x="575" y="591" width="4" height="4" fill="#000000" />
    <rect x="593" y="591" width="4" height="4" fill="#000000" />
    
    <rect x="552" y="628" width="72" height="64" fill="#00cc44" />
    
    <rect x="504" y="596" width="48" height="16" fill="#00cc44" />
    <rect x="624" y="580" width="48" height="16" fill="#00cc44" />
    <rect x="492" y="588" width="16" height="16" fill="#00cc44" />
    <rect x="672" y="572" width="16" height="16" fill="#00cc44" />
    
    <rect x="552" y="692" width="20" height="48" fill="#009933" />
    <rect x="596" y="692" width="20" height="48" fill="#009933" />
    <rect x="536" y="732" width="28" height="16" fill="#006622" />
    <rect x="596" y="732" width="28" height="16" fill="#006622" />
  </g>

  
  <g filter="url(#glow)">
    
    <rect x="820" y="556" width="56" height="56" fill="#ff99cc" />
    <rect x="836" y="532" width="12" height="28" fill="#ffcc00" />
    <rect x="832" y="528" width="20" height="8" fill="#ffaa00" />
    <rect x="828" y="564" width="40" height="24" fill="#ff77aa" />
    
    <rect x="832" y="572" width="10" height="10" fill="#ffffff" />
    <rect x="850" y="572" width="10" height="10" fill="#ffffff" />
    <rect x="835" y="575" width="4" height="4" fill="#660033" />
    <rect x="853" y="575" width="4" height="4" fill="#660033" />
    
    <rect x="808" y="612" width="80" height="72" fill="#ff99cc" />
    
    <rect x="748" y="612" width="60" height="16" fill="#ff99cc" />
    <rect x="888" y="600" width="60" height="16" fill="#ff99cc" />
    <rect x="736" y="604" width="16" height="16" fill="#ffddee" />
    <rect x="948" y="592" width="16" height="16" fill="#ffddee" />
    
    <rect x="812" y="684" width="24" height="52" fill="#ff77aa" />
    <rect x="852" y="684" width="24" height="52" fill="#ff77aa" />
    <rect x="800" y="728" width="32" height="16" fill="#cc5588" />
    <rect x="852" y="728" width="32" height="16" fill="#cc5588" />
    
    <rect x="740" y="584" width="8" height="8" fill="#ff0000" />
    <rect x="752" y="576" width="8" height="8" fill="#ff8800" />
    <rect x="764" y="568" width="8" height="8" fill="#ffff00" />
    <rect x="776" y="560" width="8" height="8" fill="#00ff00" />
    <rect x="788" y="552" width="8" height="8" fill="#0088ff" />
    <rect x="800" y="544" width="8" height="8" fill="#8800ff" />
  </g>

  
  <g filter="url(#glow)">
    <rect x="1140" y="568" width="64" height="64" fill="#aaaaaa" />
    <rect x="1148" y="576" width="48" height="32" fill="#888888" />
    
    <rect x="1152" y="584" width="12" height="12" fill="#00ffff" />
    <rect x="1176" y="584" width="12" height="12" fill="#00ffff" />
    
    <rect x="1152" y="604" width="48" height="4" fill="#555555" />
    <rect x="1152" y="608" width="8" height="4" fill="#555555" />
    <rect x="1164" y="608" width="8" height="4" fill="#555555" />
    <rect x="1176" y="608" width="8" height="4" fill="#555555" />
    <rect x="1188" y="608" width="8" height="4" fill="#555555" />
    
    <rect x="1132" y="632" width="80" height="72" fill="#bbbbbb" />
    <rect x="1140" y="640" width="64" height="56" fill="#999999" />
    
    <rect x="1152" y="648" width="40" height="24" fill="#333333" />
    <rect x="1156" y="652" width="8" height="8" fill="#ff0000" />
    <rect x="1168" y="652" width="8" height="8" fill="#00ff00" />
    <rect x="1180" y="652" width="8" height="8" fill="#0000ff" />
    
    <rect x="1076" y="628" width="56" height="16" fill="#aaaaaa" />
    <rect x="1212" y="616" width="56" height="16" fill="#aaaaaa" />
    <rect x="1060" y="620" width="20" height="20" fill="#888888" />
    <rect x="1268" y="608" width="20" height="20" fill="#888888" />
    
    <rect x="1140" y="704" width="24" height="44" fill="#888888" />
    <rect x="1180" y="704" width="24" height="44" fill="#888888" />
    <rect x="1132" y="740" width="32" height="16" fill="#666666" />
    <rect x="1180" y="740" width="32" height="16" fill="#666666" />
  </g>

  
  <g filter="url(#glow)">
    <rect x="1380" y="572" width="72" height="72" fill="#eeeeee" />
    <rect x="1388" y="580" width="56" height="40" fill="#cccccc" />
    
    <rect x="1392" y="588" width="48" height="24" fill="#ffcc00" opacity="0.9" />
    
    <rect x="1364" y="644" width="104" height="76" fill="#eeeeee" />
    
    <rect x="1380" y="656" width="32" height="20" fill="#0000aa" />
    <rect x="1384" y="660" width="24" height="12" fill="#cc0000" />
    
    <rect x="1300" y="616" width="64" height="20" fill="#eeeeee" />
    <rect x="1468" y="600" width="64" height="20" fill="#eeeeee" />
    <rect x="1284" y="608" width="20" height="20" fill="#cccccc" />
    <rect x="1532" y="592" width="20" height="20" fill="#cccccc" />
    
    <rect x="1372" y="720" width="28" height="48" fill="#cccccc" />
    <rect x="1416" y="720" width="28" height="48" fill="#cccccc" />
    <rect x="1360" y="760" width="40" height="16" fill="#aaaaaa" />
    <rect x="1416" y="760" width="40" height="16" fill="#aaaaaa" />
  </g>

  
  <g opacity="0.7">
    
    <rect x="600" y="460" width="16" height="80" fill="#ff00ff" />
    <rect x="624" y="440" width="16" height="100" fill="#cc00ff" />
    <rect x="648" y="420" width="16" height="120" fill="#ff00ff" />
    <rect x="672" y="400" width="16" height="140" fill="#ff44ff" />
    <rect x="696" y="380" width="16" height="160" fill="#ff00ff" />
    <rect x="720" y="360" width="16" height="180" fill="#cc00ff" />
    <rect x="744" y="380" width="16" height="160" fill="#ff00ff" />
    <rect x="768" y="400" width="16" height="140" fill="#ff44ff" />
    <rect x="792" y="420" width="16" height="120" fill="#ff00ff" />
    <rect x="816" y="440" width="16" height="100" fill="#cc00ff" />
    <rect x="840" y="460" width="16" height="80" fill="#ff00ff" />
  </g>

  
  <g>
    <rect x="180" y="320" width="280" height="180" fill="#000033" />
    <rect x="184" y="324" width="272" height="172" fill="#000066" />
    <rect x="180" y="320" width="280" height="8" fill="#ff4400" />
    <rect x="180" y="488" width="280" height="8" fill="#ff4400" />
    <rect x="180" y="320" width="8" height="180" fill="#ff4400" />
    <rect x="452" y="320" width="8" height="180" fill="#ff4400" />
    
    <text x="320" y="370" font-family="monospace" font-size="14" fill="#ffff00" text-anchor="middle" font-weight="bold">#1</text>
    <text x="320" y="395" font-family="monospace" font-size="11" fill="#ffffff" text-anchor="middle">BILLBOARD</text>
    <text x="320" y="413" font-family="monospace" font-size="11" fill="#ffffff" text-anchor="middle">HOT 100</text>
    
    <rect x="210" y="450" width="16" height="20" fill="#ff4400" />
    <rect x="234" y="430" width="16" height="40" fill="#ff6600" />
    <rect x="258" y="410" width="16" height="60" fill="#ff8800" />
    <rect x="282" y="390" width="16" height="80" fill="#ffaa00" />
    <rect x="306" y="370" width="16" height="100" fill="#ffcc00" />
    <rect x="330" y="380" width="16" height="90" fill="#ffaa00" />
    <rect x="354" y="420" width="16" height="50" fill="#ff8800" />
    <rect x="378" y="440" width="16" height="30" fill="#ff6600" />
    <rect x="402" y="455" width="16" height="15" fill="#ff4400" />
    
    <text x="320" y="480" font-family="monospace" font-size="10" fill="#00ffff" text-anchor="middle">5 WEEKS AT #1</text>
  </g>

  
  <g>
    <rect x="1080" y="300" width="340" height="200" fill="#110000" />
    <rect x="1084" y="304" width="332" height="192" fill="#220000" />
    <rect x="1080" y="300" width="340" height="8" fill="#ff0000" />
    <rect x="1080" y="492" width="340" height="8" fill="#ff0000" />
    <rect x="1080" y="300" width="8" height="200" fill="#ff0000" />
    <rect x="1412" y="300" width="8" height="200" fill="#ff0000" />
    
    <rect x="1100" y="316" width="48" height="32" fill="#ff0000" />
    <rect x="1108" y="324" width="8" height="16" fill="#ffffff" />
    <rect x="1116" y="320" width="8" height="24" fill="#ffffff" />
    <rect x="1124" y="316" width="8" height="32" fill="#ffffff" />
    <text x="1165" y="337" font-family="monospace" font-size="12" fill="#ff4444">YOUTUBE</text>
    <text x="1250" y="370" font-family="monospace" font-size="13" fill="#ffff00" text-anchor="middle">40,000</text>
    <text x="1250" y="390" font-family="monospace" font-size="10" fill="#aaaaaa" text-anchor="middle">VIDEOS/DAY</text>
    <text x="1250" y="420" font-family="monospace" font-size="13" fill="#00ffff" text-anchor="middle">175 MILLION</text>
    <text x="1250" y="440" font-family="monospace" font-size="10" fill="#aaaaaa" text-anchor="middle">TOTAL VIEWS</text>
    <text x="1250" y="465" font-family="monospace" font-size="10" fill="#ff8800" text-anchor="middle">FEB 2013</text>
    <text x="1250" y="482" font-family="monospace" font-size="10" fill="#ff8800" text-anchor="middle">PEAK VIRAL SURGE</text>
  </g>

  
  <g filter="url(#glow)">
    <rect x="650" y="290" width="236" height="60" fill="#000000" opacity="0.8" />
    <rect x="650" y="290" width="236" height="60" fill="none" stroke="#ffff00" stroke-width="4" />
    <text x="768" y="315" font-family="monospace" font-size="13" fill="#ffff00" text-anchor="middle" font-weight="bold">⚡ BASS DROP</text>
    <text x="768" y="338" font-family="monospace" font-size="18" fill="#ff00ff" text-anchor="middle" font-weight="bold">0:15</text>
  </g>

  
  <g fill="#ffff00" opacity="0.8">
    <rect x="504" y="540" width="12" height="12" />
    <rect x="520" y="524" width="8" height="8" />
    <rect x="492" y="528" width="8" height="8" />
    <rect x="508" y="512" width="6" height="6" />
    <rect x="524" y="548" width="6" height="6" />
  </g>
  <g fill="#ff4400" opacity="0.8">
    <rect x="1000" y="548" width="12" height="12" />
    <rect x="1016" y="532" width="8" height="8" />
    <rect x="988" y="536" width="8" height="8" />
    <rect x="1004" y="520" width="6" height="6" />
    <rect x="1020" y="556" width="6" height="6" />
  </g>
  <g fill="#00ffff" opacity="0.8">
    <rect x="720" y="820" width="12" height="12" />
    <rect x="736" y="804" width="8" height="8" />
    <rect x="708" y="808" width="8" height="8" />
  </g>

  
  <g filter="url(#glow)">
    
    <rect x="100" y="80" width="1336" height="200" fill="#000000" opacity="0.7" />
    <rect x="100" y="80" width="1336" height="8" fill="#ff00ff" />
    <rect x="100" y="272" width="1336" height="8" fill="#ff00ff" />
    <rect x="100" y="80" width="8" height="200" fill="#ff00ff" />
    <rect x="1428" y="80" width="8" height="200" fill="#ff00ff" />

    
    <text x="768" y="165" font-family="'Courier New', Courier, monospace" font-size="72" font-weight="bold" fill="#ffffff" text-anchor="middle" letter-spacing="4" paint-order="stroke" stroke="#ff00ff" stroke-width="3">HARLEM SHAKE</text>
    <text x="768" y="248" font-family="'Courier New', Courier, monospace" font-size="40" font-weight="bold" fill="#00ffff" text-anchor="middle" letter-spacing="8" paint-order="stroke" stroke="#0033aa" stroke-width="2">VIRAL PHENOMENON</text>
  </g>

  
  <g fill="#ff00ff">
    <rect x="0" y="0" width="48" height="8" />
    <rect x="0" y="0" width="8" height="48" />
    <rect x="1488" y="0" width="48" height="8" />
    <rect x="1528" y="0" width="8" height="48" />
    <rect x="0" y="1016" width="48" height="8" />
    <rect x="0" y="976" width="8" height="48" />
    <rect x="1488" y="1016" width="48" height="8" />
    <rect x="1528" y="976" width="8" height="48" />
  </g>

  
  <g>
    <rect x="580" y="860" width="376" height="56" fill="#000000" opacity="0.8" />
    <rect x="584" y="864" width="368" height="48" fill="#110022" opacity="0.9" />
    <text x="768" y="882" font-family="monospace" font-size="11" fill="#aaaaaa" text-anchor="middle">PRODUCED BY</text>
    <text x="768" y="902" font-family="monospace" font-size="16" fill="#ffcc00" text-anchor="middle" font-weight="bold">BAAUER</text>
  </g>

  
  <rect width="1536" height="1024" fill="url(#scanlines)" opacity="0.4" />

  
  <radialGradient id="vignette" cx="50%" cy="50%" r="70%">
    <stop offset="60%" stop-color="transparent" />
    <stop offset="100%" stop-color="rgba(0,0,0,0.6)" />
  </radialGradient>
  <rect width="1536" height="1024" fill="url(#vignette)" />
</svg>