<svg xmlns="http://www.w3.org/2000/svg" viewBox="0 0 1536 1024" role="img" width="1536" height="1024">
  <title>Index of Articles — 2013 Knowledge Base</title>
  <defs>
    <radialGradient id="crt" cx="50%" cy="50%" r="70%">
      <stop offset="0%" stop-color="#1a0a2e" />
      <stop offset="100%" stop-color="#0a0010" />
    </radialGradient>
    <filter id="glow">
      <feGaussianBlur stdDeviation="3" result="blur" />
      <feMerge><feMergeNode in="blur" /><feMergeNode in="SourceGraphic" /></feMerge>
    </filter>
    <filter id="strongglow">
      <feGaussianBlur stdDeviation="6" result="blur" />
      <feMerge><feMergeNode in="blur" /><feMergeNode in="SourceGraphic" /></feMerge>
    </filter>
  </defs>

  
  <rect width="1536" height="1024" fill="url(#crt)" />

  
  <rect width="1536" height="1024" fill="none" stroke="#ffffff" stroke-width="0.5" opacity="0.03" />
  
  <g opacity="0.06">
    <rect y="0" width="1536" height="2" fill="#8888ff" />
    <rect y="4" width="1536" height="2" fill="#8888ff" />
    <rect y="8" width="1536" height="2" fill="#8888ff" />
    <rect y="12" width="1536" height="2" fill="#8888ff" />
    <rect y="16" width="1536" height="2" fill="#8888ff" />
    <rect y="20" width="1536" height="2" fill="#8888ff" />
    <rect y="24" width="1536" height="2" fill="#8888ff" />
    <rect y="28" width="1536" height="2" fill="#8888ff" />
    <rect y="32" width="1536" height="2" fill="#8888ff" />
    <rect y="36" width="1536" height="2" fill="#8888ff" />
    <rect y="40" width="1536" height="2" fill="#8888ff" />
    <rect y="44" width="1536" height="2" fill="#8888ff" />
    <rect y="48" width="1536" height="2" fill="#8888ff" />
    <rect y="52" width="1536" height="2" fill="#8888ff" />
    <rect y="56" width="1536" height="2" fill="#8888ff" />
    <rect y="60" width="1536" height="2" fill="#8888ff" />
    <rect y="64" width="1536" height="2" fill="#8888ff" />
    <rect y="68" width="1536" height="2" fill="#8888ff" />
    <rect y="72" width="1536" height="2" fill="#8888ff" />
    <rect y="76" width="1536" height="2" fill="#8888ff" />
    <rect y="80" width="1536" height="2" fill="#8888ff" />
    <rect y="84" width="1536" height="2" fill="#8888ff" />
    <rect y="88" width="1536" height="2" fill="#8888ff" />
    <rect y="92" width="1536" height="2" fill="#8888ff" />
    <rect y="96" width="1536" height="2" fill="#8888ff" />
    <rect y="100" width="1536" height="2" fill="#8888ff" />
    <rect y="104" width="1536" height="2" fill="#8888ff" />
    <rect y="108" width="1536" height="2" fill="#8888ff" />
    <rect y="112" width="1536" height="2" fill="#8888ff" />
    <rect y="116" width="1536" height="2" fill="#8888ff" />
    <rect y="120" width="1536" height="2" fill="#8888ff" />
    <rect y="124" width="1536" height="2" fill="#8888ff" />
    <rect y="128" width="1536" height="2" fill="#8888ff" />
    <rect y="132" width="1536" height="2" fill="#8888ff" />
    <rect y="136" width="1536" height="2" fill="#8888ff" />
    <rect y="140" width="1536" height="2" fill="#8888ff" />
    <rect y="144" width="1536" height="2" fill="#8888ff" />
    <rect y="148" width="1536" height="2" fill="#8888ff" />
    <rect y="152" width="1536" height="2" fill="#8888ff" />
    <rect y="156" width="1536" height="2" fill="#8888ff" />
    <rect y="160" width="1536" height="2" fill="#8888ff" />
    <rect y="164" width="1536" height="2" fill="#8888ff" />
    <rect y="168" width="1536" height="2" fill="#8888ff" />
    <rect y="172" width="1536" height="2" fill="#8888ff" />
    <rect y="176" width="1536" height="2" fill="#8888ff" />
    <rect y="180" width="1536" height="2" fill="#8888ff" />
    <rect y="184" width="1536" height="2" fill="#8888ff" />
    <rect y="188" width="1536" height="2" fill="#8888ff" />
    <rect y="192" width="1536" height="2" fill="#8888ff" />
    <rect y="196" width="1536" height="2" fill="#8888ff" />
    <rect y="200" width="1536" height="2" fill="#8888ff" />
    <rect y="204" width="1536" height="2" fill="#8888ff" />
    <rect y="208" width="1536" height="2" fill="#8888ff" />
    <rect y="212" width="1536" height="2" fill="#8888ff" />
    <rect y="216" width="1536" height="2" fill="#8888ff" />
    <rect y="220" width="1536" height="2" fill="#8888ff" />
    <rect y="224" width="1536" height="2" fill="#8888ff" />
    <rect y="228" width="1536" height="2" fill="#8888ff" />
    <rect y="232" width="1536" height="2" fill="#8888ff" />
    <rect y="236" width="1536" height="2" fill="#8888ff" />
    <rect y="240" width="1536" height="2" fill="#8888ff" />
    <rect y="244" width="1536" height="2" fill="#8888ff" />
    <rect y="248" width="1536" height="2" fill="#8888ff" />
    <rect y="252" width="1536" height="2" fill="#8888ff" />
    <rect y="256" width="1536" height="2" fill="#8888ff" />
    <rect y="260" width="1536" height="2" fill="#8888ff" />
    <rect y="264" width="1536" height="2" fill="#8888ff" />
    <rect y="268" width="1536" height="2" fill="#8888ff" />
    <rect y="272" width="1536" height="2" fill="#8888ff" />
    <rect y="276" width="1536" height="2" fill="#8888ff" />
    <rect y="280" width="1536" height="2" fill="#8888ff" />
    <rect y="284" width="1536" height="2" fill="#8888ff" />
    <rect y="288" width="1536" height="2" fill="#8888ff" />
    <rect y="292" width="1536" height="2" fill="#8888ff" />
    <rect y="296" width="1536" height="2" fill="#8888ff" />
    <rect y="300" width="1536" height="2" fill="#8888ff" />
    <rect y="304" width="1536" height="2" fill="#8888ff" />
    <rect y="308" width="1536" height="2" fill="#8888ff" />
    <rect y="312" width="1536" height="2" fill="#8888ff" />
    <rect y="316" width="1536" height="2" fill="#8888ff" />
    <rect y="320" width="1536" height="2" fill="#8888ff" />
    <rect y="324" width="1536" height="2" fill="#8888ff" />
    <rect y="328" width="1536" height="2" fill="#8888ff" />
    <rect y="332" width="1536" height="2" fill="#8888ff" />
    <rect y="336" width="1536" height="2" fill="#8888ff" />
    <rect y="340" width="1536" height="2" fill="#8888ff" />
    <rect y="344" width="1536" height="2" fill="#8888ff" />
    <rect y="348" width="1536" height="2" fill="#8888ff" />
    <rect y="352" width="1536" height="2" fill="#8888ff" />
    <rect y="356" width="1536" height="2" fill="#8888ff" />
    <rect y="360" width="1536" height="2" fill="#8888ff" />
    <rect y="364" width="1536" height="2" fill="#8888ff" />
    <rect y="368" width="1536" height="2" fill="#8888ff" />
    <rect y="372" width="1536" height="2" fill="#8888ff" />
    <rect y="376" width="1536" height="2" fill="#8888ff" />
    <rect y="380" width="1536" height="2" fill="#8888ff" />
    <rect y="384" width="1536" height="2" fill="#8888ff" />
    <rect y="388" width="1536" height="2" fill="#8888ff" />
    <rect y="392" width="1536" height="2" fill="#8888ff" />
    <rect y="396" width="1536" height="2" fill="#8888ff" />
    <rect y="400" width="1536" height="2" fill="#8888ff" />
    <rect y="404" width="1536" height="2" fill="#8888ff" />
    <rect y="408" width="1536" height="2" fill="#8888ff" />
    <rect y="412" width="1536" height="2" fill="#8888ff" />
    <rect y="416" width="1536" height="2" fill="#8888ff" />
    <rect y="420" width="1536" height="2" fill="#8888ff" />
    <rect y="424" width="1536" height="2" fill="#8888ff" />
    <rect y="428" width="1536" height="2" fill="#8888ff" />
    <rect y="432" width="1536" height="2" fill="#8888ff" />
    <rect y="436" width="1536" height="2" fill="#8888ff" />
    <rect y="440" width="1536" height="2" fill="#8888ff" />
    <rect y="444" width="1536" height="2" fill="#8888ff" />
    <rect y="448" width="1536" height="2" fill="#8888ff" />
    <rect y="452" width="1536" height="2" fill="#8888ff" />
    <rect y="456" width="1536" height="2" fill="#8888ff" />
    <rect y="460" width="1536" height="2" fill="#8888ff" />
    <rect y="464" width="1536" height="2" fill="#8888ff" />
    <rect y="468" width="1536" height="2" fill="#8888ff" />
    <rect y="472" width="1536" height="2" fill="#8888ff" />
    <rect y="476" width="1536" height="2" fill="#8888ff" />
    <rect y="480" width="1536" height="2" fill="#8888ff" />
    <rect y="484" width="1536" height="2" fill="#8888ff" />
    <rect y="488" width="1536" height="2" fill="#8888ff" />
    <rect y="492" width="1536" height="2" fill="#8888ff" />
    <rect y="496" width="1536" height="2" fill="#8888ff" />
    <rect y="500" width="1536" height="2" fill="#8888ff" />
    <rect y="504" width="1536" height="2" fill="#8888ff" />
    <rect y="508" width="1536" height="2" fill="#8888ff" />
    <rect y="512" width="1536" height="2" fill="#8888ff" />
    <rect y="516" width="1536" height="2" fill="#8888ff" />
    <rect y="520" width="1536" height="2" fill="#8888ff" />
    <rect y="524" width="1536" height="2" fill="#8888ff" />
    <rect y="528" width="1536" height="2" fill="#8888ff" />
    <rect y="532" width="1536" height="2" fill="#8888ff" />
    <rect y="536" width="1536" height="2" fill="#8888ff" />
    <rect y="540" width="1536" height="2" fill="#8888ff" />
    <rect y="544" width="1536" height="2" fill="#8888ff" />
    <rect y="548" width="1536" height="2" fill="#8888ff" />
    <rect y="552" width="1536" height="2" fill="#8888ff" />
    <rect y="556" width="1536" height="2" fill="#8888ff" />
    <rect y="560" width="1536" height="2" fill="#8888ff" />
    <rect y="564" width="1536" height="2" fill="#8888ff" />
    <rect y="568" width="1536" height="2" fill="#8888ff" />
    <rect y="572" width="1536" height="2" fill="#8888ff" />
    <rect y="576" width="1536" height="2" fill="#8888ff" />
    <rect y="580" width="1536" height="2" fill="#8888ff" />
    <rect y="584" width="1536" height="2" fill="#8888ff" />
    <rect y="588" width="1536" height="2" fill="#8888ff" />
    <rect y="592" width="1536" height="2" fill="#8888ff" />
    <rect y="596" width="1536" height="2" fill="#8888ff" />
    <rect y="600" width="1536" height="2" fill="#8888ff" />
    <rect y="604" width="1536" height="2" fill="#8888ff" />
    <rect y="608" width="1536" height="2" fill="#8888ff" />
    <rect y="612" width="1536" height="2" fill="#8888ff" />
    <rect y="616" width="1536" height="2" fill="#8888ff" />
    <rect y="620" width="1536" height="2" fill="#8888ff" />
    <rect y="624" width="1536" height="2" fill="#8888ff" />
    <rect y="628" width="1536" height="2" fill="#8888ff" />
    <rect y="632" width="1536" height="2" fill="#8888ff" />
    <rect y="636" width="1536" height="2" fill="#8888ff" />
    <rect y="640" width="1536" height="2" fill="#8888ff" />
    <rect y="644" width="1536" height="2" fill="#8888ff" />
    <rect y="648" width="1536" height="2" fill="#8888ff" />
    <rect y="652" width="1536" height="2" fill="#8888ff" />
    <rect y="656" width="1536" height="2" fill="#8888ff" />
    <rect y="660" width="1536" height="2" fill="#8888ff" />
    <rect y="664" width="1536" height="2" fill="#8888ff" />
    <rect y="668" width="1536" height="2" fill="#8888ff" />
    <rect y="672" width="1536" height="2" fill="#8888ff" />
    <rect y="676" width="1536" height="2" fill="#8888ff" />
    <rect y="680" width="1536" height="2" fill="#8888ff" />
    <rect y="684" width="1536" height="2" fill="#8888ff" />
    <rect y="688" width="1536" height="2" fill="#8888ff" />
    <rect y="692" width="1536" height="2" fill="#8888ff" />
    <rect y="696" width="1536" height="2" fill="#8888ff" />
    <rect y="700" width="1536" height="2" fill="#8888ff" />
    <rect y="704" width="1536" height="2" fill="#8888ff" />
    <rect y="708" width="1536" height="2" fill="#8888ff" />
    <rect y="712" width="1536" height="2" fill="#8888ff" />
    <rect y="716" width="1536" height="2" fill="#8888ff" />
    <rect y="720" width="1536" height="2" fill="#8888ff" />
    <rect y="724" width="1536" height="2" fill="#8888ff" />
    <rect y="728" width="1536" height="2" fill="#8888ff" />
    <rect y="732" width="1536" height="2" fill="#8888ff" />
    <rect y="736" width="1536" height="2" fill="#8888ff" />
    <rect y="740" width="1536" height="2" fill="#8888ff" />
    <rect y="744" width="1536" height="2" fill="#8888ff" />
    <rect y="748" width="1536" height="2" fill="#8888ff" />
    <rect y="752" width="1536" height="2" fill="#8888ff" />
    <rect y="756" width="1536" height="2" fill="#8888ff" />
    <rect y="760" width="1536" height="2" fill="#8888ff" />
    <rect y="764" width="1536" height="2" fill="#8888ff" />
    <rect y="768" width="1536" height="2" fill="#8888ff" />
    <rect y="772" width="1536" height="2" fill="#8888ff" />
    <rect y="776" width="1536" height="2" fill="#8888ff" />
    <rect y="780" width="1536" height="2" fill="#8888ff" />
    <rect y="784" width="1536" height="2" fill="#8888ff" />
    <rect y="788" width="1536" height="2" fill="#8888ff" />
    <rect y="792" width="1536" height="2" fill="#8888ff" />
    <rect y="796" width="1536" height="2" fill="#8888ff" />
    <rect y="800" width="1536" height="2" fill="#8888ff" />
    <rect y="804" width="1536" height="2" fill="#8888ff" />
    <rect y="808" width="1536" height="2" fill="#8888ff" />
    <rect y="812" width="1536" height="2" fill="#8888ff" />
    <rect y="816" width="1536" height="2" fill="#8888ff" />
    <rect y="820" width="1536" height="2" fill="#8888ff" />
    <rect y="824" width="1536" height="2" fill="#8888ff" />
    <rect y="828" width="1536" height="2" fill="#8888ff" />
    <rect y="832" width="1536" height="2" fill="#8888ff" />
    <rect y="836" width="1536" height="2" fill="#8888ff" />
    <rect y="840" width="1536" height="2" fill="#8888ff" />
    <rect y="844" width="1536" height="2" fill="#8888ff" />
    <rect y="848" width="1536" height="2" fill="#8888ff" />
    <rect y="852" width="1536" height="2" fill="#8888ff" />
    <rect y="856" width="1536" height="2" fill="#8888ff" />
    <rect y="860" width="1536" height="2" fill="#8888ff" />
    <rect y="864" width="1536" height="2" fill="#8888ff" />
    <rect y="868" width="1536" height="2" fill="#8888ff" />
    <rect y="872" width="1536" height="2" fill="#8888ff" />
    <rect y="876" width="1536" height="2" fill="#8888ff" />
    <rect y="880" width="1536" height="2" fill="#8888ff" />
    <rect y="884" width="1536" height="2" fill="#8888ff" />
    <rect y="888" width="1536" height="2" fill="#8888ff" />
    <rect y="892" width="1536" height="2" fill="#8888ff" />
    <rect y="896" width="1536" height="2" fill="#8888ff" />
    <rect y="900" width="1536" height="2" fill="#8888ff" />
    <rect y="904" width="1536" height="2" fill="#8888ff" />
    <rect y="908" width="1536" height="2" fill="#8888ff" />
    <rect y="912" width="1536" height="2" fill="#8888ff" />
    <rect y="916" width="1536" height="2" fill="#8888ff" />
    <rect y="920" width="1536" height="2" fill="#8888ff" />
    <rect y="924" width="1536" height="2" fill="#8888ff" />
    <rect y="928" width="1536" height="2" fill="#8888ff" />
    <rect y="932" width="1536" height="2" fill="#8888ff" />
    <rect y="936" width="1536" height="2" fill="#8888ff" />
    <rect y="940" width="1536" height="2" fill="#8888ff" />
    <rect y="944" width="1536" height="2" fill="#8888ff" />
    <rect y="948" width="1536" height="2" fill="#8888ff" />
    <rect y="952" width="1536" height="2" fill="#8888ff" />
    <rect y="956" width="1536" height="2" fill="#8888ff" />
    <rect y="960" width="1536" height="2" fill="#8888ff" />
    <rect y="964" width="1536" height="2" fill="#8888ff" />
    <rect y="968" width="1536" height="2" fill="#8888ff" />
    <rect y="972" width="1536" height="2" fill="#8888ff" />
    <rect y="976" width="1536" height="2" fill="#8888ff" />
    <rect y="980" width="1536" height="2" fill="#8888ff" />
    <rect y="984" width="1536" height="2" fill="#8888ff" />
    <rect y="988" width="1536" height="2" fill="#8888ff" />
    <rect y="992" width="1536" height="2" fill="#8888ff" />
    <rect y="996" width="1536" height="2" fill="#8888ff" />
    <rect y="1000" width="1536" height="2" fill="#8888ff" />
    <rect y="1004" width="1536" height="2" fill="#8888ff" />
    <rect y="1008" width="1536" height="2" fill="#8888ff" />
    <rect y="1012" width="1536" height="2" fill="#8888ff" />
    <rect y="1016" width="1536" height="2" fill="#8888ff" />
    <rect y="1020" width="1536" height="2" fill="#8888ff" />
  </g>

  
  <g stroke="#2a1060" stroke-width="1" opacity="0.4">
    <line x1="0" y1="256" x2="1536" y2="256" />
    <line x1="0" y1="512" x2="1536" y2="512" />
    <line x1="0" y1="768" x2="1536" y2="768" />
    <line x1="384" y1="0" x2="384" y2="1024" />
    <line x1="768" y1="0" x2="768" y2="1024" />
    <line x1="1152" y1="0" x2="1152" y2="1024" />
  </g>

  
  
  <rect x="60" y="200" width="380" height="380" fill="#0d0028" rx="0" />
  <rect x="60" y="200" width="380" height="380" fill="none" stroke="#ff2266" stroke-width="4" />

  
  
  <ellipse cx="250" cy="390" rx="140" ry="80" fill="#1a0040" />
  
  <rect x="110" y="350" width="16" height="16" fill="#ff2266" />
  <rect x="126" y="334" width="16" height="16" fill="#ff2266" />
  <rect x="142" y="322" width="16" height="16" fill="#ff2266" />
  <rect x="158" y="314" width="16" height="16" fill="#ff2266" />
  <rect x="174" y="310" width="16" height="16" fill="#ff2266" />
  <rect x="190" y="308" width="16" height="16" fill="#ff2266" />
  <rect x="206" y="308" width="16" height="16" fill="#ff2266" />
  <rect x="222" y="308" width="16" height="16" fill="#ff2266" />
  <rect x="238" y="308" width="16" height="16" fill="#ff2266" />
  <rect x="254" y="308" width="16" height="16" fill="#ff2266" />
  <rect x="270" y="308" width="16" height="16" fill="#ff2266" />
  <rect x="286" y="308" width="16" height="16" fill="#ff2266" />
  <rect x="302" y="310" width="16" height="16" fill="#ff2266" />
  <rect x="318" y="314" width="16" height="16" fill="#ff2266" />
  <rect x="334" y="322" width="16" height="16" fill="#ff2266" />
  <rect x="350" y="334" width="16" height="16" fill="#ff2266" />
  <rect x="366" y="350" width="16" height="16" fill="#ff2266" />
  
  <rect x="110" y="414" width="16" height="16" fill="#ff2266" />
  <rect x="126" y="430" width="16" height="16" fill="#ff2266" />
  <rect x="142" y="442" width="16" height="16" fill="#ff2266" />
  <rect x="158" y="450" width="16" height="16" fill="#ff2266" />
  <rect x="174" y="454" width="16" height="16" fill="#ff2266" />
  <rect x="190" y="456" width="16" height="16" fill="#ff2266" />
  <rect x="206" y="456" width="16" height="16" fill="#ff2266" />
  <rect x="222" y="456" width="16" height="16" fill="#ff2266" />
  <rect x="238" y="456" width="16" height="16" fill="#ff2266" />
  <rect x="254" y="456" width="16" height="16" fill="#ff2266" />
  <rect x="270" y="456" width="16" height="16" fill="#ff2266" />
  <rect x="286" y="456" width="16" height="16" fill="#ff2266" />
  <rect x="302" y="454" width="16" height="16" fill="#ff2266" />
  <rect x="318" y="450" width="16" height="16" fill="#ff2266" />
  <rect x="334" y="442" width="16" height="16" fill="#ff2266" />
  <rect x="350" y="430" width="16" height="16" fill="#ff2266" />
  <rect x="366" y="414" width="16" height="16" fill="#ff2266" />

  
  <rect x="214" y="350" width="16" height="16" fill="#cc0044" />
  <rect x="230" y="342" width="16" height="16" fill="#cc0044" />
  <rect x="246" y="342" width="16" height="16" fill="#cc0044" />
  <rect x="262" y="350" width="16" height="16" fill="#cc0044" />
  <rect x="270" y="366" width="16" height="16" fill="#cc0044" />
  <rect x="262" y="382" width="16" height="16" fill="#cc0044" />
  <rect x="246" y="390" width="16" height="16" fill="#cc0044" />
  <rect x="230" y="390" width="16" height="16" fill="#cc0044" />
  <rect x="214" y="382" width="16" height="16" fill="#cc0044" />
  <rect x="206" y="366" width="16" height="16" fill="#cc0044" />
  
  <rect x="230" y="358" width="16" height="16" fill="#ff00aa" />
  <rect x="246" y="358" width="16" height="16" fill="#ff00aa" />
  <rect x="230" y="374" width="16" height="16" fill="#ff00aa" />
  <rect x="246" y="374" width="16" height="16" fill="#ff00aa" />
  
  <rect x="238" y="358" width="8" height="8" fill="#ffffff" opacity="0.8" />

  
  <g stroke="#ff2266" stroke-width="3" opacity="0.5" filter="url(#glow)">
    <line x1="110" y1="390" x2="60" y2="390" />
    <line x1="390" y1="390" x2="440" y2="390" />
    <line x1="250" y1="310" x2="250" y2="200" />
    <line x1="250" y1="470" x2="250" y2="580" />
    <line x1="140" y1="320" x2="90" y2="270" />
    <line x1="360" y1="320" x2="410" y2="270" />
  </g>

  
  <rect x="190" y="220" width="120" height="36" fill="#ff2266" />
  <text x="250" y="246" text-anchor="middle" font-family="monospace" font-size="22" font-weight="bold" fill="#ffffff" letter-spacing="4">NSA</text>

  
  <text x="250" y="568" text-anchor="middle" font-family="monospace" font-size="18" fill="#ff2266" filter="url(#glow)">SURVEILLANCE</text>

  
  <rect x="578" y="200" width="380" height="380" fill="#0a1a00" rx="0" />
  <rect x="578" y="200" width="380" height="380" fill="none" stroke="#00ff44" stroke-width="4" />

  
  
  <rect x="598" y="360" width="80" height="12" fill="#00cc33" />
  
  <rect x="860" y="360" width="80" height="12" fill="#00cc33" />
  
  <rect x="718" y="360" width="100" height="12" fill="#00cc33" />
  
  <rect x="618" y="300" width="100" height="72" fill="none" stroke="#00ff44" stroke-width="8" />
  <rect x="618" y="300" width="100" height="72" fill="#001a00" opacity="0.8" />
  
  <rect x="820" y="300" width="100" height="72" fill="none" stroke="#00ff44" stroke-width="8" />
  <rect x="820" y="300" width="100" height="72" fill="#001a00" opacity="0.8" />

  
  <rect x="828" y="308" width="84" height="56" fill="#001400" />
  
  <rect x="836" y="316" width="48" height="4" fill="#00ff44" opacity="0.9" />
  <rect x="836" y="326" width="36" height="4" fill="#00ff44" opacity="0.7" />
  <rect x="836" y="336" width="56" height="4" fill="#00ff44" opacity="0.9" />
  <rect x="836" y="346" width="28" height="4" fill="#00cc33" opacity="0.6" />
  
  <rect x="828" y="308" width="8" height="8" fill="#00ff44" />
  <rect x="904" y="308" width="8" height="8" fill="#00ff44" />
  <rect x="828" y="356" width="8" height="8" fill="#00ff44" />
  <rect x="904" y="356" width="8" height="8" fill="#00ff44" />

  
  <rect x="626" y="308" width="36" height="4" fill="#00aa22" opacity="0.5" />
  <rect x="626" y="320" width="56" height="4" fill="#00aa22" opacity="0.4" />
  <rect x="626" y="332" width="44" height="4" fill="#00aa22" opacity="0.5" />
  <rect x="626" y="344" width="52" height="4" fill="#00aa22" opacity="0.3" />

  
  <rect x="714" y="368" width="12" height="16" fill="#00cc33" />
  <rect x="710" y="380" width="8" height="8" fill="#00cc33" />
  <rect x="718" y="380" width="8" height="8" fill="#00cc33" />

  
  <rect x="680" y="240" width="20" height="20" fill="none" stroke="#00ff44" stroke-width="3" opacity="0.6" />
  <rect x="830" y="230" width="28" height="28" fill="none" stroke="#00ff44" stroke-width="3" opacity="0.5" />
  <rect x="850" y="240" width="12" height="12" fill="#00ff44" opacity="0.4" />
  
  <g stroke="#00ff44" stroke-width="1" opacity="0.3">
    <line x1="640" y1="440" x2="900" y2="440" />
    <line x1="640" y1="460" x2="900" y2="460" />
    <line x1="640" y1="480" x2="900" y2="480" />
    <line x1="660" y1="430" x2="660" y2="500" />
    <line x1="700" y1="430" x2="700" y2="500" />
    <line x1="740" y1="430" x2="740" y2="500" />
    <line x1="780" y1="430" x2="780" y2="500" />
    <line x1="820" y1="430" x2="820" y2="500" />
    <line x1="860" y1="430" x2="860" y2="500" />
  </g>

  
  <rect x="608" y="220" width="320" height="36" fill="#00ff44" />
  <text x="768" y="246" text-anchor="middle" font-family="monospace" font-size="18" font-weight="bold" fill="#001a00" letter-spacing="3">GOOGLE GLASS</text>

  <text x="768" y="568" text-anchor="middle" font-family="monospace" font-size="18" fill="#00ff44" filter="url(#glow)">EXPLORER PROGRAM</text>

  
  <rect x="1096" y="200" width="380" height="380" fill="#1a0e00" rx="0" />
  <rect x="1096" y="200" width="380" height="380" fill="none" stroke="#ffaa00" stroke-width="4" />

  
  
  <g filter="url(#glow)">
  
  <rect x="1196" y="244" width="24" height="24" fill="#ffaa00" />
  <rect x="1220" y="244" width="24" height="24" fill="#ffaa00" />
  <rect x="1244" y="244" width="24" height="24" fill="#ffaa00" />
  <rect x="1268" y="244" width="24" height="24" fill="#ffaa00" />
  <rect x="1292" y="244" width="24" height="24" fill="#ffaa00" />
  <rect x="1172" y="268" width="24" height="24" fill="#ffaa00" />
  <rect x="1316" y="268" width="24" height="24" fill="#ffaa00" />
  <rect x="1160" y="292" width="24" height="24" fill="#ffaa00" />
  <rect x="1328" y="292" width="24" height="24" fill="#ffaa00" />
  <rect x="1148" y="316" width="24" height="24" fill="#ffaa00" />
  <rect x="1340" y="316" width="24" height="24" fill="#ffaa00" />
  <rect x="1148" y="340" width="24" height="24" fill="#ffaa00" />
  <rect x="1340" y="340" width="24" height="24" fill="#ffaa00" />
  <rect x="1148" y="364" width="24" height="24" fill="#ffaa00" />
  <rect x="1340" y="364" width="24" height="24" fill="#ffaa00" />
  <rect x="1160" y="388" width="24" height="24" fill="#ffaa00" />
  <rect x="1328" y="388" width="24" height="24" fill="#ffaa00" />
  <rect x="1172" y="412" width="24" height="24" fill="#ffaa00" />
  <rect x="1316" y="412" width="24" height="24" fill="#ffaa00" />
  <rect x="1196" y="436" width="24" height="24" fill="#ffaa00" />
  <rect x="1220" y="436" width="24" height="24" fill="#ffaa00" />
  <rect x="1244" y="436" width="24" height="24" fill="#ffaa00" />
  <rect x="1268" y="436" width="24" height="24" fill="#ffaa00" />
  <rect x="1292" y="436" width="24" height="24" fill="#ffaa00" />

  
  <rect x="1172" y="268" width="168" height="168" fill="#cc8800" />
  <rect x="1160" y="292" width="192" height="120" fill="#cc8800" />

  
  
  <rect x="1248" y="284" width="16" height="96" fill="#ffdd44" />
  
  <rect x="1248" y="284" width="40" height="16" fill="#ffdd44" />
  <rect x="1288" y="284" width="16" height="8" fill="#ffdd44" />
  <rect x="1296" y="292" width="8" height="16" fill="#ffdd44" />
  <rect x="1288" y="308" width="16" height="8" fill="#ffdd44" />
  
  <rect x="1248" y="332" width="44" height="16" fill="#ffdd44" />
  <rect x="1292" y="332" width="16" height="8" fill="#ffdd44" />
  <rect x="1300" y="340" width="8" height="16" fill="#ffdd44" />
  <rect x="1292" y="356" width="16" height="8" fill="#ffdd44" />
  
  <rect x="1248" y="364" width="40" height="16" fill="#ffdd44" />
  
  <rect x="1236" y="284" width="12" height="8" fill="#ffdd44" />
  <rect x="1236" y="372" width="12" height="8" fill="#ffdd44" />
  
  <rect x="1240" y="268" width="8" height="20" fill="#ffdd44" />
  <rect x="1256" y="268" width="8" height="20" fill="#ffdd44" />
  <rect x="1240" y="376" width="8" height="20" fill="#ffdd44" />
  <rect x="1256" y="376" width="8" height="20" fill="#ffdd44" />
  </g>

  
  <rect x="1126" y="220" width="320" height="36" fill="#ffaa00" />
  <text x="1286" y="246" text-anchor="middle" font-family="monospace" font-size="18" font-weight="bold" fill="#1a0e00" letter-spacing="2">BITCOIN $1,000</text>

  
  <rect x="1110" y="490" width="20" height="40" fill="#ffaa00" opacity="0.5" />
  <rect x="1138" y="480" width="20" height="50" fill="#ffaa00" opacity="0.6" />
  <rect x="1166" y="468" width="20" height="62" fill="#ffaa00" opacity="0.7" />
  <rect x="1194" y="452" width="20" height="78" fill="#ffaa00" opacity="0.8" />
  <rect x="1222" y="430" width="20" height="100" fill="#ffaa00" opacity="0.85" />
  <rect x="1250" y="400" width="20" height="130" fill="#ffaa00" opacity="0.9" />
  <rect x="1278" y="360" width="20" height="170" fill="#ffaa00" opacity="0.95" />
  <rect x="1306" y="300" width="20" height="230" fill="#ffcc00" />
  <rect x="1334" y="230" width="20" height="300" fill="#ffee00" filter="url(#glow)" />
  <rect x="1362" y="170" width="20" height="360" fill="#ffffff" opacity="0.7" filter="url(#strongglow)" />
  
  <rect x="1110" y="530" width="280" height="4" fill="#ffaa00" />

  <text x="1286" y="568" text-anchor="middle" font-family="monospace" font-size="18" fill="#ffaa00" filter="url(#glow)">PRICE SURGE 2013</text>

  
  <rect x="0" y="0" width="1536" height="80" fill="#120030" />
  <rect x="0" y="76" width="1536" height="4" fill="#ff2266" />
  <rect x="0" y="80" width="1536" height="2" fill="#00ff44" opacity="0.5" />

  
  <rect x="20" y="10" width="16" height="16" fill="#ff2266" />
  <rect x="40" y="10" width="16" height="16" fill="#ffaa00" />
  <rect x="60" y="10" width="16" height="16" fill="#00ff44" />
  <rect x="20" y="30" width="16" height="16" fill="#00ff44" />
  <rect x="40" y="30" width="16" height="16" fill="#ff2266" />
  <rect x="60" y="30" width="16" height="16" fill="#ffaa00" />
  <rect x="20" y="50" width="16" height="16" fill="#ffaa00" />
  <rect x="40" y="50" width="16" height="16" fill="#00ff44" />
  <rect x="60" y="50" width="16" height="16" fill="#ff2266" />

  <rect x="1460" y="10" width="16" height="16" fill="#ff2266" />
  <rect x="1480" y="10" width="16" height="16" fill="#ffaa00" />
  <rect x="1500" y="10" width="16" height="16" fill="#00ff44" />
  <rect x="1460" y="30" width="16" height="16" fill="#00ff44" />
  <rect x="1480" y="30" width="16" height="16" fill="#ff2266" />
  <rect x="1500" y="30" width="16" height="16" fill="#ffaa00" />
  <rect x="1460" y="50" width="16" height="16" fill="#ffaa00" />
  <rect x="1480" y="50" width="16" height="16" fill="#00ff44" />
  <rect x="1500" y="50" width="16" height="16" fill="#ff2266" />

  
  <text x="768" y="54" text-anchor="middle" font-family="monospace" font-size="42" font-weight="bold" fill="#ffffff" filter="url(#strongglow)" letter-spacing="6">INDEX OF ARTICLES</text>

  
  <rect x="0" y="600" width="1536" height="424" fill="#100022" />
  <rect x="0" y="600" width="1536" height="4" fill="#00ff44" />
  <rect x="0" y="602" width="1536" height="2" fill="#ff2266" opacity="0.5" />

  
  
  <g fill="#aa00ff" filter="url(#strongglow)">
    
    <rect x="100" y="650" width="20" height="20" fill="#cc44ff" />
    <rect x="120" y="650" width="20" height="20" fill="#cc44ff" />
    <rect x="140" y="650" width="20" height="20" fill="#cc44ff" />
    <rect x="160" y="650" width="20" height="20" fill="#cc44ff" />
    <rect x="160" y="670" width="20" height="20" fill="#cc44ff" />
    <rect x="160" y="690" width="20" height="20" fill="#cc44ff" />
    <rect x="140" y="710" width="20" height="20" fill="#cc44ff" />
    <rect x="120" y="730" width="20" height="20" fill="#cc44ff" />
    <rect x="100" y="750" width="20" height="20" fill="#cc44ff" />
    <rect x="100" y="770" width="20" height="20" fill="#cc44ff" />
    <rect x="120" y="770" width="20" height="20" fill="#cc44ff" />
    <rect x="140" y="770" width="20" height="20" fill="#cc44ff" />
    <rect x="160" y="770" width="20" height="20" fill="#cc44ff" />
    <rect x="180" y="770" width="20" height="20" fill="#cc44ff" />
    
    <rect x="220" y="650" width="20" height="20" fill="#cc44ff" />
    <rect x="240" y="650" width="20" height="20" fill="#cc44ff" />
    <rect x="260" y="650" width="20" height="20" fill="#cc44ff" />
    <rect x="280" y="650" width="20" height="20" fill="#cc44ff" />
    <rect x="200" y="670" width="20" height="20" fill="#cc44ff" />
    <rect x="300" y="670" width="20" height="20" fill="#cc44ff" />
    <rect x="200" y="690" width="20" height="20" fill="#cc44ff" />
    <rect x="300" y="690" width="20" height="20" fill="#cc44ff" />
    <rect x="200" y="710" width="20" height="20" fill="#cc44ff" />
    <rect x="300" y="710" width="20" height="20" fill="#cc44ff" />
    <rect x="200" y="730" width="20" height="20" fill="#cc44ff" />
    <rect x="300" y="730" width="20" height="20" fill="#cc44ff" />
    <rect x="200" y="750" width="20" height="20" fill="#cc44ff" />
    <rect x="300" y="750" width="20" height="20" fill="#cc44ff" />
    <rect x="220" y="770" width="20" height="20" fill="#cc44ff" />
    <rect x="240" y="770" width="20" height="20" fill="#cc44ff" />
    <rect x="260" y="770" width="20" height="20" fill="#cc44ff" />
    <rect x="280" y="770" width="20" height="20" fill="#cc44ff" />
    
    <rect x="360" y="650" width="20" height="20" fill="#cc44ff" />
    <rect x="340" y="670" width="20" height="20" fill="#cc44ff" />
    <rect x="360" y="670" width="20" height="20" fill="#cc44ff" />
    <rect x="360" y="690" width="20" height="20" fill="#cc44ff" />
    <rect x="360" y="710" width="20" height="20" fill="#cc44ff" />
    <rect x="360" y="730" width="20" height="20" fill="#cc44ff" />
    <rect x="360" y="750" width="20" height="20" fill="#cc44ff" />
    <rect x="340" y="770" width="20" height="20" fill="#cc44ff" />
    <rect x="360" y="770" width="20" height="20" fill="#cc44ff" />
    <rect x="380" y="770" width="20" height="20" fill="#cc44ff" />
    
    <rect x="420" y="650" width="20" height="20" fill="#cc44ff" />
    <rect x="440" y="650" width="20" height="20" fill="#cc44ff" />
    <rect x="460" y="650" width="20" height="20" fill="#cc44ff" />
    <rect x="480" y="650" width="20" height="20" fill="#cc44ff" />
    <rect x="480" y="670" width="20" height="20" fill="#cc44ff" />
    <rect x="480" y="690" width="20" height="20" fill="#cc44ff" />
    <rect x="420" y="710" width="20" height="20" fill="#cc44ff" />
    <rect x="440" y="710" width="20" height="20" fill="#cc44ff" />
    <rect x="460" y="710" width="20" height="20" fill="#cc44ff" />
    <rect x="480" y="710" width="20" height="20" fill="#cc44ff" />
    <rect x="480" y="730" width="20" height="20" fill="#cc44ff" />
    <rect x="480" y="750" width="20" height="20" fill="#cc44ff" />
    <rect x="420" y="770" width="20" height="20" fill="#cc44ff" />
    <rect x="440" y="770" width="20" height="20" fill="#cc44ff" />
    <rect x="460" y="770" width="20" height="20" fill="#cc44ff" />
    <rect x="480" y="770" width="20" height="20" fill="#cc44ff" />
  </g>

  
  <rect x="560" y="620" width="4" height="380" fill="#2a1060" />
  <rect x="976" y="620" width="4" height="380" fill="#2a1060" />

  
  
  <text x="768" y="660" text-anchor="middle" font-family="monospace" font-size="26" font-weight="bold" fill="#ff2266" filter="url(#glow)">HISTORY &amp; POLITICS</text>
  <text x="768" y="700" text-anchor="middle" font-family="monospace" font-size="20" fill="#ffffff">Edward Snowden's NSA Revelations</text>
  <text x="768" y="730" text-anchor="middle" font-family="monospace" font-size="16" fill="#ff6688">2013-06-05</text>

  <text x="768" y="780" text-anchor="middle" font-family="monospace" font-size="26" font-weight="bold" fill="#00ff44" filter="url(#glow)">SCIENCE &amp; TECHNOLOGY</text>
  <text x="768" y="820" text-anchor="middle" font-family="monospace" font-size="20" fill="#ffffff">Google Glass Explorer Program Launch</text>
  <text x="768" y="850" text-anchor="middle" font-family="monospace" font-size="16" fill="#66ff88">2013-04-15</text>

  <text x="768" y="900" text-anchor="middle" font-family="monospace" font-size="26" font-weight="bold" fill="#ffaa00" filter="url(#glow)">SOCIETY &amp; ECONOMICS</text>
  <text x="768" y="940" text-anchor="middle" font-family="monospace" font-size="20" fill="#ffffff">Bitcoin's Dramatic Price Rise to $1,000</text>
  <text x="768" y="970" text-anchor="middle" font-family="monospace" font-size="16" fill="#ffcc44">2013-11-29</text>

  
  <rect x="0" y="1000" width="1536" height="24" fill="#120030" />
  <rect x="0" y="1000" width="1536" height="4" fill="#ff2266" />
  
  <rect x="40" y="1008" width="8" height="8" fill="#ff2266" />
  <rect x="56" y="1008" width="8" height="8" fill="#ffaa00" />
  <rect x="72" y="1008" width="8" height="8" fill="#00ff44" />
  <rect x="88" y="1008" width="8" height="8" fill="#cc44ff" />
  <rect x="1440" y="1008" width="8" height="8" fill="#ff2266" />
  <rect x="1456" y="1008" width="8" height="8" fill="#ffaa00" />
  <rect x="1472" y="1008" width="8" height="8" fill="#00ff44" />
  <rect x="1488" y="1008" width="8" height="8" fill="#cc44ff" />

  
  <rect x="550" y="640" width="6" height="6" fill="#ffffff" opacity="0.6" />
  <rect x="530" y="700" width="6" height="6" fill="#ffffff" opacity="0.4" />
  <rect x="548" y="760" width="6" height="6" fill="#ffffff" opacity="0.6" />
  <rect x="530" y="820" width="6" height="6" fill="#ffffff" opacity="0.4" />
  <rect x="550" y="880" width="6" height="6" fill="#ffffff" opacity="0.6" />
  <rect x="530" y="940" width="6" height="6" fill="#ffffff" opacity="0.4" />

  <rect x="990" y="640" width="6" height="6" fill="#ffffff" opacity="0.6" />
  <rect x="1010" y="700" width="6" height="6" fill="#ffffff" opacity="0.4" />
  <rect x="990" y="760" width="6" height="6" fill="#ffffff" opacity="0.6" />
  <rect x="1010" y="820" width="6" height="6" fill="#ffffff" opacity="0.4" />
  <rect x="990" y="880" width="6" height="6" fill="#ffffff" opacity="0.6" />
  <rect x="1010" y="940" width="6" height="6" fill="#ffffff" opacity="0.4" />

  
  <radialGradient id="vignette" cx="50%" cy="50%" r="75%">
    <stop offset="60%" stop-color="transparent" />
    <stop offset="100%" stop-color="#000000" stop-opacity="0.5" />
  </radialGradient>
  <rect width="1536" height="1024" fill="url(#vignette)" />
</svg>