<svg xmlns="http://www.w3.org/2000/svg" viewBox="0 0 1536 1024" role="img" width="1536" height="1024">
  <title>iPhone 5S and 5C Launch - Retro Pixel Art Banner</title>
  <defs>
    <radialGradient id="crt" cx="50%" cy="50%" r="70%">
      <stop offset="0%" stop-color="#001a00" />
      <stop offset="100%" stop-color="#000800" />
    </radialGradient>
    <filter id="glow">
      <feGaussianBlur stdDeviation="3" result="blur" />
      <feMerge><feMergeNode in="blur" /><feMergeNode in="SourceGraphic" /></feMerge>
    </filter>
    <filter id="scanlines" x="0" y="0" width="100%" height="100%">
      <feFlood flood-color="#000" flood-opacity="0.15" result="flood" />
      <feComposite in="flood" in2="SourceGraphic" operator="over" />
    </filter>
  </defs>

  
  <rect width="1536" height="1024" fill="url(#crt)" />

  
  <rect width="1536" height="2" y="0" fill="#00ff00" fill-opacity="0.03" />
  <rect width="1536" height="2" y="4" fill="#00ff00" fill-opacity="0.03" />
  <rect width="1536" height="2" y="8" fill="#00ff00" fill-opacity="0.03" />
  <rect width="1536" height="2" y="12" fill="#00ff00" fill-opacity="0.03" />
  <rect width="1536" height="2" y="16" fill="#00ff00" fill-opacity="0.03" />
  <rect width="1536" height="2" y="20" fill="#00ff00" fill-opacity="0.03" />
  <rect width="1536" height="2" y="24" fill="#00ff00" fill-opacity="0.03" />
  <rect width="1536" height="2" y="28" fill="#00ff00" fill-opacity="0.03" />
  <rect width="1536" height="2" y="32" fill="#00ff00" fill-opacity="0.03" />
  <rect width="1536" height="2" y="36" fill="#00ff00" fill-opacity="0.03" />
  <rect width="1536" height="2" y="40" fill="#00ff00" fill-opacity="0.03" />
  <rect width="1536" height="2" y="44" fill="#00ff00" fill-opacity="0.03" />
  <rect width="1536" height="2" y="48" fill="#00ff00" fill-opacity="0.03" />
  <rect width="1536" height="2" y="52" fill="#00ff00" fill-opacity="0.03" />
  <rect width="1536" height="2" y="56" fill="#00ff00" fill-opacity="0.03" />
  <rect width="1536" height="2" y="60" fill="#00ff00" fill-opacity="0.03" />
  <rect width="1536" height="2" y="64" fill="#00ff00" fill-opacity="0.03" />
  <rect width="1536" height="2" y="68" fill="#00ff00" fill-opacity="0.03" />
  <rect width="1536" height="2" y="72" fill="#00ff00" fill-opacity="0.03" />
  <rect width="1536" height="2" y="76" fill="#00ff00" fill-opacity="0.03" />
  <rect width="1536" height="2" y="80" fill="#00ff00" fill-opacity="0.03" />
  <rect width="1536" height="2" y="84" fill="#00ff00" fill-opacity="0.03" />
  <rect width="1536" height="2" y="88" fill="#00ff00" fill-opacity="0.03" />
  <rect width="1536" height="2" y="92" fill="#00ff00" fill-opacity="0.03" />
  <rect width="1536" height="2" y="96" fill="#00ff00" fill-opacity="0.03" />
  <rect width="1536" height="2" y="100" fill="#00ff00" fill-opacity="0.03" />
  <rect width="1536" height="2" y="104" fill="#00ff00" fill-opacity="0.03" />
  <rect width="1536" height="2" y="108" fill="#00ff00" fill-opacity="0.03" />
  <rect width="1536" height="2" y="112" fill="#00ff00" fill-opacity="0.03" />
  <rect width="1536" height="2" y="116" fill="#00ff00" fill-opacity="0.03" />
  <rect width="1536" height="2" y="120" fill="#00ff00" fill-opacity="0.03" />
  <rect width="1536" height="2" y="124" fill="#00ff00" fill-opacity="0.03" />
  <rect width="1536" height="2" y="128" fill="#00ff00" fill-opacity="0.03" />
  <rect width="1536" height="2" y="132" fill="#00ff00" fill-opacity="0.03" />
  <rect width="1536" height="2" y="136" fill="#00ff00" fill-opacity="0.03" />
  <rect width="1536" height="2" y="140" fill="#00ff00" fill-opacity="0.03" />
  <rect width="1536" height="2" y="144" fill="#00ff00" fill-opacity="0.03" />
  <rect width="1536" height="2" y="148" fill="#00ff00" fill-opacity="0.03" />
  <rect width="1536" height="2" y="152" fill="#00ff00" fill-opacity="0.03" />
  <rect width="1536" height="2" y="156" fill="#00ff00" fill-opacity="0.03" />
  <rect width="1536" height="2" y="160" fill="#00ff00" fill-opacity="0.03" />
  <rect width="1536" height="2" y="164" fill="#00ff00" fill-opacity="0.03" />
  <rect width="1536" height="2" y="168" fill="#00ff00" fill-opacity="0.03" />
  <rect width="1536" height="2" y="172" fill="#00ff00" fill-opacity="0.03" />
  <rect width="1536" height="2" y="176" fill="#00ff00" fill-opacity="0.03" />
  <rect width="1536" height="2" y="180" fill="#00ff00" fill-opacity="0.03" />
  <rect width="1536" height="2" y="184" fill="#00ff00" fill-opacity="0.03" />
  <rect width="1536" height="2" y="188" fill="#00ff00" fill-opacity="0.03" />
  <rect width="1536" height="2" y="192" fill="#00ff00" fill-opacity="0.03" />
  <rect width="1536" height="2" y="196" fill="#00ff00" fill-opacity="0.03" />
  <rect width="1536" height="2" y="200" fill="#00ff00" fill-opacity="0.03" />
  <rect width="1536" height="2" y="204" fill="#00ff00" fill-opacity="0.03" />
  <rect width="1536" height="2" y="208" fill="#00ff00" fill-opacity="0.03" />
  <rect width="1536" height="2" y="212" fill="#00ff00" fill-opacity="0.03" />
  <rect width="1536" height="2" y="216" fill="#00ff00" fill-opacity="0.03" />
  <rect width="1536" height="2" y="220" fill="#00ff00" fill-opacity="0.03" />
  <rect width="1536" height="2" y="224" fill="#00ff00" fill-opacity="0.03" />
  <rect width="1536" height="2" y="228" fill="#00ff00" fill-opacity="0.03" />
  <rect width="1536" height="2" y="232" fill="#00ff00" fill-opacity="0.03" />
  <rect width="1536" height="2" y="236" fill="#00ff00" fill-opacity="0.03" />
  <rect width="1536" height="2" y="240" fill="#00ff00" fill-opacity="0.03" />
  <rect width="1536" height="2" y="244" fill="#00ff00" fill-opacity="0.03" />
  <rect width="1536" height="2" y="248" fill="#00ff00" fill-opacity="0.03" />
  <rect width="1536" height="2" y="252" fill="#00ff00" fill-opacity="0.03" />
  <rect width="1536" height="2" y="256" fill="#00ff00" fill-opacity="0.03" />
  <rect width="1536" height="2" y="260" fill="#00ff00" fill-opacity="0.03" />
  <rect width="1536" height="2" y="264" fill="#00ff00" fill-opacity="0.03" />
  <rect width="1536" height="2" y="268" fill="#00ff00" fill-opacity="0.03" />
  <rect width="1536" height="2" y="272" fill="#00ff00" fill-opacity="0.03" />
  <rect width="1536" height="2" y="276" fill="#00ff00" fill-opacity="0.03" />
  <rect width="1536" height="2" y="280" fill="#00ff00" fill-opacity="0.03" />
  <rect width="1536" height="2" y="284" fill="#00ff00" fill-opacity="0.03" />
  <rect width="1536" height="2" y="288" fill="#00ff00" fill-opacity="0.03" />
  <rect width="1536" height="2" y="292" fill="#00ff00" fill-opacity="0.03" />
  <rect width="1536" height="2" y="296" fill="#00ff00" fill-opacity="0.03" />
  <rect width="1536" height="2" y="300" fill="#00ff00" fill-opacity="0.03" />
  <rect width="1536" height="2" y="304" fill="#00ff00" fill-opacity="0.03" />
  <rect width="1536" height="2" y="308" fill="#00ff00" fill-opacity="0.03" />
  <rect width="1536" height="2" y="312" fill="#00ff00" fill-opacity="0.03" />
  <rect width="1536" height="2" y="316" fill="#00ff00" fill-opacity="0.03" />
  <rect width="1536" height="2" y="320" fill="#00ff00" fill-opacity="0.03" />
  <rect width="1536" height="2" y="324" fill="#00ff00" fill-opacity="0.03" />
  <rect width="1536" height="2" y="328" fill="#00ff00" fill-opacity="0.03" />
  <rect width="1536" height="2" y="332" fill="#00ff00" fill-opacity="0.03" />
  <rect width="1536" height="2" y="336" fill="#00ff00" fill-opacity="0.03" />
  <rect width="1536" height="2" y="340" fill="#00ff00" fill-opacity="0.03" />
  <rect width="1536" height="2" y="344" fill="#00ff00" fill-opacity="0.03" />
  <rect width="1536" height="2" y="348" fill="#00ff00" fill-opacity="0.03" />
  <rect width="1536" height="2" y="352" fill="#00ff00" fill-opacity="0.03" />
  <rect width="1536" height="2" y="356" fill="#00ff00" fill-opacity="0.03" />
  <rect width="1536" height="2" y="360" fill="#00ff00" fill-opacity="0.03" />
  <rect width="1536" height="2" y="364" fill="#00ff00" fill-opacity="0.03" />
  <rect width="1536" height="2" y="368" fill="#00ff00" fill-opacity="0.03" />
  <rect width="1536" height="2" y="372" fill="#00ff00" fill-opacity="0.03" />
  <rect width="1536" height="2" y="376" fill="#00ff00" fill-opacity="0.03" />
  <rect width="1536" height="2" y="380" fill="#00ff00" fill-opacity="0.03" />
  <rect width="1536" height="2" y="384" fill="#00ff00" fill-opacity="0.03" />
  <rect width="1536" height="2" y="388" fill="#00ff00" fill-opacity="0.03" />
  <rect width="1536" height="2" y="392" fill="#00ff00" fill-opacity="0.03" />
  <rect width="1536" height="2" y="396" fill="#00ff00" fill-opacity="0.03" />
  <rect width="1536" height="2" y="400" fill="#00ff00" fill-opacity="0.03" />
  <rect width="1536" height="2" y="404" fill="#00ff00" fill-opacity="0.03" />
  <rect width="1536" height="2" y="408" fill="#00ff00" fill-opacity="0.03" />
  <rect width="1536" height="2" y="412" fill="#00ff00" fill-opacity="0.03" />
  <rect width="1536" height="2" y="416" fill="#00ff00" fill-opacity="0.03" />
  <rect width="1536" height="2" y="420" fill="#00ff00" fill-opacity="0.03" />
  <rect width="1536" height="2" y="424" fill="#00ff00" fill-opacity="0.03" />
  <rect width="1536" height="2" y="428" fill="#00ff00" fill-opacity="0.03" />
  <rect width="1536" height="2" y="432" fill="#00ff00" fill-opacity="0.03" />
  <rect width="1536" height="2" y="436" fill="#00ff00" fill-opacity="0.03" />
  <rect width="1536" height="2" y="440" fill="#00ff00" fill-opacity="0.03" />
  <rect width="1536" height="2" y="444" fill="#00ff00" fill-opacity="0.03" />
  <rect width="1536" height="2" y="448" fill="#00ff00" fill-opacity="0.03" />
  <rect width="1536" height="2" y="452" fill="#00ff00" fill-opacity="0.03" />
  <rect width="1536" height="2" y="456" fill="#00ff00" fill-opacity="0.03" />
  <rect width="1536" height="2" y="460" fill="#00ff00" fill-opacity="0.03" />
  <rect width="1536" height="2" y="464" fill="#00ff00" fill-opacity="0.03" />
  <rect width="1536" height="2" y="468" fill="#00ff00" fill-opacity="0.03" />
  <rect width="1536" height="2" y="472" fill="#00ff00" fill-opacity="0.03" />
  <rect width="1536" height="2" y="476" fill="#00ff00" fill-opacity="0.03" />
  <rect width="1536" height="2" y="480" fill="#00ff00" fill-opacity="0.03" />
  <rect width="1536" height="2" y="484" fill="#00ff00" fill-opacity="0.03" />
  <rect width="1536" height="2" y="488" fill="#00ff00" fill-opacity="0.03" />
  <rect width="1536" height="2" y="492" fill="#00ff00" fill-opacity="0.03" />
  <rect width="1536" height="2" y="496" fill="#00ff00" fill-opacity="0.03" />
  <rect width="1536" height="2" y="500" fill="#00ff00" fill-opacity="0.03" />
  <rect width="1536" height="2" y="504" fill="#00ff00" fill-opacity="0.03" />
  <rect width="1536" height="2" y="508" fill="#00ff00" fill-opacity="0.03" />
  <rect width="1536" height="2" y="512" fill="#00ff00" fill-opacity="0.03" />
  <rect width="1536" height="2" y="516" fill="#00ff00" fill-opacity="0.03" />
  <rect width="1536" height="2" y="520" fill="#00ff00" fill-opacity="0.03" />
  <rect width="1536" height="2" y="524" fill="#00ff00" fill-opacity="0.03" />
  <rect width="1536" height="2" y="528" fill="#00ff00" fill-opacity="0.03" />
  <rect width="1536" height="2" y="532" fill="#00ff00" fill-opacity="0.03" />
  <rect width="1536" height="2" y="536" fill="#00ff00" fill-opacity="0.03" />
  <rect width="1536" height="2" y="540" fill="#00ff00" fill-opacity="0.03" />
  <rect width="1536" height="2" y="544" fill="#00ff00" fill-opacity="0.03" />
  <rect width="1536" height="2" y="548" fill="#00ff00" fill-opacity="0.03" />
  <rect width="1536" height="2" y="552" fill="#00ff00" fill-opacity="0.03" />
  <rect width="1536" height="2" y="556" fill="#00ff00" fill-opacity="0.03" />
  <rect width="1536" height="2" y="560" fill="#00ff00" fill-opacity="0.03" />
  <rect width="1536" height="2" y="564" fill="#00ff00" fill-opacity="0.03" />
  <rect width="1536" height="2" y="568" fill="#00ff00" fill-opacity="0.03" />
  <rect width="1536" height="2" y="572" fill="#00ff00" fill-opacity="0.03" />
  <rect width="1536" height="2" y="576" fill="#00ff00" fill-opacity="0.03" />
  <rect width="1536" height="2" y="580" fill="#00ff00" fill-opacity="0.03" />
  <rect width="1536" height="2" y="584" fill="#00ff00" fill-opacity="0.03" />
  <rect width="1536" height="2" y="588" fill="#00ff00" fill-opacity="0.03" />
  <rect width="1536" height="2" y="592" fill="#00ff00" fill-opacity="0.03" />
  <rect width="1536" height="2" y="596" fill="#00ff00" fill-opacity="0.03" />
  <rect width="1536" height="2" y="600" fill="#00ff00" fill-opacity="0.03" />
  <rect width="1536" height="2" y="604" fill="#00ff00" fill-opacity="0.03" />
  <rect width="1536" height="2" y="608" fill="#00ff00" fill-opacity="0.03" />
  <rect width="1536" height="2" y="612" fill="#00ff00" fill-opacity="0.03" />
  <rect width="1536" height="2" y="616" fill="#00ff00" fill-opacity="0.03" />
  <rect width="1536" height="2" y="620" fill="#00ff00" fill-opacity="0.03" />
  <rect width="1536" height="2" y="624" fill="#00ff00" fill-opacity="0.03" />
  <rect width="1536" height="2" y="628" fill="#00ff00" fill-opacity="0.03" />
  <rect width="1536" height="2" y="632" fill="#00ff00" fill-opacity="0.03" />
  <rect width="1536" height="2" y="636" fill="#00ff00" fill-opacity="0.03" />
  <rect width="1536" height="2" y="640" fill="#00ff00" fill-opacity="0.03" />
  <rect width="1536" height="2" y="644" fill="#00ff00" fill-opacity="0.03" />
  <rect width="1536" height="2" y="648" fill="#00ff00" fill-opacity="0.03" />
  <rect width="1536" height="2" y="652" fill="#00ff00" fill-opacity="0.03" />
  <rect width="1536" height="2" y="656" fill="#00ff00" fill-opacity="0.03" />
  <rect width="1536" height="2" y="660" fill="#00ff00" fill-opacity="0.03" />
  <rect width="1536" height="2" y="664" fill="#00ff00" fill-opacity="0.03" />
  <rect width="1536" height="2" y="668" fill="#00ff00" fill-opacity="0.03" />
  <rect width="1536" height="2" y="672" fill="#00ff00" fill-opacity="0.03" />
  <rect width="1536" height="2" y="676" fill="#00ff00" fill-opacity="0.03" />
  <rect width="1536" height="2" y="680" fill="#00ff00" fill-opacity="0.03" />
  <rect width="1536" height="2" y="684" fill="#00ff00" fill-opacity="0.03" />
  <rect width="1536" height="2" y="688" fill="#00ff00" fill-opacity="0.03" />
  <rect width="1536" height="2" y="692" fill="#00ff00" fill-opacity="0.03" />
  <rect width="1536" height="2" y="696" fill="#00ff00" fill-opacity="0.03" />
  <rect width="1536" height="2" y="700" fill="#00ff00" fill-opacity="0.03" />
  <rect width="1536" height="2" y="704" fill="#00ff00" fill-opacity="0.03" />
  <rect width="1536" height="2" y="708" fill="#00ff00" fill-opacity="0.03" />
  <rect width="1536" height="2" y="712" fill="#00ff00" fill-opacity="0.03" />
  <rect width="1536" height="2" y="716" fill="#00ff00" fill-opacity="0.03" />
  <rect width="1536" height="2" y="720" fill="#00ff00" fill-opacity="0.03" />
  <rect width="1536" height="2" y="724" fill="#00ff00" fill-opacity="0.03" />
  <rect width="1536" height="2" y="728" fill="#00ff00" fill-opacity="0.03" />
  <rect width="1536" height="2" y="732" fill="#00ff00" fill-opacity="0.03" />
  <rect width="1536" height="2" y="736" fill="#00ff00" fill-opacity="0.03" />
  <rect width="1536" height="2" y="740" fill="#00ff00" fill-opacity="0.03" />
  <rect width="1536" height="2" y="744" fill="#00ff00" fill-opacity="0.03" />
  <rect width="1536" height="2" y="748" fill="#00ff00" fill-opacity="0.03" />
  <rect width="1536" height="2" y="752" fill="#00ff00" fill-opacity="0.03" />
  <rect width="1536" height="2" y="756" fill="#00ff00" fill-opacity="0.03" />
  <rect width="1536" height="2" y="760" fill="#00ff00" fill-opacity="0.03" />
  <rect width="1536" height="2" y="764" fill="#00ff00" fill-opacity="0.03" />
  <rect width="1536" height="2" y="768" fill="#00ff00" fill-opacity="0.03" />
  <rect width="1536" height="2" y="772" fill="#00ff00" fill-opacity="0.03" />
  <rect width="1536" height="2" y="776" fill="#00ff00" fill-opacity="0.03" />
  <rect width="1536" height="2" y="780" fill="#00ff00" fill-opacity="0.03" />
  <rect width="1536" height="2" y="784" fill="#00ff00" fill-opacity="0.03" />
  <rect width="1536" height="2" y="788" fill="#00ff00" fill-opacity="0.03" />
  <rect width="1536" height="2" y="792" fill="#00ff00" fill-opacity="0.03" />
  <rect width="1536" height="2" y="796" fill="#00ff00" fill-opacity="0.03" />
  <rect width="1536" height="2" y="800" fill="#00ff00" fill-opacity="0.03" />
  <rect width="1536" height="2" y="804" fill="#00ff00" fill-opacity="0.03" />
  <rect width="1536" height="2" y="808" fill="#00ff00" fill-opacity="0.03" />
  <rect width="1536" height="2" y="812" fill="#00ff00" fill-opacity="0.03" />
  <rect width="1536" height="2" y="816" fill="#00ff00" fill-opacity="0.03" />
  <rect width="1536" height="2" y="820" fill="#00ff00" fill-opacity="0.03" />
  <rect width="1536" height="2" y="824" fill="#00ff00" fill-opacity="0.03" />
  <rect width="1536" height="2" y="828" fill="#00ff00" fill-opacity="0.03" />
  <rect width="1536" height="2" y="832" fill="#00ff00" fill-opacity="0.03" />
  <rect width="1536" height="2" y="836" fill="#00ff00" fill-opacity="0.03" />
  <rect width="1536" height="2" y="840" fill="#00ff00" fill-opacity="0.03" />
  <rect width="1536" height="2" y="844" fill="#00ff00" fill-opacity="0.03" />
  <rect width="1536" height="2" y="848" fill="#00ff00" fill-opacity="0.03" />
  <rect width="1536" height="2" y="852" fill="#00ff00" fill-opacity="0.03" />
  <rect width="1536" height="2" y="856" fill="#00ff00" fill-opacity="0.03" />
  <rect width="1536" height="2" y="860" fill="#00ff00" fill-opacity="0.03" />
  <rect width="1536" height="2" y="864" fill="#00ff00" fill-opacity="0.03" />
  <rect width="1536" height="2" y="868" fill="#00ff00" fill-opacity="0.03" />
  <rect width="1536" height="2" y="872" fill="#00ff00" fill-opacity="0.03" />
  <rect width="1536" height="2" y="876" fill="#00ff00" fill-opacity="0.03" />
  <rect width="1536" height="2" y="880" fill="#00ff00" fill-opacity="0.03" />
  <rect width="1536" height="2" y="884" fill="#00ff00" fill-opacity="0.03" />
  <rect width="1536" height="2" y="888" fill="#00ff00" fill-opacity="0.03" />
  <rect width="1536" height="2" y="892" fill="#00ff00" fill-opacity="0.03" />
  <rect width="1536" height="2" y="896" fill="#00ff00" fill-opacity="0.03" />
  <rect width="1536" height="2" y="900" fill="#00ff00" fill-opacity="0.03" />
  <rect width="1536" height="2" y="904" fill="#00ff00" fill-opacity="0.03" />
  <rect width="1536" height="2" y="908" fill="#00ff00" fill-opacity="0.03" />
  <rect width="1536" height="2" y="912" fill="#00ff00" fill-opacity="0.03" />
  <rect width="1536" height="2" y="916" fill="#00ff00" fill-opacity="0.03" />
  <rect width="1536" height="2" y="920" fill="#00ff00" fill-opacity="0.03" />
  <rect width="1536" height="2" y="924" fill="#00ff00" fill-opacity="0.03" />
  <rect width="1536" height="2" y="928" fill="#00ff00" fill-opacity="0.03" />
  <rect width="1536" height="2" y="932" fill="#00ff00" fill-opacity="0.03" />
  <rect width="1536" height="2" y="936" fill="#00ff00" fill-opacity="0.03" />
  <rect width="1536" height="2" y="940" fill="#00ff00" fill-opacity="0.03" />
  <rect width="1536" height="2" y="944" fill="#00ff00" fill-opacity="0.03" />
  <rect width="1536" height="2" y="948" fill="#00ff00" fill-opacity="0.03" />
  <rect width="1536" height="2" y="952" fill="#00ff00" fill-opacity="0.03" />
  <rect width="1536" height="2" y="956" fill="#00ff00" fill-opacity="0.03" />
  <rect width="1536" height="2" y="960" fill="#00ff00" fill-opacity="0.03" />
  <rect width="1536" height="2" y="964" fill="#00ff00" fill-opacity="0.03" />
  <rect width="1536" height="2" y="968" fill="#00ff00" fill-opacity="0.03" />
  <rect width="1536" height="2" y="972" fill="#00ff00" fill-opacity="0.03" />
  <rect width="1536" height="2" y="976" fill="#00ff00" fill-opacity="0.03" />
  <rect width="1536" height="2" y="980" fill="#00ff00" fill-opacity="0.03" />
  <rect width="1536" height="2" y="984" fill="#00ff00" fill-opacity="0.03" />
  <rect width="1536" height="2" y="988" fill="#00ff00" fill-opacity="0.03" />
  <rect width="1536" height="2" y="992" fill="#00ff00" fill-opacity="0.03" />
  <rect width="1536" height="2" y="996" fill="#00ff00" fill-opacity="0.03" />
  <rect width="1536" height="2" y="1000" fill="#00ff00" fill-opacity="0.03" />
  <rect width="1536" height="2" y="1004" fill="#00ff00" fill-opacity="0.03" />
  <rect width="1536" height="2" y="1008" fill="#00ff00" fill-opacity="0.03" />
  <rect width="1536" height="2" y="1012" fill="#00ff00" fill-opacity="0.03" />
  <rect width="1536" height="2" y="1016" fill="#00ff00" fill-opacity="0.03" />
  <rect width="1536" height="2" y="1020" fill="#00ff00" fill-opacity="0.03" />

  
  <rect x="0" y="0" width="1536" height="8" fill="#00ff88" opacity="0.15" />
  <rect x="0" y="1016" width="1536" height="8" fill="#00ff88" opacity="0.15" />

  
  <rect x="60" y="60" width="8" height="8" fill="#ffff00" />
  <rect x="76" y="60" width="8" height="8" fill="#ffff00" />
  <rect x="92" y="60" width="8" height="8" fill="#ffff00" />
  <rect x="108" y="60" width="8" height="8" fill="#ffff00" />
  <rect x="60" y="76" width="8" height="8" fill="#ffff00" />
  <rect x="60" y="92" width="8" height="8" fill="#ffff00" />
  <rect x="60" y="108" width="8" height="8" fill="#ffff00" />

  
  <rect x="1468" y="60" width="8" height="8" fill="#ffff00" />
  <rect x="1452" y="60" width="8" height="8" fill="#ffff00" />
  <rect x="1436" y="60" width="8" height="8" fill="#ffff00" />
  <rect x="1420" y="60" width="8" height="8" fill="#ffff00" />
  <rect x="1468" y="76" width="8" height="8" fill="#ffff00" />
  <rect x="1468" y="92" width="8" height="8" fill="#ffff00" />
  <rect x="1468" y="108" width="8" height="8" fill="#ffff00" />

  
  <rect x="60" y="956" width="8" height="8" fill="#ffff00" />
  <rect x="76" y="956" width="8" height="8" fill="#ffff00" />
  <rect x="92" y="956" width="8" height="8" fill="#ffff00" />
  <rect x="108" y="956" width="8" height="8" fill="#ffff00" />
  <rect x="60" y="940" width="8" height="8" fill="#ffff00" />
  <rect x="60" y="924" width="8" height="8" fill="#ffff00" />

  <rect x="1468" y="956" width="8" height="8" fill="#ffff00" />
  <rect x="1452" y="956" width="8" height="8" fill="#ffff00" />
  <rect x="1436" y="956" width="8" height="8" fill="#ffff00" />
  <rect x="1420" y="956" width="8" height="8" fill="#ffff00" />
  <rect x="1468" y="940" width="8" height="8" fill="#ffff00" />
  <rect x="1468" y="924" width="8" height="8" fill="#ffff00" />

  
  
  <g filter="url(#glow)">
    
    <rect x="230" y="180" width="200" height="360" rx="0" fill="#c8c8c8" />
    
    <rect x="230" y="180" width="16" height="16" fill="#001a00" />
    <rect x="414" y="180" width="16" height="16" fill="#001a00" />
    <rect x="230" y="524" width="16" height="16" fill="#001a00" />
    <rect x="414" y="524" width="16" height="16" fill="#001a00" />
    <rect x="246" y="180" width="168" height="8" fill="#c8c8c8" />
    <rect x="246" y="532" width="168" height="8" fill="#c8c8c8" />
    <rect x="230" y="196" width="8" height="328" fill="#c8c8c8" />
    <rect x="422" y="196" width="8" height="328" fill="#c8c8c8" />
    
    <rect x="246" y="188" width="168" height="56" fill="#1a1a1a" />
    
    <rect x="298" y="204" width="64" height="8" fill="#333" />
    <rect x="306" y="204" width="8" height="8" fill="#555" />
    <rect x="322" y="204" width="8" height="8" fill="#555" />
    <rect x="338" y="204" width="8" height="8" fill="#555" />
    
    <rect x="370" y="200" width="16" height="16" fill="#222" />
    <rect x="374" y="204" width="8" height="8" fill="#446" />
    
    <rect x="254" y="244" width="152" height="224" fill="#001133" />
    
    <rect x="262" y="252" width="136" height="16" fill="#003366" />
    <rect x="262" y="276" width="40" height="40" fill="#ffaa00" opacity="0.8" />
    <rect x="310" y="276" width="40" height="40" fill="#ff4444" opacity="0.8" />
    <rect x="358" y="276" width="40" height="40" fill="#44ff88" opacity="0.8" />
    <rect x="262" y="324" width="40" height="40" fill="#4488ff" opacity="0.8" />
    <rect x="310" y="324" width="40" height="40" fill="#ff44ff" opacity="0.8" />
    <rect x="358" y="324" width="40" height="40" fill="#ffff44" opacity="0.8" />
    <rect x="262" y="372" width="40" height="40" fill="#44ffff" opacity="0.8" />
    <rect x="310" y="372" width="40" height="40" fill="#ff8844" opacity="0.8" />
    <rect x="358" y="372" width="40" height="40" fill="#88ff44" opacity="0.8" />
    <rect x="262" y="420" width="136" height="40" fill="#001a44" opacity="0.8" />
    
    <rect x="254" y="244" width="16" height="40" fill="#ffffff" opacity="0.1" />
    
    <rect x="246" y="468" width="168" height="64" fill="#1a1a1a" />
    
    <rect x="308" y="476" width="48" height="48" fill="#111" />
    <rect x="312" y="476" width="40" height="8" fill="#333" />
    <rect x="308" y="480" width="8" height="32" fill="#333" />
    <rect x="348" y="480" width="8" height="32" fill="#333" />
    <rect x="312" y="516" width="40" height="8" fill="#333" />
    
    <rect x="316" y="484" width="32" height="32" fill="#222" />
    <rect x="316" y="484" width="32" height="4" fill="#555" />
    
    <rect x="390" y="180" width="40" height="24" fill="#d4a017" />
    <text x="410" y="197" font-family="monospace" font-size="12" font-weight="bold" fill="#000" text-anchor="middle">5S</text>
  </g>

  
  
  <g filter="url(#glow)">
    
    <rect x="480" y="200" width="200" height="340" fill="#f5d300" />
    
    <rect x="480" y="200" width="16" height="16" fill="#001a00" />
    <rect x="664" y="200" width="16" height="16" fill="#001a00" />
    <rect x="480" y="524" width="16" height="16" fill="#001a00" />
    <rect x="664" y="524" width="16" height="16" fill="#001a00" />
    <rect x="496" y="200" width="168" height="8" fill="#f5d300" />
    <rect x="496" y="532" width="168" height="8" fill="#f5d300" />
    <rect x="480" y="216" width="8" height="308" fill="#f5d300" />
    <rect x="672" y="216" width="8" height="308" fill="#f5d300" />
    
    <rect x="496" y="208" width="168" height="48" fill="#1a1a1a" />
    
    <rect x="624" y="216" width="16" height="16" fill="#222" />
    <rect x="628" y="220" width="8" height="8" fill="#446" />
    
    <rect x="548" y="218" width="64" height="8" fill="#333" />
    
    <rect x="504" y="256" width="152" height="200" fill="#000a22" />
    
    <rect x="512" y="264" width="32" height="32" fill="#ff2244" />
    <rect x="552" y="264" width="32" height="32" fill="#22aaff" />
    <rect x="592" y="264" width="32" height="32" fill="#22dd55" />
    <rect x="632" y="264" width="32" height="32" fill="#ff8800" />
    <rect x="512" y="304" width="32" height="32" fill="#aa22ff" />
    <rect x="552" y="304" width="32" height="32" fill="#ffdd00" />
    <rect x="592" y="304" width="32" height="32" fill="#ff2266" />
    <rect x="632" y="304" width="32" height="32" fill="#00ccff" />
    <rect x="512" y="344" width="32" height="32" fill="#55ff00" />
    <rect x="552" y="344" width="32" height="32" fill="#ff5500" />
    <rect x="592" y="344" width="32" height="32" fill="#8800ff" />
    <rect x="632" y="344" width="32" height="32" fill="#ffaacc" />
    
    <rect x="504" y="392" width="152" height="60" fill="#001133" opacity="0.7" />
    <rect x="520" y="400" width="32" height="32" fill="#22aaff" />
    <rect x="560" y="400" width="32" height="32" fill="#22dd55" />
    <rect x="600" y="400" width="32" height="32" fill="#ff2244" />
    <rect x="640" y="400" width="32" height="32" fill="#ffaa00" />
    
    <rect x="496" y="456" width="168" height="68" fill="#1a1a1a" />
    
    <rect x="558" y="464" width="48" height="48" fill="#222" />
    <rect x="562" y="464" width="40" height="8" fill="#444" />
    <rect x="558" y="468" width="8" height="32" fill="#444" />
    <rect x="598" y="468" width="8" height="32" fill="#444" />
    <rect x="562" y="504" width="40" height="8" fill="#444" />
    
    <rect x="640" y="200" width="40" height="24" fill="#ff2244" />
    <text x="660" y="217" font-family="monospace" font-size="12" font-weight="bold" fill="#fff" text-anchor="middle">5C</text>
  </g>

  
  
  <rect x="720" y="230" width="160" height="280" fill="#00c85a" />
  <rect x="720" y="230" width="12" height="12" fill="#001a00" />
  <rect x="868" y="230" width="12" height="12" fill="#001a00" />
  <rect x="720" y="498" width="12" height="12" fill="#001a00" />
  <rect x="868" y="498" width="12" height="12" fill="#001a00" />
  <rect x="732" y="230" width="136" height="280" fill="#00c85a" />
  <rect x="720" y="242" width="12" height="256" fill="#00c85a" />
  <rect x="868" y="242" width="12" height="256" fill="#00c85a" />
  <rect x="736" y="244" width="128" height="168" fill="#000a22" />
  <rect x="744" y="252" width="24" height="24" fill="#ff2244" />
  <rect x="776" y="252" width="24" height="24" fill="#22aaff" />
  <rect x="808" y="252" width="24" height="24" fill="#ffdd00" />
  <rect x="832" y="252" width="24" height="24" fill="#ff8800" />
  <rect x="744" y="284" width="24" height="24" fill="#aa22ff" />
  <rect x="776" y="284" width="24" height="24" fill="#22dd55" />
  <rect x="808" y="284" width="24" height="24" fill="#ff2266" />
  <rect x="832" y="284" width="24" height="24" fill="#00ccff" />
  <rect x="736" y="376" width="128" height="44" fill="#1a1a1a" />
  <rect x="776" y="384" width="40" height="28" fill="#222" />
  
  <rect x="848" y="230" width="32" height="20" fill="#009944" />
  <text x="864" y="244" font-family="monospace" font-size="10" font-weight="bold" fill="#fff" text-anchor="middle">5C</text>

  
  <rect x="900" y="250" width="140" height="260" fill="#1a6bff" />
  <rect x="900" y="250" width="12" height="12" fill="#001a00" />
  <rect x="1028" y="250" width="12" height="12" fill="#001a00" />
  <rect x="900" y="498" width="12" height="12" fill="#001a00" />
  <rect x="1028" y="498" width="12" height="12" fill="#001a00" />
  <rect x="912" y="258" width="116" height="156" fill="#000a22" />
  <rect x="920" y="266" width="24" height="24" fill="#ff2244" />
  <rect x="952" y="266" width="24" height="24" fill="#ffdd00" />
  <rect x="984" y="266" width="24" height="24" fill="#00cc55" />
  <rect x="1008" y="266" width="16" height="24" fill="#ff8800" />
  <rect x="920" y="298" width="24" height="24" fill="#aa22ff" />
  <rect x="952" y="298" width="24" height="24" fill="#ff2266" />
  <rect x="984" y="298" width="24" height="24" fill="#ffaacc" />
  <rect x="1008" y="298" width="16" height="24" fill="#22aaff" />
  <rect x="912" y="374" width="116" height="38" fill="#1a1a1a" />
  <rect x="950" y="380" width="36" height="26" fill="#222" />
  
  <rect x="1010" y="250" width="30" height="18" fill="#0044cc" />
  <text x="1025" y="263" font-family="monospace" font-size="9" font-weight="bold" fill="#fff" text-anchor="middle">5C</text>

  
  <rect x="1060" y="240" width="140" height="270" fill="#ff3377" />
  <rect x="1060" y="240" width="12" height="12" fill="#001a00" />
  <rect x="1188" y="240" width="12" height="12" fill="#001a00" />
  <rect x="1060" y="498" width="12" height="12" fill="#001a00" />
  <rect x="1188" y="498" width="12" height="12" fill="#001a00" />
  <rect x="1072" y="248" width="116" height="162" fill="#000a22" />
  <rect x="1080" y="256" width="24" height="24" fill="#ffdd00" />
  <rect x="1112" y="256" width="24" height="24" fill="#22aaff" />
  <rect x="1144" y="256" width="24" height="24" fill="#00cc55" />
  <rect x="1080" y="288" width="24" height="24" fill="#ff8800" />
  <rect x="1112" y="288" width="24" height="24" fill="#aa22ff" />
  <rect x="1144" y="288" width="24" height="24" fill="#ffaacc" />
  <rect x="1072" y="366" width="116" height="40" fill="#1a1a1a" />
  <rect x="1110" y="374" width="36" height="26" fill="#222" />
  
  <rect x="1168" y="240" width="32" height="18" fill="#cc1155" />
  <text x="1184" y="253" font-family="monospace" font-size="9" font-weight="bold" fill="#fff" text-anchor="middle">5C</text>

  
  <g opacity="0.6" filter="url(#glow)">
    
    <rect x="736" y="640" width="64" height="8" fill="#00ffaa" />
    <rect x="720" y="648" width="96" height="8" fill="#00ffaa" />
    <rect x="712" y="656" width="8" height="8" fill="#00ffaa" />
    <rect x="816" y="656" width="8" height="8" fill="#00ffaa" />
    <rect x="704" y="664" width="8" height="48" fill="#00ffaa" />
    <rect x="824" y="664" width="8" height="48" fill="#00ffaa" />
    <rect x="712" y="712" width="8" height="8" fill="#00ffaa" />
    <rect x="816" y="712" width="8" height="8" fill="#00ffaa" />
    <rect x="720" y="720" width="96" height="8" fill="#00ffaa" />
    <rect x="736" y="728" width="64" height="8" fill="#00ffaa" />
    
    <rect x="744" y="656" width="48" height="8" fill="#00ffaa" />
    <rect x="736" y="664" width="8" height="8" fill="#00ffaa" />
    <rect x="792" y="664" width="8" height="8" fill="#00ffaa" />
    <rect x="728" y="672" width="8" height="32" fill="#00ffaa" />
    <rect x="800" y="672" width="8" height="32" fill="#00ffaa" />
    <rect x="736" y="704" width="8" height="8" fill="#00ffaa" />
    <rect x="792" y="704" width="8" height="8" fill="#00ffaa" />
    <rect x="744" y="712" width="48" height="8" fill="#00ffaa" />
    
    <rect x="752" y="672" width="8" height="24" fill="#00ffaa" />
    <rect x="776" y="672" width="8" height="24" fill="#00ffaa" />
    <rect x="760" y="680" width="16" height="8" fill="#00ffaa" />
    <text x="768" y="760" font-family="monospace" font-size="18" fill="#00ffaa" text-anchor="middle" opacity="0.8">TOUCH ID</text>
  </g>

  
  <g opacity="0.7">
    
    <rect x="100" y="640" width="120" height="120" fill="#444" />
    <rect x="108" y="648" width="104" height="104" fill="#222" />
    
    <rect x="84" y="656" width="16" height="8" fill="#888" />
    <rect x="84" y="672" width="16" height="8" fill="#888" />
    <rect x="84" y="688" width="16" height="8" fill="#888" />
    <rect x="84" y="704" width="16" height="8" fill="#888" />
    <rect x="84" y="720" width="16" height="8" fill="#888" />
    <rect x="84" y="736" width="16" height="8" fill="#888" />
    
    <rect x="220" y="656" width="16" height="8" fill="#888" />
    <rect x="220" y="672" width="16" height="8" fill="#888" />
    <rect x="220" y="688" width="16" height="8" fill="#888" />
    <rect x="220" y="704" width="16" height="8" fill="#888" />
    <rect x="220" y="720" width="16" height="8" fill="#888" />
    <rect x="220" y="736" width="16" height="8" fill="#888" />
    
    <rect x="116" y="624" width="8" height="16" fill="#888" />
    <rect x="132" y="624" width="8" height="16" fill="#888" />
    <rect x="148" y="624" width="8" height="16" fill="#888" />
    <rect x="164" y="624" width="8" height="16" fill="#888" />
    <rect x="180" y="624" width="8" height="16" fill="#888" />
    <rect x="196" y="624" width="8" height="16" fill="#888" />
    <rect x="212" y="624" width="8" height="16" fill="#888" />
    
    <text x="160" y="698" font-family="monospace" font-size="22" font-weight="bold" fill="#00ffaa" text-anchor="middle" filter="url(#glow)">A7</text>
    <text x="160" y="722" font-family="monospace" font-size="11" fill="#aaa" text-anchor="middle">64-BIT</text>
  </g>

  
  <rect x="150" y="140" width="8" height="8" fill="#ffff00" opacity="0.5" />
  <rect x="200" y="100" width="8" height="8" fill="#ffffff" opacity="0.3" />
  <rect x="1350" y="140" width="8" height="8" fill="#ffff00" opacity="0.5" />
  <rect x="1300" y="100" width="8" height="8" fill="#ffffff" opacity="0.3" />
  <rect x="100" y="800" width="8" height="8" fill="#00ffaa" opacity="0.4" />
  <rect x="1430" y="800" width="8" height="8" fill="#00ffaa" opacity="0.4" />
  <rect x="1380" y="650" width="8" height="8" fill="#ff44ff" opacity="0.5" />
  <rect x="140" y="550" width="8" height="8" fill="#ff4488" opacity="0.5" />

  
  <rect x="1300" y="640" width="200" height="100" fill="#003300" stroke="#00ff88" stroke-width="4" />
  <text x="1400" y="680" font-family="monospace" font-size="14" fill="#00ff88" text-anchor="middle">SEP 10, 2013</text>
  <text x="1400" y="700" font-family="monospace" font-size="11" fill="#00aa66" text-anchor="middle">ANNOUNCED</text>
  <text x="1400" y="720" font-family="monospace" font-size="11" fill="#00aa66" text-anchor="middle">SEP 20 LAUNCH</text>

  
  
  <text x="768" y="870" font-family="monospace" font-size="72" font-weight="bold" fill="#00ff88" text-anchor="middle" opacity="0.2" filter="url(#glow)">iPHONE 5S &amp; 5C LAUNCH</text>
  
  <text x="770" y="868" font-family="monospace" font-size="68" font-weight="bold" fill="#ffffff" text-anchor="middle" filter="url(#glow)" letter-spacing="2">iPHONE 5S &amp; 5C</text>
  <text x="768" y="868" font-family="monospace" font-size="68" font-weight="bold" fill="#00ff88" text-anchor="middle" letter-spacing="2">iPHONE 5S &amp; 5C</text>
  
  <text x="768" y="930" font-family="monospace" font-size="36" fill="#ffff00" text-anchor="middle" letter-spacing="6">L A U N C H</text>

  
  <rect x="200" y="948" width="1136" height="6" fill="#00ff88" opacity="0.4" />
  <rect x="200" y="956" width="1136" height="3" fill="#00ff88" opacity="0.15" />

  
  <text x="768" y="990" font-family="monospace" font-size="22" fill="#888888" text-anchor="middle" letter-spacing="4">SEPTEMBER 2013  ·  APPLE INC.  ·  A7 · TOUCH ID · 64-BIT</text>

  
  <radialGradient id="vignette" cx="50%" cy="50%" r="80%">
    <stop offset="60%" stop-color="transparent" />
    <stop offset="100%" stop-color="#000000" stop-opacity="0.6" />
  </radialGradient>
  <rect width="1536" height="1024" fill="url(#vignette)" />
</svg>