<svg xmlns="http://www.w3.org/2000/svg" viewBox="0 0 1536 1024" role="img" width="1536" height="1024">
  <title>Nelson Mandela's Death and Historic Legacy – Retro Pixel Art Banner</title>
  <defs>
    <radialGradient id="crt" cx="50%" cy="50%" r="70%">
      <stop offset="0%" stop-color="#1a0a2e" />
      <stop offset="100%" stop-color="#000000" />
    </radialGradient>
    <filter id="glow">
      <feGaussianBlur stdDeviation="3" result="blur" />
      <feMerge><feMergeNode in="blur" /><feMergeNode in="SourceGraphic" /></feMerge>
    </filter>
    <filter id="glowstrong">
      <feGaussianBlur stdDeviation="6" result="blur" />
      <feMerge><feMergeNode in="blur" /><feMergeNode in="SourceGraphic" /></feMerge>
    </filter>
  </defs>

  
  <rect width="1536" height="1024" fill="url(#crt)" />

  
  <rect width="1536" height="1024" fill="none" stroke="#000" stroke-width="0" opacity="0.3" />
  
  <rect x="0" y="0" width="1536" height="2" fill="#000" opacity="0.15" />
  <rect x="0" y="4" width="1536" height="2" fill="#000" opacity="0.15" />
  <rect x="0" y="8" width="1536" height="2" fill="#000" opacity="0.15" />
  <rect x="0" y="12" width="1536" height="2" fill="#000" opacity="0.15" />
  <rect x="0" y="16" width="1536" height="2" fill="#000" opacity="0.15" />
  <rect x="0" y="20" width="1536" height="2" fill="#000" opacity="0.15" />
  <rect x="0" y="24" width="1536" height="2" fill="#000" opacity="0.15" />
  <rect x="0" y="28" width="1536" height="2" fill="#000" opacity="0.15" />
  <rect x="0" y="32" width="1536" height="2" fill="#000" opacity="0.15" />
  <rect x="0" y="36" width="1536" height="2" fill="#000" opacity="0.15" />
  <rect x="0" y="40" width="1536" height="2" fill="#000" opacity="0.15" />
  <rect x="0" y="44" width="1536" height="2" fill="#000" opacity="0.15" />
  <rect x="0" y="48" width="1536" height="2" fill="#000" opacity="0.15" />
  <rect x="0" y="52" width="1536" height="2" fill="#000" opacity="0.15" />
  <rect x="0" y="56" width="1536" height="2" fill="#000" opacity="0.15" />
  <rect x="0" y="60" width="1536" height="2" fill="#000" opacity="0.15" />
  <rect x="0" y="64" width="1536" height="2" fill="#000" opacity="0.15" />
  <rect x="0" y="68" width="1536" height="2" fill="#000" opacity="0.15" />
  <rect x="0" y="72" width="1536" height="2" fill="#000" opacity="0.15" />
  <rect x="0" y="76" width="1536" height="2" fill="#000" opacity="0.15" />
  <rect x="0" y="80" width="1536" height="2" fill="#000" opacity="0.15" />
  <rect x="0" y="84" width="1536" height="2" fill="#000" opacity="0.15" />
  <rect x="0" y="88" width="1536" height="2" fill="#000" opacity="0.15" />
  <rect x="0" y="92" width="1536" height="2" fill="#000" opacity="0.15" />
  <rect x="0" y="96" width="1536" height="2" fill="#000" opacity="0.15" />
  <rect x="0" y="100" width="1536" height="2" fill="#000" opacity="0.15" />

  
  
  <rect x="40" y="80" width="480" height="320" fill="#003DA5" rx="0" />
  
  <rect x="40" y="80" width="480" height="107" fill="#E03C31" />
  
  <rect x="40" y="293" width="480" height="107" fill="#003DA5" />
  
  <rect x="40" y="187" width="480" height="66" fill="#007749" />
  
  <polygon points="40,80 40,400 200,240" fill="#000000" />
  
  <polygon points="40,80 40,400 220,240 200,240" fill="#FFB81C" />
  
  <rect x="40" y="174" width="480" height="13" fill="#FFFFFF" />
  <rect x="40" y="253" width="480" height="13" fill="#FFFFFF" />

  
  <rect x="40" y="80" width="480" height="320" fill="none" stroke="#ffffff" stroke-width="0.5" opacity="0.1" />

  
  <text x="280" y="440" font-family="monospace" font-size="18" fill="#FFB81C" text-anchor="middle" filter="url(#glow)">SOUTH AFRICA</text>

  
  
  
  <rect x="580" y="120" width="80" height="80" fill="#8B4513" rx="0" />
  
  <rect x="580" y="112" width="80" height="16" fill="#888888" />
  <rect x="572" y="120" width="16" height="40" fill="#8B4513" />
  <rect x="652" y="120" width="16" height="40" fill="#8B4513" />
  
  <rect x="596" y="148" width="16" height="16" fill="#000" />
  <rect x="636" y="148" width="16" height="16" fill="#000" />
  
  <rect x="600" y="148" width="4" height="4" fill="#fff" />
  <rect x="640" y="148" width="4" height="4" fill="#fff" />
  
  <rect x="600" y="176" width="8" height="8" fill="#c0392b" />
  <rect x="608" y="184" width="24" height="8" fill="#c0392b" />
  <rect x="632" y="176" width="8" height="8" fill="#c0392b" />

  
  <rect x="604" y="200" width="32" height="24" fill="#8B4513" />

  
  <rect x="548" y="224" width="144" height="160" fill="#e67e22" />
  
  <rect x="548" y="224" width="16" height="16" fill="#27ae60" />
  <rect x="564" y="240" width="16" height="16" fill="#2980b9" />
  <rect x="580" y="224" width="16" height="16" fill="#8e44ad" />
  <rect x="596" y="240" width="16" height="16" fill="#e74c3c" />
  <rect x="612" y="224" width="16" height="16" fill="#f39c12" />
  <rect x="628" y="240" width="16" height="16" fill="#1abc9c" />
  <rect x="644" y="224" width="16" height="16" fill="#e74c3c" />
  <rect x="660" y="240" width="16" height="16" fill="#9b59b6" />
  <rect x="548" y="256" width="16" height="16" fill="#3498db" />
  <rect x="564" y="272" width="16" height="16" fill="#e74c3c" />
  <rect x="580" y="256" width="16" height="16" fill="#f1c40f" />
  <rect x="596" y="272" width="16" height="16" fill="#27ae60" />
  <rect x="612" y="256" width="16" height="16" fill="#e67e22" />
  <rect x="628" y="272" width="16" height="16" fill="#8e44ad" />
  <rect x="644" y="256" width="16" height="16" fill="#27ae60" />
  <rect x="660" y="272" width="16" height="16" fill="#e74c3c" />
  <rect x="548" y="288" width="16" height="16" fill="#f39c12" />
  <rect x="564" y="304" width="16" height="16" fill="#1abc9c" />
  <rect x="580" y="288" width="16" height="16" fill="#3498db" />
  <rect x="596" y="304" width="16" height="16" fill="#e67e22" />
  <rect x="612" y="288" width="16" height="16" fill="#9b59b6" />
  <rect x="628" y="304" width="16" height="16" fill="#f1c40f" />
  <rect x="644" y="288" width="16" height="16" fill="#e74c3c" />
  <rect x="660" y="304" width="16" height="16" fill="#2980b9" />
  <rect x="548" y="320" width="16" height="16" fill="#8e44ad" />
  <rect x="564" y="336" width="16" height="16" fill="#27ae60" />
  <rect x="580" y="320" width="16" height="16" fill="#e74c3c" />
  <rect x="596" y="336" width="16" height="16" fill="#3498db" />
  <rect x="612" y="320" width="16" height="16" fill="#f1c40f" />
  <rect x="628" y="336" width="16" height="16" fill="#e67e22" />
  <rect x="644" y="320" width="16" height="16" fill="#1abc9c" />
  <rect x="660" y="336" width="16" height="16" fill="#9b59b6" />
  <rect x="548" y="352" width="16" height="16" fill="#3498db" />
  <rect x="564" y="368" width="16" height="16" fill="#f39c12" />
  <rect x="580" y="352" width="16" height="16" fill="#27ae60" />
  <rect x="596" y="368" width="16" height="16" fill="#e74c3c" />
  <rect x="612" y="352" width="16" height="16" fill="#8e44ad" />
  <rect x="628" y="368" width="16" height="16" fill="#2980b9" />
  <rect x="644" y="352" width="16" height="16" fill="#f1c40f" />
  <rect x="660" y="368" width="16" height="16" fill="#27ae60" />

  
  <rect x="492" y="240" width="56" height="16" fill="#e67e22" />
  <rect x="480" y="224" width="16" height="32" fill="#8B4513" />
  <rect x="692" y="240" width="56" height="16" fill="#e67e22" />
  <rect x="744" y="224" width="16" height="32" fill="#8B4513" />

  
  <rect x="564" y="384" width="48" height="80" fill="#2c3e50" />
  <rect x="628" y="384" width="48" height="80" fill="#2c3e50" />
  
  <rect x="556" y="456" width="64" height="16" fill="#000" />
  <rect x="620" y="456" width="64" height="16" fill="#000" />

  
  <text x="620" y="500" font-family="monospace" font-size="16" fill="#FFB81C" text-anchor="middle" filter="url(#glow)">MADIBA</text>
  <text x="620" y="520" font-family="monospace" font-size="12" fill="#aaa" text-anchor="middle">1918 – 2013</text>

  
  <rect x="800" y="200" width="64" height="16" fill="#8B4513" />
  <rect x="800" y="184" width="64" height="16" fill="#8B4513" />
  <rect x="800" y="168" width="64" height="16" fill="#8B4513" />
  <rect x="800" y="152" width="64" height="16" fill="#8B4513" />
  <rect x="800" y="136" width="64" height="16" fill="#8B4513" />
  
  <rect x="784" y="168" width="16" height="32" fill="#8B4513" />
  
  <rect x="800" y="216" width="64" height="16" fill="#6B3410" />
  
  <rect x="808" y="232" width="48" height="32" fill="#8B4513" />
  
  <rect x="796" y="132" width="72" height="100" fill="none" stroke="#FFB81C" stroke-width="3" opacity="0.6" filter="url(#glow)" />

  <text x="832" y="290" font-family="monospace" font-size="14" fill="#FFB81C" text-anchor="middle" filter="url(#glow)">AMANDLA!</text>

  
  <rect x="920" y="300" width="200" height="120" fill="#1a6b3c" />
  <rect x="920" y="380" width="200" height="40" fill="#2980b9" />
  
  <rect x="960" y="320" width="48" height="48" fill="#4a4a4a" />
  <rect x="968" y="328" width="12" height="32" fill="#888" />
  <rect x="988" y="328" width="12" height="32" fill="#888" />
  <rect x="968" y="344" width="32" height="8" fill="#888" />
  
  <rect x="970" y="328" width="2" height="32" fill="#333" />
  <rect x="978" y="328" width="2" height="32" fill="#333" />
  <rect x="986" y="328" width="2" height="32" fill="#333" />
  <rect x="994" y="328" width="2" height="32" fill="#333" />
  
  <rect x="920" y="380" width="200" height="8" fill="#3498db" />
  <rect x="928" y="392" width="16" height="8" fill="#3498db" />
  <rect x="952" y="392" width="16" height="8" fill="#3498db" />
  <rect x="976" y="392" width="16" height="8" fill="#3498db" />
  <rect x="1000" y="392" width="16" height="8" fill="#3498db" />
  <rect x="1024" y="392" width="16" height="8" fill="#3498db" />
  <rect x="1048" y="392" width="16" height="8" fill="#3498db" />
  <rect x="1072" y="392" width="16" height="8" fill="#3498db" />
  <rect x="920" y="404" width="200" height="16" fill="#2471a3" />
  <text x="1020" y="445" font-family="monospace" font-size="12" fill="#aaffaa" text-anchor="middle">ROBBEN ISLAND</text>

  
  <rect x="120" y="480" width="8" height="8" fill="#FFB81C" opacity="0.8" />
  <rect x="200" y="520" width="8" height="8" fill="#fff" opacity="0.6" />
  <rect x="350" y="490" width="8" height="8" fill="#e74c3c" opacity="0.7" />
  <rect x="450" y="510" width="8" height="8" fill="#3498db" opacity="0.6" />
  <rect x="1100" y="150" width="8" height="8" fill="#FFB81C" opacity="0.8" />
  <rect x="1200" y="200" width="8" height="8" fill="#fff" opacity="0.6" />
  <rect x="1300" y="160" width="8" height="8" fill="#e74c3c" opacity="0.7" />
  <rect x="1400" y="190" width="8" height="8" fill="#27ae60" opacity="0.7" />
  <rect x="1450" y="120" width="8" height="8" fill="#3498db" opacity="0.6" />

  
  <rect x="1180" y="280" width="120" height="120" rx="0" fill="none" />
  
  <rect x="1192" y="280" width="96" height="8" fill="#FFB81C" />
  <rect x="1184" y="288" width="112" height="8" fill="#FFB81C" />
  <rect x="1176" y="296" width="128" height="8" fill="#FFB81C" />
  <rect x="1176" y="304" width="128" height="8" fill="#FFB81C" />
  <rect x="1176" y="312" width="128" height="8" fill="#FFB81C" />
  <rect x="1176" y="320" width="128" height="8" fill="#FFB81C" />
  <rect x="1176" y="328" width="128" height="8" fill="#FFB81C" />
  <rect x="1176" y="336" width="128" height="8" fill="#FFB81C" />
  <rect x="1176" y="344" width="128" height="8" fill="#FFB81C" />
  <rect x="1176" y="352" width="128" height="8" fill="#FFB81C" />
  <rect x="1176" y="360" width="128" height="8" fill="#FFB81C" />
  <rect x="1184" y="368" width="112" height="8" fill="#FFB81C" />
  <rect x="1192" y="376" width="96" height="8" fill="#FFB81C" />
  
  <rect x="1208" y="296" width="64" height="8" fill="#b8860b" />
  <rect x="1200" y="304" width="80" height="64" fill="#b8860b" />
  <rect x="1208" y="368" width="64" height="8" fill="#b8860b" />
  
  <rect x="1216" y="320" width="8" height="8" fill="#fff" />
  <rect x="1224" y="312" width="8" height="8" fill="#fff" />
  <rect x="1232" y="308" width="16" height="8" fill="#fff" />
  <rect x="1216" y="328" width="48" height="8" fill="#fff" />
  <rect x="1216" y="336" width="8" height="8" fill="#fff" />
  <rect x="1248" y="316" width="8" height="8" fill="#fff" />
  
  <rect x="1228" y="336" width="24" height="4" fill="#27ae60" />
  
  <rect x="1224" y="264" width="32" height="16" fill="#003DA5" />
  <rect x="1224" y="256" width="16" height="8" fill="#E03C31" />
  <rect x="1240" y="256" width="16" height="8" fill="#007749" />

  <text x="1240" y="410" font-family="monospace" font-size="13" fill="#FFB81C" text-anchor="middle" filter="url(#glow)">NOBEL PEACE</text>
  <text x="1240" y="428" font-family="monospace" font-size="13" fill="#FFB81C" text-anchor="middle" filter="url(#glow)">PRIZE 1993</text>

  
  <rect x="1340" y="200" width="8" height="240" fill="#aaa" />
  <rect x="1348" y="220" width="80" height="8" fill="#E03C31" />
  <rect x="1348" y="228" width="80" height="8" fill="#E03C31" />
  <rect x="1348" y="236" width="80" height="8" fill="#fff" />
  <rect x="1348" y="244" width="80" height="8" fill="#007749" />
  <rect x="1348" y="252" width="80" height="8" fill="#007749" />
  
  <rect x="1330" y="216" width="28" height="4" fill="#FFB81C" />
  <text x="1380" y="280" font-family="monospace" font-size="11" fill="#aaa" text-anchor="middle">HALF-MAST</text>
  <text x="1380" y="295" font-family="monospace" font-size="11" fill="#aaa" text-anchor="middle">DEC 5 2013</text>

  
  <rect x="100" y="580" width="24" height="80" fill="#f5f5dc" />
  <rect x="108" y="572" width="8" height="16" fill="#FFB81C" filter="url(#glow)" />
  <rect x="106" y="568" width="12" height="8" fill="#ff8c00" filter="url(#glow)" />
  <rect x="108" y="560" width="8" height="12" fill="#ffff00" opacity="0.9" filter="url(#glow)" />

  <rect x="160" y="600" width="24" height="60" fill="#f5f5dc" />
  <rect x="168" y="592" width="8" height="16" fill="#FFB81C" filter="url(#glow)" />
  <rect x="166" y="588" width="12" height="8" fill="#ff8c00" filter="url(#glow)" />
  <rect x="168" y="580" width="8" height="12" fill="#ffff00" opacity="0.9" filter="url(#glow)" />

  <rect x="220" y="590" width="24" height="70" fill="#f5f5dc" />
  <rect x="228" y="582" width="8" height="16" fill="#FFB81C" filter="url(#glow)" />
  <rect x="226" y="578" width="12" height="8" fill="#ff8c00" filter="url(#glow)" />
  <rect x="228" y="570" width="8" height="12" fill="#ffff00" opacity="0.9" filter="url(#glow)" />

  
  <rect x="60" y="660" width="220" height="8" fill="#555" />

  <text x="150" y="690" font-family="monospace" font-size="13" fill="#aaa" text-anchor="middle">IN MEMORIAM</text>

  
  <rect x="800" y="520" width="700" height="200" fill="#1a4d1a" />
  <rect x="800" y="520" width="200" height="100" fill="#27ae60" />
  <rect x="950" y="500" width="250" height="120" fill="#27ae60" />
  <rect x="1150" y="510" width="200" height="110" fill="#1e8449" />
  <rect x="1300" y="520" width="200" height="100" fill="#27ae60" />
  
  <rect x="800" y="580" width="700" height="140" fill="#0d3b0d" />
  
  <rect x="800" y="680" width="700" height="40" fill="#8B4513" />
  <rect x="800" y="700" width="700" height="20" fill="#6B3410" />

  
  <rect x="950" y="610" width="80" height="60" fill="#c19a6b" />
  
  <polygon points="940,610 1040,610 990,560" fill="#8B6914" />
  <rect x="970" y="638" width="24" height="32" fill="#4a3520" />
  
  <rect x="1080" y="620" width="64" height="50" fill="#c19a6b" />
  <polygon points="1072,620 1152,620 1112,575" fill="#8B6914" />
  <rect x="1096" y="645" width="20" height="25" fill="#4a3520" />

  <text x="1000" y="740" font-family="monospace" font-size="13" fill="#aaffaa" text-anchor="middle" filter="url(#glow)">QUNU, EASTERN CAPE</text>

  
  <rect x="40" y="800" width="1456" height="180" fill="#000" opacity="0.7" />

  
  <rect x="40" y="800" width="1456" height="4" fill="#FFB81C" />
  <rect x="40" y="976" width="1456" height="4" fill="#FFB81C" />
  <rect x="40" y="800" width="4" height="180" fill="#FFB81C" />
  <rect x="1492" y="800" width="4" height="180" fill="#FFB81C" />

  
  <rect x="44" y="804" width="16" height="16" fill="#FFB81C" />
  <rect x="60" y="804" width="16" height="16" fill="#E03C31" />
  <rect x="44" y="820" width="16" height="16" fill="#007749" />
  <rect x="1476" y="804" width="16" height="16" fill="#FFB81C" />
  <rect x="1460" y="804" width="16" height="16" fill="#E03C31" />
  <rect x="1476" y="820" width="16" height="16" fill="#007749" />
  <rect x="44" y="956" width="16" height="16" fill="#003DA5" />
  <rect x="1476" y="956" width="16" height="16" fill="#003DA5" />

  
  <text x="768" y="876" font-family="monospace" font-size="64" font-weight="bold" fill="#FFB81C" text-anchor="middle" filter="url(#glowstrong)" letter-spacing="2">NELSON MANDELA</text>
  <text x="768" y="950" font-family="monospace" font-size="36" font-weight="bold" fill="#ffffff" text-anchor="middle" filter="url(#glow)" letter-spacing="4">DEATH AND HISTORIC LEGACY</text>

  
  <rect x="760" y="80" width="8" height="8" fill="#FFB81C" opacity="0.9" />
  <rect x="776" y="88" width="8" height="8" fill="#E03C31" opacity="0.9" />
  <rect x="768" y="96" width="8" height="8" fill="#007749" opacity="0.9" />

  
  <rect x="1150" y="60" width="340" height="56" fill="#111" opacity="0.8" />
  <rect x="1150" y="60" width="340" height="4" fill="#E03C31" />
  <rect x="1150" y="112" width="340" height="4" fill="#E03C31" />
  <text x="1320" y="97" font-family="monospace" font-size="28" fill="#fff" text-anchor="middle" filter="url(#glow)">► DEC 5, 2013 ◄</text>

  
  <rect x="320" y="540" width="200" height="80" fill="#111" opacity="0.85" />
  <rect x="320" y="540" width="200" height="4" fill="#27ae60" />
  <rect x="320" y="616" width="200" height="4" fill="#27ae60" />
  <text x="420" y="572" font-family="monospace" font-size="14" fill="#27ae60" text-anchor="middle" filter="url(#glow)">IMPRISONED</text>
  <text x="420" y="600" font-family="monospace" font-size="28" fill="#27ae60" text-anchor="middle" filter="url(#glowstrong)">27 YEARS</text>

  
  <rect x="560" y="540" width="160" height="80" fill="#111" opacity="0.85" />
  <rect x="560" y="540" width="160" height="4" fill="#3498db" />
  <rect x="560" y="616" width="160" height="4" fill="#3498db" />
  <text x="640" y="572" font-family="monospace" font-size="14" fill="#3498db" text-anchor="middle" filter="url(#glow)">AGE</text>
  <text x="640" y="600" font-family="monospace" font-size="28" fill="#3498db" text-anchor="middle" filter="url(#glowstrong)">95 YRS</text>

  
  <rect x="750" y="540" width="240" height="80" fill="#111" opacity="0.85" />
  <rect x="750" y="540" width="240" height="4" fill="#9b59b6" />
  <rect x="750" y="616" width="240" height="4" fill="#9b59b6" />
  <text x="870" y="572" font-family="monospace" font-size="12" fill="#9b59b6" text-anchor="middle" filter="url(#glow)">WORLD LEADERS</text>
  <text x="870" y="600" font-family="monospace" font-size="28" fill="#9b59b6" text-anchor="middle" filter="url(#glowstrong)">90+ ATTEND</text>

  
  
  <rect x="40" y="756" width="12" height="12" fill="#555" />
  <rect x="56" y="756" width="12" height="12" fill="#666" />
  <rect x="72" y="756" width="12" height="12" fill="#555" />
  <rect x="88" y="756" width="12" height="12" fill="#666" />
  <rect x="104" y="756" width="12" height="12" fill="#555" />
  <rect x="120" y="756" width="12" height="12" fill="#666" />
  <rect x="136" y="756" width="12" height="12" fill="#555" />
  <rect x="152" y="756" width="12" height="12" fill="#666" />
  <rect x="168" y="756" width="12" height="12" fill="#555" />
  <rect x="184" y="756" width="12" height="12" fill="#666" />
  <rect x="200" y="756" width="12" height="12" fill="#555" />
  <rect x="216" y="756" width="12" height="12" fill="#666" />
  <rect x="232" y="756" width="12" height="12" fill="#555" />
  <rect x="248" y="756" width="12" height="12" fill="#666" />
  <rect x="264" y="756" width="12" height="12" fill="#555" />
  <rect x="280" y="756" width="12" height="12" fill="#666" />
  <rect x="296" y="756" width="12" height="12" fill="#555" />
  <rect x="312" y="756" width="12" height="12" fill="#FFB81C" />
  <rect x="328" y="756" width="12" height="12" fill="#E03C31" />
  <rect x="344" y="756" width="12" height="12" fill="#555" />
  <rect x="360" y="756" width="12" height="12" fill="#007749" />
  <rect x="376" y="756" width="12" height="12" fill="#666" />
  <rect x="392" y="756" width="12" height="12" fill="#555" />
  <rect x="408" y="756" width="12" height="12" fill="#666" />
  <rect x="424" y="756" width="12" height="12" fill="#003DA5" />
  <rect x="440" y="756" width="12" height="12" fill="#555" />
  <rect x="456" y="756" width="12" height="12" fill="#666" />
  <rect x="472" y="756" width="12" height="12" fill="#555" />
  <rect x="488" y="756" width="12" height="12" fill="#FFB81C" />
  <rect x="504" y="756" width="12" height="12" fill="#666" />
  <rect x="520" y="756" width="12" height="12" fill="#E03C31" />
  <rect x="536" y="756" width="12" height="12" fill="#555" />
  <rect x="552" y="756" width="12" height="12" fill="#666" />
  <rect x="568" y="756" width="12" height="12" fill="#555" />
  <rect x="584" y="756" width="12" height="12" fill="#666" />
  <rect x="600" y="756" width="12" height="12" fill="#007749" />
  <rect x="616" y="756" width="12" height="12" fill="#666" />
  <rect x="632" y="756" width="12" height="12" fill="#555" />
  <rect x="648" y="756" width="12" height="12" fill="#666" />
  <rect x="664" y="756" width="12" height="12" fill="#555" />
  <rect x="680" y="756" width="12" height="12" fill="#FFB81C" />
  <rect x="696" y="756" width="12" height="12" fill="#666" />
  <rect x="712" y="756" width="12" height="12" fill="#555" />
  <rect x="728" y="756" width="12" height="12" fill="#E03C31" />
  <rect x="744" y="756" width="12" height="12" fill="#555" />
  <rect x="760" y="756" width="12" height="12" fill="#666" />
  <rect x="776" y="756" width="12" height="12" fill="#555" />
  <rect x="792" y="756" width="12" height="12" fill="#003DA5" />
  <rect x="808" y="756" width="12" height="12" fill="#555" />
  <rect x="824" y="756" width="12" height="12" fill="#666" />
  <rect x="840" y="756" width="12" height="12" fill="#007749" />
  <rect x="856" y="756" width="12" height="12" fill="#555" />
  <rect x="872" y="756" width="12" height="12" fill="#FFB81C" />
  <rect x="888" y="756" width="12" height="12" fill="#666" />
  <rect x="904" y="756" width="12" height="12" fill="#555" />
  <rect x="920" y="756" width="12" height="12" fill="#E03C31" />
  <rect x="936" y="756" width="12" height="12" fill="#555" />
  <rect x="952" y="756" width="12" height="12" fill="#666" />
  <rect x="968" y="756" width="12" height="12" fill="#555" />
  <rect x="984" y="756" width="12" height="12" fill="#666" />
  <rect x="1000" y="756" width="12" height="12" fill="#555" />
  <rect x="1016" y="756" width="12" height="12" fill="#FFB81C" />
  <rect x="1032" y="756" width="12" height="12" fill="#555" />
  <rect x="1048" y="756" width="12" height="12" fill="#007749" />
  <rect x="1064" y="756" width="12" height="12" fill="#555" />
  <rect x="1080" y="756" width="12" height="12" fill="#666" />
  <rect x="1096" y="756" width="12" height="12" fill="#E03C31" />
  <rect x="1112" y="756" width="12" height="12" fill="#555" />
  <rect x="1128" y="756" width="12" height="12" fill="#666" />
  <rect x="1144" y="756" width="12" height="12" fill="#555" />
  <rect x="1160" y="756" width="12" height="12" fill="#003DA5" />
  <rect x="1176" y="756" width="12" height="12" fill="#555" />
  <rect x="1192" y="756" width="12" height="12" fill="#FFB81C" />
  <rect x="1208" y="756" width="12" height="12" fill="#666" />
  <rect x="1224" y="756" width="12" height="12" fill="#555" />
  <rect x="1240" y="756" width="12" height="12" fill="#007749" />
  <rect x="1256" y="756" width="12" height="12" fill="#555" />
  <rect x="1272" y="756" width="12" height="12" fill="#E03C31" />
  <rect x="1288" y="756" width="12" height="12" fill="#555" />
  <rect x="1304" y="756" width="12" height="12" fill="#666" />
  <rect x="1320" y="756" width="12" height="12" fill="#555" />
  <rect x="1336" y="756" width="12" height="12" fill="#FFB81C" />
  <rect x="1352" y="756" width="12" height="12" fill="#666" />
  <rect x="1368" y="756" width="12" height="12" fill="#555" />
  <rect x="1384" y="756" width="12" height="12" fill="#003DA5" />
  <rect x="1400" y="756" width="12" height="12" fill="#555" />
  <rect x="1416" y="756" width="12" height="12" fill="#666" />
  <rect x="1432" y="756" width="12" height="12" fill="#555" />
  <rect x="1448" y="756" width="12" height="12" fill="#007749" />
  <rect x="1464" y="756" width="12" height="12" fill="#555" />
  <rect x="1480" y="756" width="12" height="12" fill="#E03C31" />

  
  <text x="768" y="775" font-family="monospace" font-size="11" fill="#888" text-anchor="middle">▲ FNB STADIUM — 100,000 MOURNERS — DEC 10, 2013 ▲</text>

</svg>