<svg xmlns="http://www.w3.org/2000/svg" viewBox="0 0 1536 1024" role="img" shape-rendering="crispEdges" width="1536" height="1024">
  <title>News 2013 — Retro Pixel Newsroom</title>
  <defs>
    <radialGradient id="crt" cx="50%" cy="50%" r="70%">
      <stop offset="0%" stop-color="#1a0a2e" />
      <stop offset="100%" stop-color="#000008" />
    </radialGradient>
    <filter id="glow">
      <feGaussianBlur stdDeviation="3" result="blur" />
      <feMerge><feMergeNode in="blur" /><feMergeNode in="SourceGraphic" /></feMerge>
    </filter>
  </defs>

  
  <rect width="1536" height="1024" fill="url(#crt)" />

  
  <rect width="1536" height="1024" fill="none" stroke="#00ff4422" stroke-width="2" opacity="0.15" />

  
  <g opacity="0.08">
    <rect y="0" width="1536" height="2" fill="#88ffff" />
    <rect y="4" width="1536" height="2" fill="#88ffff" />
    <rect y="8" width="1536" height="2" fill="#88ffff" />
    <rect y="12" width="1536" height="2" fill="#88ffff" />
    <rect y="16" width="1536" height="2" fill="#88ffff" />
    <rect y="20" width="1536" height="2" fill="#88ffff" />
    <rect y="24" width="1536" height="2" fill="#88ffff" />
    <rect y="28" width="1536" height="2" fill="#88ffff" />
    <rect y="32" width="1536" height="2" fill="#88ffff" />
    <rect y="36" width="1536" height="2" fill="#88ffff" />
    <rect y="40" width="1536" height="2" fill="#88ffff" />
    <rect y="44" width="1536" height="2" fill="#88ffff" />
    <rect y="48" width="1536" height="2" fill="#88ffff" />
    <rect y="52" width="1536" height="2" fill="#88ffff" />
    <rect y="56" width="1536" height="2" fill="#88ffff" />
    <rect y="60" width="1536" height="2" fill="#88ffff" />
    <rect y="64" width="1536" height="2" fill="#88ffff" />
    <rect y="68" width="1536" height="2" fill="#88ffff" />
    <rect y="72" width="1536" height="2" fill="#88ffff" />
    <rect y="76" width="1536" height="2" fill="#88ffff" />
    <rect y="80" width="1536" height="2" fill="#88ffff" />
    <rect y="84" width="1536" height="2" fill="#88ffff" />
    <rect y="88" width="1536" height="2" fill="#88ffff" />
    <rect y="92" width="1536" height="2" fill="#88ffff" />
    <rect y="96" width="1536" height="2" fill="#88ffff" />
    <rect y="100" width="1536" height="2" fill="#88ffff" />
    <rect y="104" width="1536" height="2" fill="#88ffff" />
    <rect y="108" width="1536" height="2" fill="#88ffff" />
    <rect y="112" width="1536" height="2" fill="#88ffff" />
    <rect y="116" width="1536" height="2" fill="#88ffff" />
    <rect y="120" width="1536" height="2" fill="#88ffff" />
    <rect y="124" width="1536" height="2" fill="#88ffff" />
    <rect y="128" width="1536" height="2" fill="#88ffff" />
    <rect y="132" width="1536" height="2" fill="#88ffff" />
    <rect y="136" width="1536" height="2" fill="#88ffff" />
    <rect y="140" width="1536" height="2" fill="#88ffff" />
    <rect y="144" width="1536" height="2" fill="#88ffff" />
    <rect y="148" width="1536" height="2" fill="#88ffff" />
    <rect y="152" width="1536" height="2" fill="#88ffff" />
    <rect y="156" width="1536" height="2" fill="#88ffff" />
    <rect y="160" width="1536" height="2" fill="#88ffff" />
    <rect y="164" width="1536" height="2" fill="#88ffff" />
    <rect y="168" width="1536" height="2" fill="#88ffff" />
    <rect y="172" width="1536" height="2" fill="#88ffff" />
    <rect y="176" width="1536" height="2" fill="#88ffff" />
    <rect y="180" width="1536" height="2" fill="#88ffff" />
    <rect y="184" width="1536" height="2" fill="#88ffff" />
    <rect y="188" width="1536" height="2" fill="#88ffff" />
    <rect y="192" width="1536" height="2" fill="#88ffff" />
    <rect y="196" width="1536" height="2" fill="#88ffff" />
    <rect y="200" width="1536" height="2" fill="#88ffff" />
    <rect y="204" width="1536" height="2" fill="#88ffff" />
    <rect y="208" width="1536" height="2" fill="#88ffff" />
    <rect y="212" width="1536" height="2" fill="#88ffff" />
    <rect y="216" width="1536" height="2" fill="#88ffff" />
    <rect y="220" width="1536" height="2" fill="#88ffff" />
    <rect y="224" width="1536" height="2" fill="#88ffff" />
    <rect y="228" width="1536" height="2" fill="#88ffff" />
    <rect y="232" width="1536" height="2" fill="#88ffff" />
    <rect y="236" width="1536" height="2" fill="#88ffff" />
    <rect y="240" width="1536" height="2" fill="#88ffff" />
    <rect y="244" width="1536" height="2" fill="#88ffff" />
    <rect y="248" width="1536" height="2" fill="#88ffff" />
    <rect y="252" width="1536" height="2" fill="#88ffff" />
    <rect y="256" width="1536" height="2" fill="#88ffff" />
    <rect y="260" width="1536" height="2" fill="#88ffff" />
    <rect y="264" width="1536" height="2" fill="#88ffff" />
    <rect y="268" width="1536" height="2" fill="#88ffff" />
    <rect y="272" width="1536" height="2" fill="#88ffff" />
    <rect y="276" width="1536" height="2" fill="#88ffff" />
    <rect y="280" width="1536" height="2" fill="#88ffff" />
    <rect y="284" width="1536" height="2" fill="#88ffff" />
    <rect y="288" width="1536" height="2" fill="#88ffff" />
    <rect y="292" width="1536" height="2" fill="#88ffff" />
    <rect y="296" width="1536" height="2" fill="#88ffff" />
    <rect y="300" width="1536" height="2" fill="#88ffff" />
    <rect y="304" width="1536" height="2" fill="#88ffff" />
    <rect y="308" width="1536" height="2" fill="#88ffff" />
    <rect y="312" width="1536" height="2" fill="#88ffff" />
    <rect y="316" width="1536" height="2" fill="#88ffff" />
    <rect y="320" width="1536" height="2" fill="#88ffff" />
    <rect y="324" width="1536" height="2" fill="#88ffff" />
    <rect y="328" width="1536" height="2" fill="#88ffff" />
    <rect y="332" width="1536" height="2" fill="#88ffff" />
    <rect y="336" width="1536" height="2" fill="#88ffff" />
    <rect y="340" width="1536" height="2" fill="#88ffff" />
    <rect y="344" width="1536" height="2" fill="#88ffff" />
    <rect y="348" width="1536" height="2" fill="#88ffff" />
    <rect y="352" width="1536" height="2" fill="#88ffff" />
    <rect y="356" width="1536" height="2" fill="#88ffff" />
    <rect y="360" width="1536" height="2" fill="#88ffff" />
    <rect y="364" width="1536" height="2" fill="#88ffff" />
    <rect y="368" width="1536" height="2" fill="#88ffff" />
    <rect y="372" width="1536" height="2" fill="#88ffff" />
    <rect y="376" width="1536" height="2" fill="#88ffff" />
    <rect y="380" width="1536" height="2" fill="#88ffff" />
    <rect y="384" width="1536" height="2" fill="#88ffff" />
    <rect y="388" width="1536" height="2" fill="#88ffff" />
    <rect y="392" width="1536" height="2" fill="#88ffff" />
    <rect y="396" width="1536" height="2" fill="#88ffff" />
    <rect y="400" width="1536" height="2" fill="#88ffff" />
    <rect y="404" width="1536" height="2" fill="#88ffff" />
    <rect y="408" width="1536" height="2" fill="#88ffff" />
    <rect y="412" width="1536" height="2" fill="#88ffff" />
    <rect y="416" width="1536" height="2" fill="#88ffff" />
    <rect y="420" width="1536" height="2" fill="#88ffff" />
    <rect y="424" width="1536" height="2" fill="#88ffff" />
    <rect y="428" width="1536" height="2" fill="#88ffff" />
    <rect y="432" width="1536" height="2" fill="#88ffff" />
    <rect y="436" width="1536" height="2" fill="#88ffff" />
    <rect y="440" width="1536" height="2" fill="#88ffff" />
    <rect y="444" width="1536" height="2" fill="#88ffff" />
    <rect y="448" width="1536" height="2" fill="#88ffff" />
    <rect y="452" width="1536" height="2" fill="#88ffff" />
    <rect y="456" width="1536" height="2" fill="#88ffff" />
    <rect y="460" width="1536" height="2" fill="#88ffff" />
    <rect y="464" width="1536" height="2" fill="#88ffff" />
    <rect y="468" width="1536" height="2" fill="#88ffff" />
    <rect y="472" width="1536" height="2" fill="#88ffff" />
    <rect y="476" width="1536" height="2" fill="#88ffff" />
    <rect y="480" width="1536" height="2" fill="#88ffff" />
    <rect y="484" width="1536" height="2" fill="#88ffff" />
    <rect y="488" width="1536" height="2" fill="#88ffff" />
    <rect y="492" width="1536" height="2" fill="#88ffff" />
    <rect y="496" width="1536" height="2" fill="#88ffff" />
    <rect y="500" width="1536" height="2" fill="#88ffff" />
    <rect y="504" width="1536" height="2" fill="#88ffff" />
    <rect y="508" width="1536" height="2" fill="#88ffff" />
    <rect y="512" width="1536" height="2" fill="#88ffff" />
    <rect y="516" width="1536" height="2" fill="#88ffff" />
    <rect y="520" width="1536" height="2" fill="#88ffff" />
    <rect y="524" width="1536" height="2" fill="#88ffff" />
    <rect y="528" width="1536" height="2" fill="#88ffff" />
    <rect y="532" width="1536" height="2" fill="#88ffff" />
    <rect y="536" width="1536" height="2" fill="#88ffff" />
    <rect y="540" width="1536" height="2" fill="#88ffff" />
    <rect y="544" width="1536" height="2" fill="#88ffff" />
    <rect y="548" width="1536" height="2" fill="#88ffff" />
    <rect y="552" width="1536" height="2" fill="#88ffff" />
    <rect y="556" width="1536" height="2" fill="#88ffff" />
    <rect y="560" width="1536" height="2" fill="#88ffff" />
    <rect y="564" width="1536" height="2" fill="#88ffff" />
    <rect y="568" width="1536" height="2" fill="#88ffff" />
    <rect y="572" width="1536" height="2" fill="#88ffff" />
    <rect y="576" width="1536" height="2" fill="#88ffff" />
    <rect y="580" width="1536" height="2" fill="#88ffff" />
    <rect y="584" width="1536" height="2" fill="#88ffff" />
    <rect y="588" width="1536" height="2" fill="#88ffff" />
    <rect y="592" width="1536" height="2" fill="#88ffff" />
    <rect y="596" width="1536" height="2" fill="#88ffff" />
    <rect y="600" width="1536" height="2" fill="#88ffff" />
    <rect y="604" width="1536" height="2" fill="#88ffff" />
    <rect y="608" width="1536" height="2" fill="#88ffff" />
    <rect y="612" width="1536" height="2" fill="#88ffff" />
    <rect y="616" width="1536" height="2" fill="#88ffff" />
    <rect y="620" width="1536" height="2" fill="#88ffff" />
    <rect y="624" width="1536" height="2" fill="#88ffff" />
    <rect y="628" width="1536" height="2" fill="#88ffff" />
    <rect y="632" width="1536" height="2" fill="#88ffff" />
    <rect y="636" width="1536" height="2" fill="#88ffff" />
    <rect y="640" width="1536" height="2" fill="#88ffff" />
    <rect y="644" width="1536" height="2" fill="#88ffff" />
    <rect y="648" width="1536" height="2" fill="#88ffff" />
    <rect y="652" width="1536" height="2" fill="#88ffff" />
    <rect y="656" width="1536" height="2" fill="#88ffff" />
    <rect y="660" width="1536" height="2" fill="#88ffff" />
    <rect y="664" width="1536" height="2" fill="#88ffff" />
    <rect y="668" width="1536" height="2" fill="#88ffff" />
    <rect y="672" width="1536" height="2" fill="#88ffff" />
    <rect y="676" width="1536" height="2" fill="#88ffff" />
    <rect y="680" width="1536" height="2" fill="#88ffff" />
    <rect y="684" width="1536" height="2" fill="#88ffff" />
    <rect y="688" width="1536" height="2" fill="#88ffff" />
    <rect y="692" width="1536" height="2" fill="#88ffff" />
    <rect y="696" width="1536" height="2" fill="#88ffff" />
    <rect y="700" width="1536" height="2" fill="#88ffff" />
    <rect y="704" width="1536" height="2" fill="#88ffff" />
    <rect y="708" width="1536" height="2" fill="#88ffff" />
    <rect y="712" width="1536" height="2" fill="#88ffff" />
    <rect y="716" width="1536" height="2" fill="#88ffff" />
    <rect y="720" width="1536" height="2" fill="#88ffff" />
    <rect y="724" width="1536" height="2" fill="#88ffff" />
    <rect y="728" width="1536" height="2" fill="#88ffff" />
    <rect y="732" width="1536" height="2" fill="#88ffff" />
    <rect y="736" width="1536" height="2" fill="#88ffff" />
    <rect y="740" width="1536" height="2" fill="#88ffff" />
    <rect y="744" width="1536" height="2" fill="#88ffff" />
    <rect y="748" width="1536" height="2" fill="#88ffff" />
    <rect y="752" width="1536" height="2" fill="#88ffff" />
    <rect y="756" width="1536" height="2" fill="#88ffff" />
    <rect y="760" width="1536" height="2" fill="#88ffff" />
    <rect y="764" width="1536" height="2" fill="#88ffff" />
    <rect y="768" width="1536" height="2" fill="#88ffff" />
    <rect y="772" width="1536" height="2" fill="#88ffff" />
    <rect y="776" width="1536" height="2" fill="#88ffff" />
    <rect y="780" width="1536" height="2" fill="#88ffff" />
    <rect y="784" width="1536" height="2" fill="#88ffff" />
    <rect y="788" width="1536" height="2" fill="#88ffff" />
    <rect y="792" width="1536" height="2" fill="#88ffff" />
    <rect y="796" width="1536" height="2" fill="#88ffff" />
    <rect y="800" width="1536" height="2" fill="#88ffff" />
    <rect y="804" width="1536" height="2" fill="#88ffff" />
    <rect y="808" width="1536" height="2" fill="#88ffff" />
    <rect y="812" width="1536" height="2" fill="#88ffff" />
    <rect y="816" width="1536" height="2" fill="#88ffff" />
    <rect y="820" width="1536" height="2" fill="#88ffff" />
    <rect y="824" width="1536" height="2" fill="#88ffff" />
    <rect y="828" width="1536" height="2" fill="#88ffff" />
    <rect y="832" width="1536" height="2" fill="#88ffff" />
    <rect y="836" width="1536" height="2" fill="#88ffff" />
    <rect y="840" width="1536" height="2" fill="#88ffff" />
    <rect y="844" width="1536" height="2" fill="#88ffff" />
    <rect y="848" width="1536" height="2" fill="#88ffff" />
    <rect y="852" width="1536" height="2" fill="#88ffff" />
    <rect y="856" width="1536" height="2" fill="#88ffff" />
    <rect y="860" width="1536" height="2" fill="#88ffff" />
    <rect y="864" width="1536" height="2" fill="#88ffff" />
    <rect y="868" width="1536" height="2" fill="#88ffff" />
    <rect y="872" width="1536" height="2" fill="#88ffff" />
    <rect y="876" width="1536" height="2" fill="#88ffff" />
    <rect y="880" width="1536" height="2" fill="#88ffff" />
    <rect y="884" width="1536" height="2" fill="#88ffff" />
    <rect y="888" width="1536" height="2" fill="#88ffff" />
    <rect y="892" width="1536" height="2" fill="#88ffff" />
    <rect y="896" width="1536" height="2" fill="#88ffff" />
    <rect y="900" width="1536" height="2" fill="#88ffff" />
    <rect y="904" width="1536" height="2" fill="#88ffff" />
    <rect y="908" width="1536" height="2" fill="#88ffff" />
    <rect y="912" width="1536" height="2" fill="#88ffff" />
    <rect y="916" width="1536" height="2" fill="#88ffff" />
    <rect y="920" width="1536" height="2" fill="#88ffff" />
    <rect y="924" width="1536" height="2" fill="#88ffff" />
    <rect y="928" width="1536" height="2" fill="#88ffff" />
    <rect y="932" width="1536" height="2" fill="#88ffff" />
    <rect y="936" width="1536" height="2" fill="#88ffff" />
    <rect y="940" width="1536" height="2" fill="#88ffff" />
    <rect y="944" width="1536" height="2" fill="#88ffff" />
    <rect y="948" width="1536" height="2" fill="#88ffff" />
    <rect y="952" width="1536" height="2" fill="#88ffff" />
    <rect y="956" width="1536" height="2" fill="#88ffff" />
    <rect y="960" width="1536" height="2" fill="#88ffff" />
    <rect y="964" width="1536" height="2" fill="#88ffff" />
    <rect y="968" width="1536" height="2" fill="#88ffff" />
    <rect y="972" width="1536" height="2" fill="#88ffff" />
    <rect y="976" width="1536" height="2" fill="#88ffff" />
    <rect y="980" width="1536" height="2" fill="#88ffff" />
    <rect y="984" width="1536" height="2" fill="#88ffff" />
    <rect y="988" width="1536" height="2" fill="#88ffff" />
    <rect y="992" width="1536" height="2" fill="#88ffff" />
    <rect y="996" width="1536" height="2" fill="#88ffff" />
    <rect y="1000" width="1536" height="2" fill="#88ffff" />
    <rect y="1004" width="1536" height="2" fill="#88ffff" />
    <rect y="1008" width="1536" height="2" fill="#88ffff" />
    <rect y="1012" width="1536" height="2" fill="#88ffff" />
    <rect y="1016" width="1536" height="2" fill="#88ffff" />
    <rect y="1020" width="1536" height="2" fill="#88ffff" />
  </g>

  
  
  <rect x="60" y="80" width="580" height="440" fill="#222244" rx="0" />
  <rect x="60" y="80" width="580" height="440" fill="none" stroke="#00ffcc" stroke-width="8" />
  
  <rect x="80" y="100" width="540" height="400" fill="#050520" />
  
  <rect x="80" y="100" width="540" height="400" fill="#001133" opacity="0.4" />

  
  <rect x="80" y="100" width="540" height="52" fill="#cc0000" />
  <text x="350" y="138" font-family="monospace" font-size="36" font-weight="bold" fill="#ffffff" text-anchor="middle" letter-spacing="4">BREAKING NEWS</text>

  
  
  <rect x="96" y="168" width="160" height="16" fill="#00ff88" opacity="0.9" />
  <rect x="96" y="192" width="140" height="10" fill="#00aaff" opacity="0.7" />
  <rect x="96" y="208" width="150" height="10" fill="#00aaff" opacity="0.7" />
  <rect x="96" y="224" width="130" height="10" fill="#00aaff" opacity="0.7" />
  <rect x="96" y="240" width="155" height="10" fill="#00aaff" opacity="0.7" />
  <rect x="96" y="256" width="120" height="10" fill="#00aaff" opacity="0.7" />
  <rect x="96" y="272" width="148" height="10" fill="#00aaff" opacity="0.7" />
  <rect x="96" y="288" width="138" height="10" fill="#00aaff" opacity="0.7" />
  
  <rect x="276" y="168" width="160" height="16" fill="#ffcc00" opacity="0.9" />
  <rect x="276" y="192" width="150" height="10" fill="#00aaff" opacity="0.7" />
  <rect x="276" y="208" width="130" height="10" fill="#00aaff" opacity="0.7" />
  <rect x="276" y="224" width="145" height="10" fill="#00aaff" opacity="0.7" />
  <rect x="276" y="240" width="155" height="10" fill="#00aaff" opacity="0.7" />
  <rect x="276" y="256" width="140" height="10" fill="#00aaff" opacity="0.7" />
  <rect x="276" y="272" width="120" height="10" fill="#00aaff" opacity="0.7" />
  <rect x="276" y="288" width="160" height="10" fill="#00aaff" opacity="0.7" />
  
  <rect x="456" y="168" width="140" height="16" fill="#ff44aa" opacity="0.9" />
  <rect x="456" y="192" width="130" height="10" fill="#00aaff" opacity="0.7" />
  <rect x="456" y="208" width="145" height="10" fill="#00aaff" opacity="0.7" />
  <rect x="456" y="224" width="120" height="10" fill="#00aaff" opacity="0.7" />
  <rect x="456" y="240" width="140" height="10" fill="#00aaff" opacity="0.7" />
  <rect x="456" y="256" width="130" height="10" fill="#00aaff" opacity="0.7" />
  <rect x="456" y="272" width="138" height="10" fill="#00aaff" opacity="0.7" />
  <rect x="456" y="288" width="125" height="10" fill="#00aaff" opacity="0.7" />

  
  <rect x="256" y="168" width="8" height="140" fill="#334466" />
  <rect x="436" y="168" width="8" height="140" fill="#334466" />

  
  <rect x="96" y="328" width="524" height="24" fill="#112244" />
  <rect x="96" y="328" width="524" height="24" fill="none" stroke="#00ffcc" stroke-width="2" />
  
  <rect x="100" y="332" width="40" height="16" fill="#ff4444" />
  <rect x="144" y="332" width="40" height="16" fill="#ff8800" />
  <rect x="188" y="332" width="40" height="16" fill="#ffcc00" />
  <rect x="232" y="332" width="40" height="16" fill="#00ff44" />
  <rect x="276" y="332" width="40" height="16" fill="#00ffcc" />
  <rect x="320" y="332" width="40" height="16" fill="#0088ff" />
  <rect x="364" y="332" width="40" height="16" fill="#aa44ff" />
  <rect x="408" y="332" width="40" height="16" fill="#ff44aa" />
  <rect x="452" y="332" width="40" height="16" fill="#ff4444" />
  <rect x="496" y="332" width="40" height="16" fill="#ff8800" />
  <rect x="540" y="332" width="40" height="16" fill="#ffcc00" />
  <rect x="584" y="332" width="32" height="16" fill="#00ff44" />

  
  <rect x="96" y="368" width="108" height="56" fill="#2a0044" />
  <rect x="96" y="368" width="108" height="56" fill="none" stroke="#aa44ff" stroke-width="4" />
  <text x="150" y="402" font-family="monospace" font-size="13" fill="#aa44ff" text-anchor="middle">EVENTS</text>

  <rect x="216" y="368" width="108" height="56" fill="#002a00" />
  <rect x="216" y="368" width="108" height="56" fill="none" stroke="#00ff44" stroke-width="4" />
  <text x="270" y="402" font-family="monospace" font-size="13" fill="#00ff44" text-anchor="middle">PEOPLE</text>

  <rect x="336" y="368" width="108" height="56" fill="#2a1a00" />
  <rect x="336" y="368" width="108" height="56" fill="none" stroke="#ffcc00" stroke-width="4" />
  <text x="390" y="402" font-family="monospace" font-size="13" fill="#ffcc00" text-anchor="middle">WORKS</text>

  <rect x="456" y="368" width="164" height="56" fill="#2a0011" />
  <rect x="456" y="368" width="164" height="56" fill="none" stroke="#ff44aa" stroke-width="4" />
  <text x="538" y="402" font-family="monospace" font-size="13" fill="#ff44aa" text-anchor="middle">DEVELOPMENTS</text>

  
  <rect x="300" y="520" width="60" height="40" fill="#222244" />
  <rect x="220" y="556" width="220" height="24" fill="#222244" />
  <rect x="220" y="556" width="220" height="24" fill="none" stroke="#00ffcc" stroke-width="4" />

  

  
  
  <rect x="760" y="80" width="160" height="40" fill="#ff4444" />
  <rect x="880" y="80" width="40" height="80" fill="#ff4444" />
  <rect x="760" y="160" width="160" height="40" fill="#ff4444" />
  <rect x="760" y="200" width="40" height="80" fill="#ff4444" />
  <rect x="760" y="280" width="160" height="40" fill="#ff4444" />

  
  <rect x="960" y="80" width="160" height="40" fill="#ffcc00" />
  <rect x="960" y="80" width="40" height="240" fill="#ffcc00" />
  <rect x="1080" y="80" width="40" height="240" fill="#ffcc00" />
  <rect x="960" y="280" width="160" height="40" fill="#ffcc00" />

  
  <rect x="1200" y="80" width="40" height="240" fill="#00ffcc" />
  <rect x="1160" y="120" width="40" height="40" fill="#00ffcc" />

  
  <rect x="1280" y="80" width="160" height="40" fill="#aa44ff" />
  <rect x="1400" y="80" width="40" height="120" fill="#aa44ff" />
  <rect x="1280" y="160" width="160" height="40" fill="#aa44ff" />
  <rect x="1400" y="200" width="40" height="120" fill="#aa44ff" />
  <rect x="1280" y="280" width="160" height="40" fill="#aa44ff" />

  
  <rect x="760" y="380" width="700" height="440" fill="#0a0a1e" />
  <rect x="760" y="380" width="700" height="440" fill="none" stroke="#334488" stroke-width="6" />

  
  <rect x="760" y="380" width="700" height="56" fill="#1a1a44" />
  <text x="1110" y="423" font-family="monospace" font-size="32" font-weight="bold" fill="#00ffcc" text-anchor="middle" letter-spacing="2">YEAR 2013</text>

  
  
  <rect x="776" y="452" width="152" height="88" fill="#1a0033" />
  <rect x="776" y="452" width="152" height="88" fill="none" stroke="#aa44ff" stroke-width="3" />
  <text x="852" y="480" font-family="monospace" font-size="16" fill="#aa44ff" text-anchor="middle">JAN</text>
  <rect x="786" y="490" width="20" height="20" fill="#aa44ff" opacity="0.8" />
  <rect x="810" y="490" width="20" height="20" fill="#aa44ff" opacity="0.8" />
  <rect x="834" y="490" width="20" height="20" fill="#aa44ff" opacity="0.8" />
  <rect x="858" y="490" width="20" height="20" fill="#ff44aa" opacity="0.9" />
  <rect x="882" y="490" width="20" height="20" fill="#aa44ff" opacity="0.8" />
  <rect x="906" y="490" width="20" height="20" fill="#aa44ff" opacity="0.8" />

  <rect x="940" y="452" width="152" height="88" fill="#001a00" />
  <rect x="940" y="452" width="152" height="88" fill="none" stroke="#00ff44" stroke-width="3" />
  <text x="1016" y="480" font-family="monospace" font-size="16" fill="#00ff44" text-anchor="middle">FEB</text>
  <rect x="950" y="490" width="20" height="20" fill="#00ff44" opacity="0.8" />
  <rect x="974" y="490" width="20" height="20" fill="#00ff44" opacity="0.8" />
  <rect x="998" y="490" width="20" height="20" fill="#ffcc00" opacity="0.9" />
  <rect x="1022" y="490" width="20" height="20" fill="#00ff44" opacity="0.8" />
  <rect x="1046" y="490" width="20" height="20" fill="#00ff44" opacity="0.8" />
  <rect x="1070" y="490" width="20" height="20" fill="#00ff44" opacity="0.8" />

  <rect x="1104" y="452" width="152" height="88" fill="#1a1100" />
  <rect x="1104" y="452" width="152" height="88" fill="none" stroke="#ffcc00" stroke-width="3" />
  <text x="1180" y="480" font-family="monospace" font-size="16" fill="#ffcc00" text-anchor="middle">MAR</text>
  <rect x="1114" y="490" width="20" height="20" fill="#ffcc00" opacity="0.8" />
  <rect x="1138" y="490" width="20" height="20" fill="#ffcc00" opacity="0.8" />
  <rect x="1162" y="490" width="20" height="20" fill="#ffcc00" opacity="0.8" />
  <rect x="1186" y="490" width="20" height="20" fill="#ff4444" opacity="0.9" />
  <rect x="1210" y="490" width="20" height="20" fill="#ffcc00" opacity="0.8" />
  <rect x="1234" y="490" width="20" height="20" fill="#ffcc00" opacity="0.8" />

  <rect x="1268" y="452" width="176" height="88" fill="#001a22" />
  <rect x="1268" y="452" width="176" height="88" fill="none" stroke="#00ffcc" stroke-width="3" />
  <text x="1356" y="480" font-family="monospace" font-size="16" fill="#00ffcc" text-anchor="middle">APR</text>
  <rect x="1278" y="490" width="20" height="20" fill="#00ffcc" opacity="0.8" />
  <rect x="1302" y="490" width="20" height="20" fill="#00ffcc" opacity="0.8" />
  <rect x="1326" y="490" width="20" height="20" fill="#00ffcc" opacity="0.8" />
  <rect x="1350" y="490" width="20" height="20" fill="#00ffcc" opacity="0.8" />
  <rect x="1374" y="490" width="20" height="20" fill="#ff44aa" opacity="0.9" />
  <rect x="1398" y="490" width="20" height="20" fill="#00ffcc" opacity="0.8" />

  
  <rect x="776" y="556" width="152" height="88" fill="#1a0033" />
  <rect x="776" y="556" width="152" height="88" fill="none" stroke="#ff4444" stroke-width="3" />
  <text x="852" y="584" font-family="monospace" font-size="16" fill="#ff4444" text-anchor="middle">MAY</text>
  <rect x="786" y="594" width="20" height="20" fill="#ff4444" opacity="0.8" />
  <rect x="810" y="594" width="20" height="20" fill="#ff4444" opacity="0.8" />
  <rect x="834" y="594" width="20" height="20" fill="#ff4444" opacity="0.8" />
  <rect x="858" y="594" width="20" height="20" fill="#ffcc00" opacity="0.9" />
  <rect x="882" y="594" width="20" height="20" fill="#ff4444" opacity="0.8" />
  <rect x="906" y="594" width="20" height="20" fill="#ff4444" opacity="0.8" />

  <rect x="940" y="556" width="152" height="88" fill="#001a00" />
  <rect x="940" y="556" width="152" height="88" fill="none" stroke="#ff8800" stroke-width="3" />
  <text x="1016" y="584" font-family="monospace" font-size="16" fill="#ff8800" text-anchor="middle">JUN</text>
  <rect x="950" y="594" width="20" height="20" fill="#ff8800" opacity="0.8" />
  <rect x="974" y="594" width="20" height="20" fill="#ff44aa" opacity="0.9" />
  <rect x="998" y="594" width="20" height="20" fill="#ff8800" opacity="0.8" />
  <rect x="1022" y="594" width="20" height="20" fill="#ff8800" opacity="0.8" />
  <rect x="1046" y="594" width="20" height="20" fill="#ff8800" opacity="0.8" />
  <rect x="1070" y="594" width="20" height="20" fill="#ff8800" opacity="0.8" />

  <rect x="1104" y="556" width="152" height="88" fill="#001a22" />
  <rect x="1104" y="556" width="152" height="88" fill="none" stroke="#0088ff" stroke-width="3" />
  <text x="1180" y="584" font-family="monospace" font-size="16" fill="#0088ff" text-anchor="middle">JUL</text>
  <rect x="1114" y="594" width="20" height="20" fill="#0088ff" opacity="0.8" />
  <rect x="1138" y="594" width="20" height="20" fill="#0088ff" opacity="0.8" />
  <rect x="1162" y="594" width="20" height="20" fill="#aa44ff" opacity="0.9" />
  <rect x="1186" y="594" width="20" height="20" fill="#0088ff" opacity="0.8" />
  <rect x="1210" y="594" width="20" height="20" fill="#0088ff" opacity="0.8" />
  <rect x="1234" y="594" width="20" height="20" fill="#0088ff" opacity="0.8" />

  <rect x="1268" y="556" width="176" height="88" fill="#1a1100" />
  <rect x="1268" y="556" width="176" height="88" fill="none" stroke="#ff44aa" stroke-width="3" />
  <text x="1356" y="584" font-family="monospace" font-size="16" fill="#ff44aa" text-anchor="middle">AUG</text>
  <rect x="1278" y="594" width="20" height="20" fill="#ff44aa" opacity="0.8" />
  <rect x="1302" y="594" width="20" height="20" fill="#ff44aa" opacity="0.8" />
  <rect x="1326" y="594" width="20" height="20" fill="#ff44aa" opacity="0.8" />
  <rect x="1350" y="594" width="20" height="20" fill="#ffcc00" opacity="0.9" />
  <rect x="1374" y="594" width="20" height="20" fill="#ff44aa" opacity="0.8" />
  <rect x="1398" y="594" width="20" height="20" fill="#ff44aa" opacity="0.8" />

  
  <rect x="776" y="660" width="152" height="88" fill="#001a00" />
  <rect x="776" y="660" width="152" height="88" fill="none" stroke="#00ff88" stroke-width="3" />
  <text x="852" y="688" font-family="monospace" font-size="16" fill="#00ff88" text-anchor="middle">SEP</text>
  <rect x="786" y="698" width="20" height="20" fill="#00ff88" opacity="0.8" />
  <rect x="810" y="698" width="20" height="20" fill="#ff4444" opacity="0.9" />
  <rect x="834" y="698" width="20" height="20" fill="#00ff88" opacity="0.8" />
  <rect x="858" y="698" width="20" height="20" fill="#00ff88" opacity="0.8" />
  <rect x="882" y="698" width="20" height="20" fill="#00ff88" opacity="0.8" />
  <rect x="906" y="698" width="20" height="20" fill="#00ff88" opacity="0.8" />

  <rect x="940" y="660" width="152" height="88" fill="#1a0011" />
  <rect x="940" y="660" width="152" height="88" fill="none" stroke="#aa44ff" stroke-width="3" />
  <text x="1016" y="688" font-family="monospace" font-size="16" fill="#aa44ff" text-anchor="middle">OCT</text>
  <rect x="950" y="698" width="20" height="20" fill="#aa44ff" opacity="0.8" />
  <rect x="974" y="698" width="20" height="20" fill="#aa44ff" opacity="0.8" />
  <rect x="998" y="698" width="20" height="20" fill="#ff8800" opacity="0.9" />
  <rect x="1022" y="698" width="20" height="20" fill="#aa44ff" opacity="0.8" />
  <rect x="1046" y="698" width="20" height="20" fill="#aa44ff" opacity="0.8" />
  <rect x="1070" y="698" width="20" height="20" fill="#aa44ff" opacity="0.8" />

  <rect x="1104" y="660" width="152" height="88" fill="#001a22" />
  <rect x="1104" y="660" width="152" height="88" fill="none" stroke="#ffcc00" stroke-width="3" />
  <text x="1180" y="688" font-family="monospace" font-size="16" fill="#ffcc00" text-anchor="middle">NOV</text>
  <rect x="1114" y="698" width="20" height="20" fill="#ffcc00" opacity="0.8" />
  <rect x="1138" y="698" width="20" height="20" fill="#ffcc00" opacity="0.8" />
  <rect x="1162" y="698" width="20" height="20" fill="#ffcc00" opacity="0.8" />
  <rect x="1186" y="698" width="20" height="20" fill="#00ffcc" opacity="0.9" />
  <rect x="1210" y="698" width="20" height="20" fill="#ffcc00" opacity="0.8" />
  <rect x="1234" y="698" width="20" height="20" fill="#ffcc00" opacity="0.8" />

  <rect x="1268" y="660" width="176" height="88" fill="#1a0000" />
  <rect x="1268" y="660" width="176" height="88" fill="none" stroke="#ff4444" stroke-width="3" />
  <text x="1356" y="688" font-family="monospace" font-size="16" fill="#ff4444" text-anchor="middle">DEC</text>
  <rect x="1278" y="698" width="20" height="20" fill="#ff4444" opacity="0.8" />
  <rect x="1302" y="698" width="20" height="20" fill="#ff4444" opacity="0.8" />
  <rect x="1326" y="698" width="20" height="20" fill="#ff4444" opacity="0.8" />
  <rect x="1350" y="698" width="20" height="20" fill="#ffcc00" opacity="0.9" />
  <rect x="1374" y="698" width="20" height="20" fill="#ff4444" opacity="0.8" />
  <rect x="1398" y="698" width="20" height="20" fill="#ff4444" opacity="0.8" />

  
  <rect x="776" y="764" width="668" height="48" fill="#0d0d2a" />
  <rect x="786" y="774" width="20" height="20" fill="#ff44aa" />
  <text x="812" y="789" font-family="monospace" font-size="12" fill="#aaaacc">EVENT</text>
  <rect x="900" y="774" width="20" height="20" fill="#ffcc00" />
  <text x="926" y="789" font-family="monospace" font-size="12" fill="#aaaacc">PERSON</text>
  <rect x="1036" y="774" width="20" height="20" fill="#00ffcc" />
  <text x="1062" y="789" font-family="monospace" font-size="12" fill="#aaaacc">WORK</text>
  <rect x="1152" y="774" width="20" height="20" fill="#aa44ff" />
  <text x="1178" y="789" font-family="monospace" font-size="12" fill="#aaaacc">DEV</text>
  <rect x="1268" y="774" width="176" height="20" fill="none" stroke="#334466" stroke-width="1" />
  <text x="1356" y="789" font-family="monospace" font-size="11" fill="#556688" text-anchor="middle">SELECT SECTION</text>

  
  <rect x="0" y="820" width="1536" height="204" fill="#0e0030" />
  <rect x="0" y="820" width="1536" height="8" fill="#00ffcc" />

  
  <rect x="40" y="848" width="16" height="16" fill="#ff4444" />
  <rect x="60" y="848" width="16" height="16" fill="#ff8800" />
  <rect x="80" y="848" width="16" height="16" fill="#ffcc00" />
  <rect x="100" y="848" width="16" height="16" fill="#00ff44" />
  <rect x="120" y="848" width="16" height="16" fill="#00ffcc" />
  <rect x="140" y="848" width="16" height="16" fill="#0088ff" />
  <rect x="160" y="848" width="16" height="16" fill="#aa44ff" />
  <rect x="180" y="848" width="16" height="16" fill="#ff44aa" />

  
  <text x="768" y="920" font-family="monospace" font-size="96" font-weight="bold" fill="#ffffff" text-anchor="middle" letter-spacing="8" filter="url(#glow)">NEWS 2013</text>

  
  <text x="768" y="975" font-family="monospace" font-size="28" fill="#00ffcc" text-anchor="middle" letter-spacing="4" opacity="0.9">THE COMPLETE NEWSROOM KNOWLEDGE BASE</text>

  
  <rect x="1356" y="848" width="16" height="16" fill="#ff44aa" />
  <rect x="1376" y="848" width="16" height="16" fill="#aa44ff" />
  <rect x="1396" y="848" width="16" height="16" fill="#0088ff" />
  <rect x="1416" y="848" width="16" height="16" fill="#00ffcc" />
  <rect x="1436" y="848" width="16" height="16" fill="#00ff44" />
  <rect x="1456" y="848" width="16" height="16" fill="#ffcc00" />
  <rect x="1476" y="848" width="16" height="16" fill="#ff8800" />
  <rect x="1496" y="848" width="16" height="16" fill="#ff4444" />

  
  
  <rect x="700" y="120" width="8" height="8" fill="#ffff00" />
  <rect x="696" y="116" width="16" height="4" fill="#ffff00" />
  <rect x="696" y="128" width="16" height="4" fill="#ffff00" />
  <rect x="692" y="120" width="4" height="8" fill="#ffff00" />
  <rect x="712" y="120" width="4" height="8" fill="#ffff00" />

  <rect x="700" y="240" width="8" height="8" fill="#ff44aa" />
  <rect x="696" y="236" width="16" height="4" fill="#ff44aa" />
  <rect x="696" y="248" width="16" height="4" fill="#ff44aa" />
  <rect x="692" y="240" width="4" height="8" fill="#ff44aa" />
  <rect x="712" y="240" width="4" height="8" fill="#ff44aa" />

  <rect x="700" y="360" width="8" height="8" fill="#00ffcc" />
  <rect x="696" y="356" width="16" height="4" fill="#00ffcc" />
  <rect x="696" y="368" width="16" height="4" fill="#00ffcc" />
  <rect x="692" y="360" width="4" height="8" fill="#00ffcc" />
  <rect x="712" y="360" width="4" height="8" fill="#00ffcc" />

  <rect x="700" y="480" width="8" height="8" fill="#ffcc00" />
  <rect x="696" y="476" width="16" height="4" fill="#ffcc00" />
  <rect x="696" y="488" width="16" height="4" fill="#ffcc00" />
  <rect x="692" y="480" width="4" height="8" fill="#ffcc00" />
  <rect x="712" y="480" width="4" height="8" fill="#ffcc00" />

  <rect x="700" y="600" width="8" height="8" fill="#aa44ff" />
  <rect x="696" y="596" width="16" height="4" fill="#aa44ff" />
  <rect x="696" y="608" width="16" height="4" fill="#aa44ff" />
  <rect x="692" y="600" width="4" height="8" fill="#aa44ff" />
  <rect x="712" y="600" width="4" height="8" fill="#aa44ff" />

  <rect x="700" y="720" width="8" height="8" fill="#ff4444" />
  <rect x="696" y="716" width="16" height="4" fill="#ff4444" />
  <rect x="696" y="728" width="16" height="4" fill="#ff4444" />
  <rect x="692" y="720" width="4" height="8" fill="#ff4444" />
  <rect x="712" y="720" width="4" height="8" fill="#ff4444" />

  
  <rect x="0" y="0" width="1536" height="1024" fill="none" stroke="#000000" stroke-width="60" opacity="0.7" />
</svg>