<svg xmlns="http://www.w3.org/2000/svg" viewBox="0 0 1536 1024" role="img" width="1536" height="1024">
  <title>Prince George's Birth and Royal Succession – Retro Pixel Art Banner</title>
  <defs>
    <radialGradient id="crt" cx="50%" cy="50%" r="70%">
      <stop offset="0%" stop-color="#1a0a2e" />
      <stop offset="100%" stop-color="#050008" />
    </radialGradient>
    <filter id="glow">
      <feGaussianBlur stdDeviation="4" result="blur" />
      <feMerge><feMergeNode in="blur" /><feMergeNode in="SourceGraphic" /></feMerge>
    </filter>
    <filter id="softglow">
      <feGaussianBlur stdDeviation="8" result="blur" />
      <feMerge><feMergeNode in="blur" /><feMergeNode in="SourceGraphic" /></feMerge>
    </filter>
  </defs>

  
  <rect width="1536" height="1024" fill="url(#crt)" />

  
  <rect width="1536" height="1024" fill="none" stroke="#ffffff" stroke-width="0.5" opacity="0.03" style="background: repeating-linear-gradient(transparent, transparent 2px, rgba(0,0,0,0.1) 2px, rgba(0,0,0,0.1) 4px)" />
  
  <g opacity="0.04">
    <rect x="0" y="0" width="1536" height="2" fill="#fff" />
    <rect x="0" y="4" width="1536" height="2" fill="#fff" />
    <rect x="0" y="8" width="1536" height="2" fill="#fff" />
    <rect x="0" y="12" width="1536" height="2" fill="#fff" />
    <rect x="0" y="16" width="1536" height="2" fill="#fff" />
    <rect x="0" y="20" width="1536" height="2" fill="#fff" />
    <rect x="0" y="24" width="1536" height="2" fill="#fff" />
    <rect x="0" y="28" width="1536" height="2" fill="#fff" />
    <rect x="0" y="32" width="1536" height="2" fill="#fff" />
    <rect x="0" y="36" width="1536" height="2" fill="#fff" />
    <rect x="0" y="40" width="1536" height="2" fill="#fff" />
    <rect x="0" y="44" width="1536" height="2" fill="#fff" />
    <rect x="0" y="48" width="1536" height="2" fill="#fff" />
    <rect x="0" y="52" width="1536" height="2" fill="#fff" />
    <rect x="0" y="56" width="1536" height="2" fill="#fff" />
    <rect x="0" y="60" width="1536" height="2" fill="#fff" />
    <rect x="0" y="64" width="1536" height="2" fill="#fff" />
    <rect x="0" y="68" width="1536" height="2" fill="#fff" />
    <rect x="0" y="72" width="1536" height="2" fill="#fff" />
    <rect x="0" y="76" width="1536" height="2" fill="#fff" />
    <rect x="0" y="80" width="1536" height="2" fill="#fff" />
    <rect x="0" y="84" width="1536" height="2" fill="#fff" />
    <rect x="0" y="88" width="1536" height="2" fill="#fff" />
    <rect x="0" y="92" width="1536" height="2" fill="#fff" />
    <rect x="0" y="96" width="1536" height="2" fill="#fff" />
    <rect x="0" y="100" width="1536" height="2" fill="#fff" />
    <rect x="0" y="104" width="1536" height="2" fill="#fff" />
    <rect x="0" y="108" width="1536" height="2" fill="#fff" />
    <rect x="0" y="112" width="1536" height="2" fill="#fff" />
    <rect x="0" y="116" width="1536" height="2" fill="#fff" />
    <rect x="0" y="120" width="1536" height="2" fill="#fff" />
    <rect x="0" y="124" width="1536" height="2" fill="#fff" />
    <rect x="0" y="128" width="1536" height="2" fill="#fff" />
    <rect x="0" y="132" width="1536" height="2" fill="#fff" />
    <rect x="0" y="136" width="1536" height="2" fill="#fff" />
    <rect x="0" y="140" width="1536" height="2" fill="#fff" />
    <rect x="0" y="144" width="1536" height="2" fill="#fff" />
    <rect x="0" y="148" width="1536" height="2" fill="#fff" />
    <rect x="0" y="152" width="1536" height="2" fill="#fff" />
    <rect x="0" y="156" width="1536" height="2" fill="#fff" />
    <rect x="0" y="160" width="1536" height="2" fill="#fff" />
    <rect x="0" y="164" width="1536" height="2" fill="#fff" />
    <rect x="0" y="168" width="1536" height="2" fill="#fff" />
    <rect x="0" y="172" width="1536" height="2" fill="#fff" />
    <rect x="0" y="176" width="1536" height="2" fill="#fff" />
    <rect x="0" y="180" width="1536" height="2" fill="#fff" />
    <rect x="0" y="184" width="1536" height="2" fill="#fff" />
    <rect x="0" y="188" width="1536" height="2" fill="#fff" />
    <rect x="0" y="192" width="1536" height="2" fill="#fff" />
    <rect x="0" y="196" width="1536" height="2" fill="#fff" />
    <rect x="0" y="200" width="1536" height="2" fill="#fff" />
    <rect x="0" y="204" width="1536" height="2" fill="#fff" />
    <rect x="0" y="208" width="1536" height="2" fill="#fff" />
    <rect x="0" y="212" width="1536" height="2" fill="#fff" />
    <rect x="0" y="216" width="1536" height="2" fill="#fff" />
    <rect x="0" y="220" width="1536" height="2" fill="#fff" />
    <rect x="0" y="224" width="1536" height="2" fill="#fff" />
    <rect x="0" y="228" width="1536" height="2" fill="#fff" />
    <rect x="0" y="232" width="1536" height="2" fill="#fff" />
    <rect x="0" y="236" width="1536" height="2" fill="#fff" />
    <rect x="0" y="240" width="1536" height="2" fill="#fff" />
    <rect x="0" y="244" width="1536" height="2" fill="#fff" />
    <rect x="0" y="248" width="1536" height="2" fill="#fff" />
    <rect x="0" y="252" width="1536" height="2" fill="#fff" />
    <rect x="0" y="256" width="1536" height="2" fill="#fff" />
    <rect x="0" y="260" width="1536" height="2" fill="#fff" />
    <rect x="0" y="264" width="1536" height="2" fill="#fff" />
    <rect x="0" y="268" width="1536" height="2" fill="#fff" />
    <rect x="0" y="272" width="1536" height="2" fill="#fff" />
    <rect x="0" y="276" width="1536" height="2" fill="#fff" />
    <rect x="0" y="280" width="1536" height="2" fill="#fff" />
    <rect x="0" y="284" width="1536" height="2" fill="#fff" />
    <rect x="0" y="288" width="1536" height="2" fill="#fff" />
    <rect x="0" y="292" width="1536" height="2" fill="#fff" />
    <rect x="0" y="296" width="1536" height="2" fill="#fff" />
    <rect x="0" y="300" width="1536" height="2" fill="#fff" />
    <rect x="0" y="304" width="1536" height="2" fill="#fff" />
    <rect x="0" y="308" width="1536" height="2" fill="#fff" />
    <rect x="0" y="312" width="1536" height="2" fill="#fff" />
    <rect x="0" y="316" width="1536" height="2" fill="#fff" />
    <rect x="0" y="320" width="1536" height="2" fill="#fff" />
    <rect x="0" y="324" width="1536" height="2" fill="#fff" />
    <rect x="0" y="328" width="1536" height="2" fill="#fff" />
    <rect x="0" y="332" width="1536" height="2" fill="#fff" />
    <rect x="0" y="336" width="1536" height="2" fill="#fff" />
    <rect x="0" y="340" width="1536" height="2" fill="#fff" />
    <rect x="0" y="344" width="1536" height="2" fill="#fff" />
    <rect x="0" y="348" width="1536" height="2" fill="#fff" />
    <rect x="0" y="352" width="1536" height="2" fill="#fff" />
    <rect x="0" y="356" width="1536" height="2" fill="#fff" />
    <rect x="0" y="360" width="1536" height="2" fill="#fff" />
    <rect x="0" y="364" width="1536" height="2" fill="#fff" />
    <rect x="0" y="368" width="1536" height="2" fill="#fff" />
    <rect x="0" y="372" width="1536" height="2" fill="#fff" />
    <rect x="0" y="376" width="1536" height="2" fill="#fff" />
    <rect x="0" y="380" width="1536" height="2" fill="#fff" />
    <rect x="0" y="384" width="1536" height="2" fill="#fff" />
    <rect x="0" y="388" width="1536" height="2" fill="#fff" />
    <rect x="0" y="392" width="1536" height="2" fill="#fff" />
    <rect x="0" y="396" width="1536" height="2" fill="#fff" />
    <rect x="0" y="400" width="1536" height="2" fill="#fff" />
    <rect x="0" y="404" width="1536" height="2" fill="#fff" />
    <rect x="0" y="408" width="1536" height="2" fill="#fff" />
    <rect x="0" y="412" width="1536" height="2" fill="#fff" />
    <rect x="0" y="416" width="1536" height="2" fill="#fff" />
    <rect x="0" y="420" width="1536" height="2" fill="#fff" />
    <rect x="0" y="424" width="1536" height="2" fill="#fff" />
    <rect x="0" y="428" width="1536" height="2" fill="#fff" />
    <rect x="0" y="432" width="1536" height="2" fill="#fff" />
    <rect x="0" y="436" width="1536" height="2" fill="#fff" />
    <rect x="0" y="440" width="1536" height="2" fill="#fff" />
    <rect x="0" y="444" width="1536" height="2" fill="#fff" />
    <rect x="0" y="448" width="1536" height="2" fill="#fff" />
    <rect x="0" y="452" width="1536" height="2" fill="#fff" />
    <rect x="0" y="456" width="1536" height="2" fill="#fff" />
    <rect x="0" y="460" width="1536" height="2" fill="#fff" />
    <rect x="0" y="464" width="1536" height="2" fill="#fff" />
    <rect x="0" y="468" width="1536" height="2" fill="#fff" />
    <rect x="0" y="472" width="1536" height="2" fill="#fff" />
    <rect x="0" y="476" width="1536" height="2" fill="#fff" />
    <rect x="0" y="480" width="1536" height="2" fill="#fff" />
    <rect x="0" y="484" width="1536" height="2" fill="#fff" />
    <rect x="0" y="488" width="1536" height="2" fill="#fff" />
    <rect x="0" y="492" width="1536" height="2" fill="#fff" />
    <rect x="0" y="496" width="1536" height="2" fill="#fff" />
    <rect x="0" y="500" width="1536" height="2" fill="#fff" />
    <rect x="0" y="504" width="1536" height="2" fill="#fff" />
    <rect x="0" y="508" width="1536" height="2" fill="#fff" />
    <rect x="0" y="512" width="1536" height="2" fill="#fff" />
    <rect x="0" y="516" width="1536" height="2" fill="#fff" />
    <rect x="0" y="520" width="1536" height="2" fill="#fff" />
    <rect x="0" y="524" width="1536" height="2" fill="#fff" />
    <rect x="0" y="528" width="1536" height="2" fill="#fff" />
    <rect x="0" y="532" width="1536" height="2" fill="#fff" />
    <rect x="0" y="536" width="1536" height="2" fill="#fff" />
    <rect x="0" y="540" width="1536" height="2" fill="#fff" />
    <rect x="0" y="544" width="1536" height="2" fill="#fff" />
    <rect x="0" y="548" width="1536" height="2" fill="#fff" />
    <rect x="0" y="552" width="1536" height="2" fill="#fff" />
    <rect x="0" y="556" width="1536" height="2" fill="#fff" />
    <rect x="0" y="560" width="1536" height="2" fill="#fff" />
    <rect x="0" y="564" width="1536" height="2" fill="#fff" />
    <rect x="0" y="568" width="1536" height="2" fill="#fff" />
    <rect x="0" y="572" width="1536" height="2" fill="#fff" />
    <rect x="0" y="576" width="1536" height="2" fill="#fff" />
    <rect x="0" y="580" width="1536" height="2" fill="#fff" />
    <rect x="0" y="584" width="1536" height="2" fill="#fff" />
    <rect x="0" y="588" width="1536" height="2" fill="#fff" />
    <rect x="0" y="592" width="1536" height="2" fill="#fff" />
    <rect x="0" y="596" width="1536" height="2" fill="#fff" />
    <rect x="0" y="600" width="1536" height="2" fill="#fff" />
    <rect x="0" y="604" width="1536" height="2" fill="#fff" />
    <rect x="0" y="608" width="1536" height="2" fill="#fff" />
    <rect x="0" y="612" width="1536" height="2" fill="#fff" />
    <rect x="0" y="616" width="1536" height="2" fill="#fff" />
    <rect x="0" y="620" width="1536" height="2" fill="#fff" />
    <rect x="0" y="624" width="1536" height="2" fill="#fff" />
    <rect x="0" y="628" width="1536" height="2" fill="#fff" />
    <rect x="0" y="632" width="1536" height="2" fill="#fff" />
    <rect x="0" y="636" width="1536" height="2" fill="#fff" />
    <rect x="0" y="640" width="1536" height="2" fill="#fff" />
    <rect x="0" y="644" width="1536" height="2" fill="#fff" />
    <rect x="0" y="648" width="1536" height="2" fill="#fff" />
    <rect x="0" y="652" width="1536" height="2" fill="#fff" />
    <rect x="0" y="656" width="1536" height="2" fill="#fff" />
    <rect x="0" y="660" width="1536" height="2" fill="#fff" />
    <rect x="0" y="664" width="1536" height="2" fill="#fff" />
    <rect x="0" y="668" width="1536" height="2" fill="#fff" />
    <rect x="0" y="672" width="1536" height="2" fill="#fff" />
    <rect x="0" y="676" width="1536" height="2" fill="#fff" />
    <rect x="0" y="680" width="1536" height="2" fill="#fff" />
    <rect x="0" y="684" width="1536" height="2" fill="#fff" />
    <rect x="0" y="688" width="1536" height="2" fill="#fff" />
    <rect x="0" y="692" width="1536" height="2" fill="#fff" />
    <rect x="0" y="696" width="1536" height="2" fill="#fff" />
    <rect x="0" y="700" width="1536" height="2" fill="#fff" />
    <rect x="0" y="704" width="1536" height="2" fill="#fff" />
    <rect x="0" y="708" width="1536" height="2" fill="#fff" />
    <rect x="0" y="712" width="1536" height="2" fill="#fff" />
    <rect x="0" y="716" width="1536" height="2" fill="#fff" />
    <rect x="0" y="720" width="1536" height="2" fill="#fff" />
    <rect x="0" y="724" width="1536" height="2" fill="#fff" />
    <rect x="0" y="728" width="1536" height="2" fill="#fff" />
    <rect x="0" y="732" width="1536" height="2" fill="#fff" />
    <rect x="0" y="736" width="1536" height="2" fill="#fff" />
    <rect x="0" y="740" width="1536" height="2" fill="#fff" />
    <rect x="0" y="744" width="1536" height="2" fill="#fff" />
    <rect x="0" y="748" width="1536" height="2" fill="#fff" />
    <rect x="0" y="752" width="1536" height="2" fill="#fff" />
    <rect x="0" y="756" width="1536" height="2" fill="#fff" />
    <rect x="0" y="760" width="1536" height="2" fill="#fff" />
    <rect x="0" y="764" width="1536" height="2" fill="#fff" />
    <rect x="0" y="768" width="1536" height="2" fill="#fff" />
    <rect x="0" y="772" width="1536" height="2" fill="#fff" />
    <rect x="0" y="776" width="1536" height="2" fill="#fff" />
    <rect x="0" y="780" width="1536" height="2" fill="#fff" />
    <rect x="0" y="784" width="1536" height="2" fill="#fff" />
    <rect x="0" y="788" width="1536" height="2" fill="#fff" />
    <rect x="0" y="792" width="1536" height="2" fill="#fff" />
    <rect x="0" y="796" width="1536" height="2" fill="#fff" />
    <rect x="0" y="800" width="1536" height="2" fill="#fff" />
    <rect x="0" y="804" width="1536" height="2" fill="#fff" />
    <rect x="0" y="808" width="1536" height="2" fill="#fff" />
    <rect x="0" y="812" width="1536" height="2" fill="#fff" />
    <rect x="0" y="816" width="1536" height="2" fill="#fff" />
    <rect x="0" y="820" width="1536" height="2" fill="#fff" />
    <rect x="0" y="824" width="1536" height="2" fill="#fff" />
    <rect x="0" y="828" width="1536" height="2" fill="#fff" />
    <rect x="0" y="832" width="1536" height="2" fill="#fff" />
    <rect x="0" y="836" width="1536" height="2" fill="#fff" />
    <rect x="0" y="840" width="1536" height="2" fill="#fff" />
    <rect x="0" y="844" width="1536" height="2" fill="#fff" />
    <rect x="0" y="848" width="1536" height="2" fill="#fff" />
    <rect x="0" y="852" width="1536" height="2" fill="#fff" />
    <rect x="0" y="856" width="1536" height="2" fill="#fff" />
    <rect x="0" y="860" width="1536" height="2" fill="#fff" />
    <rect x="0" y="864" width="1536" height="2" fill="#fff" />
    <rect x="0" y="868" width="1536" height="2" fill="#fff" />
    <rect x="0" y="872" width="1536" height="2" fill="#fff" />
    <rect x="0" y="876" width="1536" height="2" fill="#fff" />
    <rect x="0" y="880" width="1536" height="2" fill="#fff" />
    <rect x="0" y="884" width="1536" height="2" fill="#fff" />
    <rect x="0" y="888" width="1536" height="2" fill="#fff" />
    <rect x="0" y="892" width="1536" height="2" fill="#fff" />
    <rect x="0" y="896" width="1536" height="2" fill="#fff" />
    <rect x="0" y="900" width="1536" height="2" fill="#fff" />
    <rect x="0" y="904" width="1536" height="2" fill="#fff" />
    <rect x="0" y="908" width="1536" height="2" fill="#fff" />
    <rect x="0" y="912" width="1536" height="2" fill="#fff" />
    <rect x="0" y="916" width="1536" height="2" fill="#fff" />
    <rect x="0" y="920" width="1536" height="2" fill="#fff" />
    <rect x="0" y="924" width="1536" height="2" fill="#fff" />
    <rect x="0" y="928" width="1536" height="2" fill="#fff" />
    <rect x="0" y="932" width="1536" height="2" fill="#fff" />
    <rect x="0" y="936" width="1536" height="2" fill="#fff" />
    <rect x="0" y="940" width="1536" height="2" fill="#fff" />
    <rect x="0" y="944" width="1536" height="2" fill="#fff" />
    <rect x="0" y="948" width="1536" height="2" fill="#fff" />
    <rect x="0" y="952" width="1536" height="2" fill="#fff" />
    <rect x="0" y="956" width="1536" height="2" fill="#fff" />
    <rect x="0" y="960" width="1536" height="2" fill="#fff" />
    <rect x="0" y="964" width="1536" height="2" fill="#fff" />
    <rect x="0" y="968" width="1536" height="2" fill="#fff" />
    <rect x="0" y="972" width="1536" height="2" fill="#fff" />
    <rect x="0" y="976" width="1536" height="2" fill="#fff" />
    <rect x="0" y="980" width="1536" height="2" fill="#fff" />
    <rect x="0" y="984" width="1536" height="2" fill="#fff" />
    <rect x="0" y="988" width="1536" height="2" fill="#fff" />
    <rect x="0" y="992" width="1536" height="2" fill="#fff" />
    <rect x="0" y="996" width="1536" height="2" fill="#fff" />
    <rect x="0" y="1000" width="1536" height="2" fill="#fff" />
    <rect x="0" y="1004" width="1536" height="2" fill="#fff" />
    <rect x="0" y="1008" width="1536" height="2" fill="#fff" />
    <rect x="0" y="1012" width="1536" height="2" fill="#fff" />
    <rect x="0" y="1016" width="1536" height="2" fill="#fff" />
    <rect x="0" y="1020" width="1536" height="2" fill="#fff" />
  </g>

  
  <g fill="#ffffaa" opacity="0.6">
    <rect x="80" y="60" width="4" height="4" />
    <rect x="200" y="120" width="4" height="4" />
    <rect x="340" y="40" width="4" height="4" />
    <rect x="450" y="90" width="4" height="4" />
    <rect x="560" y="30" width="4" height="4" />
    <rect x="700" y="80" width="4" height="4" />
    <rect x="820" y="50" width="4" height="4" />
    <rect x="960" y="100" width="4" height="4" />
    <rect x="1100" y="35" width="4" height="4" />
    <rect x="1250" y="75" width="4" height="4" />
    <rect x="1400" y="55" width="4" height="4" />
    <rect x="120" y="950" width="4" height="4" />
    <rect x="280" y="970" width="4" height="4" />
    <rect x="460" y="940" width="4" height="4" />
    <rect x="640" y="960" width="4" height="4" />
    <rect x="900" y="945" width="4" height="4" />
    <rect x="1150" y="975" width="4" height="4" />
    <rect x="1350" y="950" width="4" height="4" />
    <rect x="1480" y="930" width="4" height="4" />
  </g>

  
  <g filter="url(#softglow)" opacity="0.85">
    
    <rect x="900" y="540" width="560" height="300" fill="#1e3a5f" />
    
    <rect x="920" y="570" width="36" height="48" fill="#4ec9f0" />
    <rect x="976" y="570" width="36" height="48" fill="#4ec9f0" />
    <rect x="1032" y="570" width="36" height="48" fill="#4ec9f0" />
    <rect x="1088" y="570" width="36" height="48" fill="#4ec9f0" />
    <rect x="1200" y="570" width="36" height="48" fill="#4ec9f0" />
    <rect x="1256" y="570" width="36" height="48" fill="#4ec9f0" />
    <rect x="1312" y="570" width="36" height="48" fill="#4ec9f0" />
    <rect x="1368" y="570" width="36" height="48" fill="#4ec9f0" />
    <rect x="1424" y="570" width="36" height="48" fill="#4ec9f0" />
    
    <rect x="1140" y="570" width="60" height="100" fill="#4ec9f0" />
    <rect x="1152" y="560" width="36" height="20" fill="#f0d060" opacity="0.8" />
    
    <rect x="920" y="650" width="36" height="48" fill="#4ec9f0" opacity="0.7" />
    <rect x="976" y="650" width="36" height="48" fill="#4ec9f0" opacity="0.7" />
    <rect x="1032" y="650" width="36" height="48" fill="#4ec9f0" opacity="0.7" />
    <rect x="1088" y="650" width="36" height="48" fill="#4ec9f0" opacity="0.7" />
    <rect x="1200" y="650" width="36" height="48" fill="#4ec9f0" opacity="0.7" />
    <rect x="1256" y="650" width="36" height="48" fill="#4ec9f0" opacity="0.7" />
    <rect x="1312" y="650" width="36" height="48" fill="#4ec9f0" opacity="0.7" />
    <rect x="1368" y="650" width="36" height="48" fill="#4ec9f0" opacity="0.7" />
    <rect x="1424" y="650" width="36" height="48" fill="#4ec9f0" opacity="0.7" />
    
    <rect x="900" y="528" width="560" height="16" fill="#2a5080" />
    
    <rect x="900" y="508" width="20" height="24" fill="#2a5080" />
    <rect x="932" y="508" width="20" height="24" fill="#2a5080" />
    <rect x="964" y="508" width="20" height="24" fill="#2a5080" />
    <rect x="996" y="508" width="20" height="24" fill="#2a5080" />
    <rect x="1028" y="508" width="20" height="24" fill="#2a5080" />
    <rect x="1060" y="508" width="20" height="24" fill="#2a5080" />
    <rect x="1092" y="508" width="20" height="24" fill="#2a5080" />
    <rect x="1124" y="508" width="20" height="24" fill="#2a5080" />
    <rect x="1156" y="508" width="20" height="24" fill="#2a5080" />
    <rect x="1188" y="508" width="20" height="24" fill="#2a5080" />
    <rect x="1220" y="508" width="20" height="24" fill="#2a5080" />
    <rect x="1252" y="508" width="20" height="24" fill="#2a5080" />
    <rect x="1284" y="508" width="20" height="24" fill="#2a5080" />
    <rect x="1316" y="508" width="20" height="24" fill="#2a5080" />
    <rect x="1348" y="508" width="20" height="24" fill="#2a5080" />
    <rect x="1380" y="508" width="20" height="24" fill="#2a5080" />
    <rect x="1412" y="508" width="20" height="24" fill="#2a5080" />
    <rect x="1444" y="508" width="20" height="24" fill="#2a5080" />
    
    <rect x="1168" y="460" width="8" height="48" fill="#cccccc" />
    <rect x="1176" y="464" width="32" height="20" fill="#cc0000" />
    <rect x="1176" y="464" width="32" height="6" fill="#003399" />
    <rect x="1176" y="474" width="32" height="6" fill="#ffffff" />
    <rect x="1176" y="480" width="32" height="6" fill="#003399" />
    
    <rect x="900" y="840" width="560" height="24" fill="#1a6622" />
    <rect x="900" y="864" width="560" height="16" fill="#143d18" />
  </g>

  
  <g filter="url(#glow)" transform="translate(200, 180)">
    
    <rect x="0" y="160" width="360" height="80" fill="#c8a000" />
    <rect x="0" y="160" width="360" height="16" fill="#e8c000" />
    
    <rect x="40" y="176" width="24" height="24" fill="#ff4444" />
    <rect x="100" y="176" width="24" height="24" fill="#44ff44" />
    <rect x="160" y="176" width="24" height="24" fill="#4488ff" />
    <rect x="220" y="176" width="24" height="24" fill="#ff44aa" />
    <rect x="280" y="176" width="24" height="24" fill="#ffaa00" />
    
    
    <rect x="0" y="80" width="32" height="80" fill="#c8a000" />
    <rect x="32" y="96" width="32" height="64" fill="#c8a000" />
    <rect x="0" y="64" width="32" height="24" fill="#c8a000" />
    <rect x="8" y="40" width="24" height="32" fill="#c8a000" />
    <rect x="16" y="16" width="16" height="32" fill="#c8a000" />
    <rect x="20" y="0" width="8" height="20" fill="#e8c000" />
    
    <rect x="16" y="0" width="16" height="12" fill="#ff4444" />
    
    <rect x="80" y="48" width="32" height="112" fill="#c8a000" />
    <rect x="88" y="24" width="24" height="32" fill="#c8a000" />
    <rect x="92" y="8" width="16" height="20" fill="#e8c000" />
    
    <rect x="88" y="0" width="24" height="12" fill="#44ff44" />
    
    <rect x="160" y="24" width="40" height="136" fill="#c8a000" />
    <rect x="164" y="8" width="32" height="24" fill="#c8a000" />
    <rect x="168" y="0" width="24" height="16" fill="#e8c000" />
    
    <rect x="164" y="0" width="32" height="14" fill="#4488ff" />
    
    <rect x="176" y="-24" width="8" height="28" fill="#e8c000" />
    <rect x="164" y="-16" width="32" height="8" fill="#e8c000" />
    
    <rect x="248" y="48" width="32" height="112" fill="#c8a000" />
    <rect x="248" y="24" width="24" height="32" fill="#c8a000" />
    <rect x="248" y="8" width="16" height="20" fill="#e8c000" />
    
    <rect x="248" y="0" width="24" height="12" fill="#ff44aa" />
    
    <rect x="328" y="80" width="32" height="80" fill="#c8a000" />
    <rect x="296" y="96" width="32" height="64" fill="#c8a000" />
    <rect x="328" y="64" width="32" height="24" fill="#c8a000" />
    <rect x="320" y="40" width="24" height="32" fill="#c8a000" />
    <rect x="316" y="16" width="16" height="32" fill="#c8a000" />
    <rect x="316" y="0" width="8" height="20" fill="#e8c000" />
    
    <rect x="316" y="0" width="16" height="12" fill="#ffaa00" />
    
    <rect x="0" y="160" width="360" height="4" fill="#ffdd44" opacity="0.5" />
  </g>

  
  <g transform="translate(680, 420)" filter="url(#glow)">
    
    <rect x="0" y="80" width="160" height="140" fill="#3355cc" />
    <rect x="16" y="96" width="128" height="108" fill="#4466dd" />
    
    <rect x="40" y="24" width="80" height="72" fill="#f5c5a0" />
    
    <rect x="56" y="48" width="12" height="12" fill="#222222" />
    <rect x="92" y="48" width="12" height="12" fill="#222222" />
    
    <rect x="60" y="48" width="4" height="4" fill="#ffffff" />
    <rect x="96" y="48" width="4" height="4" fill="#ffffff" />
    
    <rect x="60" y="76" width="8" height="4" fill="#cc7755" />
    <rect x="68" y="80" width="24" height="4" fill="#cc7755" />
    <rect x="92" y="76" width="8" height="4" fill="#cc7755" />
    
    <rect x="32" y="0" width="96" height="32" fill="#cc3344" />
    <rect x="40" y="0" width="80" height="12" fill="#dd4455" />
    
    <rect x="60" y="-16" width="8" height="20" fill="#e8c000" />
    <rect x="72" y="-24" width="16" height="28" fill="#e8c000" />
    <rect x="92" y="-16" width="8" height="20" fill="#e8c000" />
    <rect x="56" y="-4" width="48" height="12" fill="#c8a000" />
    <rect x="72" y="-28" width="8" height="6" fill="#ff4444" />
    
    <rect x="24" y="120" width="8" height="8" fill="#aabbff" />
    <rect x="48" y="148" width="8" height="8" fill="#aabbff" />
    <rect x="80" y="132" width="8" height="8" fill="#aabbff" />
    <rect x="116" y="112" width="8" height="8" fill="#aabbff" />
    <rect x="132" y="152" width="8" height="8" fill="#aabbff" />
  </g>

  
  
  
  <g transform="translate(150, 680)">
    
    <rect x="15" y="0" width="50" height="12" fill="#c8a000" />
    <rect x="20" y="-12" width="8" height="14" fill="#c8a000" />
    <rect x="35" y="-18" width="10" height="20" fill="#c8a000" />
    <rect x="52" y="-12" width="8" height="14" fill="#c8a000" />
    <rect x="39" y="-20" width="4" height="4" fill="#ff4444" />
    
    <rect x="20" y="12" width="40" height="36" fill="#f5c5a0" />
    
    <rect x="28" y="22" width="8" height="8" fill="#333" />
    <rect x="44" y="22" width="8" height="8" fill="#333" />
    
    <rect x="10" y="48" width="60" height="72" fill="#660066" />
    
    <rect x="10" y="52" width="16" height="60" fill="#003399" />
  </g>

  
  <g fill="#ffdd00" filter="url(#glow)">
    <rect x="260" y="716" width="60" height="12" />
    <rect x="308" y="704" width="16" height="36" />
  </g>

  
  <g transform="translate(340, 680)">
    <rect x="15" y="0" width="50" height="12" fill="#c8a000" />
    <rect x="20" y="-12" width="8" height="14" fill="#c8a000" />
    <rect x="35" y="-18" width="10" height="20" fill="#c8a000" />
    <rect x="52" y="-12" width="8" height="14" fill="#c8a000" />
    <rect x="39" y="-20" width="4" height="4" fill="#44ff44" />
    <rect x="20" y="12" width="40" height="36" fill="#f5c5a0" />
    <rect x="28" y="22" width="8" height="8" fill="#333" />
    <rect x="44" y="22" width="8" height="8" fill="#333" />
    <rect x="10" y="48" width="60" height="72" fill="#003399" />
    <rect x="10" y="52" width="16" height="60" fill="#660066" />
  </g>

  
  <g fill="#ffdd00" filter="url(#glow)">
    <rect x="450" y="716" width="60" height="12" />
    <rect x="498" y="704" width="16" height="36" />
  </g>

  
  <g transform="translate(530, 680)">
    <rect x="15" y="0" width="50" height="12" fill="#c8a000" />
    <rect x="20" y="-12" width="8" height="14" fill="#c8a000" />
    <rect x="35" y="-18" width="10" height="20" fill="#c8a000" />
    <rect x="52" y="-12" width="8" height="14" fill="#c8a000" />
    <rect x="39" y="-20" width="4" height="4" fill="#4488ff" />
    <rect x="20" y="12" width="40" height="36" fill="#f5c5a0" />
    <rect x="28" y="22" width="8" height="8" fill="#333" />
    <rect x="44" y="22" width="8" height="8" fill="#333" />
    <rect x="10" y="48" width="60" height="72" fill="#2255aa" />
    <rect x="10" y="52" width="16" height="60" fill="#cc3344" />
  </g>

  
  <g fill="#ffdd00" filter="url(#glow)">
    <rect x="640" y="716" width="60" height="12" />
    <rect x="688" y="704" width="16" height="36" />
  </g>

  
  <g transform="translate(720, 660)" filter="url(#glow)">
    
    <rect x="10" y="0" width="44" height="10" fill="#e8c000" />
    <rect x="12" y="-10" width="8" height="12" fill="#e8c000" />
    <rect x="26" y="-16" width="12" height="18" fill="#e8c000" />
    <rect x="44" y="-10" width="8" height="12" fill="#e8c000" />
    <rect x="30" y="-18" width="4" height="4" fill="#ff4444" />
    
    <rect x="8" y="10" width="48" height="44" fill="#f5c5a0" />
    <rect x="18" y="24" width="8" height="8" fill="#333" />
    <rect x="38" y="24" width="8" height="8" fill="#333" />
    
    <rect x="0" y="54" width="64" height="56" fill="#cc3344" />
    <rect x="8" y="60" width="48" height="44" fill="#dd4455" />
    
    <rect x="-12" y="10" width="8" height="8" fill="#ffdd00" />
    <rect x="68" y="10" width="8" height="8" fill="#ffdd00" />
    <rect x="-8" y="0" width="4" height="4" fill="#ffdd00" />
    <rect x="68" y="0" width="4" height="4" fill="#ffdd00" />
  </g>

  
  <text x="185" y="810" fill="#aaaaff" font-family="monospace" font-size="18" text-anchor="middle" filter="url(#glow)">QUEEN</text>
  <text x="375" y="810" fill="#aaaaff" font-family="monospace" font-size="18" text-anchor="middle" filter="url(#glow)">CHARLES</text>
  <text x="565" y="810" fill="#aaaaff" font-family="monospace" font-size="18" text-anchor="middle" filter="url(#glow)">WILLIAM</text>
  <text x="752" y="810" fill="#ffdd44" font-family="monospace" font-size="18" text-anchor="middle" filter="url(#glow)">GEORGE</text>

  
  
  <text x="854" y="192" fill="#000033" font-family="monospace" font-size="72" font-weight="bold" text-anchor="middle" letter-spacing="2">PRINCE GEORGE'S</text>
  <text x="854" y="280" fill="#000033" font-family="monospace" font-size="72" font-weight="bold" text-anchor="middle" letter-spacing="2">BIRTH AND ROYAL</text>
  <text x="854" y="368" fill="#000033" font-family="monospace" font-size="72" font-weight="bold" text-anchor="middle" letter-spacing="2">SUCCESSION</text>
  
  <text x="850" y="188" fill="#ffdd44" font-family="monospace" font-size="72" font-weight="bold" text-anchor="middle" letter-spacing="2" filter="url(#glow)">PRINCE GEORGE'S</text>
  <text x="850" y="276" fill="#ffdd44" font-family="monospace" font-size="72" font-weight="bold" text-anchor="middle" letter-spacing="2" filter="url(#glow)">BIRTH AND ROYAL</text>
  <text x="850" y="364" fill="#ffdd44" font-family="monospace" font-size="72" font-weight="bold" text-anchor="middle" letter-spacing="2" filter="url(#glow)">SUCCESSION</text>

  
  <text x="850" y="440" fill="#88ccff" font-family="monospace" font-size="32" text-anchor="middle" filter="url(#glow)">22 JULY 2013  •  ST. MARY'S HOSPITAL</text>

  
  <rect x="40" y="40" width="1456" height="944" fill="none" stroke="#4488ff" stroke-width="8" opacity="0.5" />
  <rect x="52" y="52" width="1432" height="920" fill="none" stroke="#2244aa" stroke-width="4" opacity="0.5" />

  
  <rect x="40" y="40" width="40" height="40" fill="#4488ff" opacity="0.8" />
  <rect x="1456" y="40" width="40" height="40" fill="#4488ff" opacity="0.8" />
  <rect x="40" y="944" width="40" height="40" fill="#4488ff" opacity="0.8" />
  <rect x="1456" y="944" width="40" height="40" fill="#4488ff" opacity="0.8" />

  
  <text x="850" y="960" fill="#ffaacc" font-family="monospace" font-size="24" text-anchor="middle" filter="url(#glow)" opacity="0.9">★ ROYAL SUCCESSION UNLOCKED ★</text>

  
  <radialGradient id="vig" cx="50%" cy="50%" r="75%">
    <stop offset="60%" stop-color="transparent" />
    <stop offset="100%" stop-color="#000000" stop-opacity="0.7" />
  </radialGradient>
  <rect width="1536" height="1024" fill="url(#vig)" />
</svg>